  0
SECTION
  2
HEADER
  9
$ACADVER
  1
AC1014
  9
$HANDSEED
  5
FFFF
  9
$MEASUREMENT
 70
     1
  0
ENDSEC
  0
SECTION
  2
TABLES
  0
TABLE
  2
VPORT
  5
8
330
0
100
AcDbSymbolTable
 70
     4
  0
VPORT
  5
2E
330
8
100
AcDbSymbolTableRecord
100
AcDbViewportTableRecord
  2
*ACTIVE
 70
     0
 10
0.0
 20
0.0
 11
1.0
 21
1.0
 12
210.0
 22
148.5
 13
0.0
 23
0.0
 14
10.0
 24
10.0
 15
10.0
 25
10.0
 16
0.0
 26
0.0
 36
1.0
 17
0.0
 27
0.0
 37
0.0
 40
341.0
 41
1.24
 42
50.0
 43
0.0
 44
0.0
 50
0.0
 51
0.0
 71
     0
 72
   100
 73
     1
 74
     3
 75
     0
 76
     0
 77
     0
 78
     0
  0
ENDTAB
  0
TABLE
  2
LTYPE
  5
5
330
0
100
AcDbSymbolTable
 70
     1
  0
LTYPE
  5
14
330
5
100
AcDbSymbolTableRecord
100
AcDbLinetypeTableRecord
  2
BYBLOCK
 70
     0
  3

 72
    65
 73
     0
 40
0.0
  0
LTYPE
  5
15
330
5
100
AcDbSymbolTableRecord
100
AcDbLinetypeTableRecord
  2
BYLAYER
 70
     0
  3

 72
    65
 73
     0
 40
0.0
  0
LTYPE
  5
16
330
5
100
AcDbSymbolTableRecord
100
AcDbLinetypeTableRecord
  2
CONTINUOUS
 70
     0
  3
Solid line
 72
    65
 73
     0
 40
0.0
  0
ENDTAB
  0
TABLE
  2
LAYER
  5
2
100
AcDbSymbolTable
 70
5
  0
LAYER
  5
50
100
AcDbSymbolTableRecord
100
AcDbLayerTableRecord
  2
0
 70
0
  6
CONTINUOUS
  0
LAYER
  5
51
100
AcDbSymbolTableRecord
100
AcDbLayerTableRecord
  2
Ebene_1
 70
0
  6
CONTINUOUS
  0
LAYER
  5
52
100
AcDbSymbolTableRecord
100
AcDbLayerTableRecord
  2
dxf2
 70
0
  6
CONTINUOUS
  0
LAYER
  5
53
100
AcDbSymbolTableRecord
100
AcDbLayerTableRecord
  2
dxf1
 70
0
  6
CONTINUOUS
  0
LAYER
  5
54
100
AcDbSymbolTableRecord
100
AcDbLayerTableRecord
  2
vector
 70
0
  6
CONTINUOUS
  0
ENDTAB
  0
TABLE
  2
STYLE
  5
3
330
0
100
AcDbSymbolTable
 70
     1
  0
STYLE
  5
11
330
3
100
AcDbSymbolTableRecord
100
AcDbTextStyleTableRecord
  2
STANDARD
 70
     0
 40
0.0
 41
1.0
 50
0.0
 71
     0
 42
2.5
  3
txt
  4

  0
ENDTAB
  0
TABLE
  2
VIEW
  5
6
330
0
100
AcDbSymbolTable
 70
     0
  0
ENDTAB
  0
TABLE
  2
UCS
  5
7
330
0
100
AcDbSymbolTable
 70
     0
  0
ENDTAB
  0
TABLE
  2
APPID
  5
9
330
0
100
AcDbSymbolTable
 70
     2
  0
APPID
  5
12
330
9
100
AcDbSymbolTableRecord
100
AcDbRegAppTableRecord
  2
ACAD
 70
     0
  0
ENDTAB
  0
TABLE
  2
DIMSTYLE
  5
A
330
0
100
AcDbSymbolTable
 70
     1
  0
DIMSTYLE
105
27
330
A
100
AcDbSymbolTableRecord
100
AcDbDimStyleTableRecord
  2
ISO-25
 70
     0
  3

  4

  5

  6

  7

 40
1.0
 41
2.5
 42
0.625
 43
3.75
 44
1.25
 45
0.0
 46
0.0
 47
0.0
 48
0.0
140
2.5
141
2.5
142
0.0
143
0.03937007874016
144
1.0
145
0.0
146
1.0
147
0.625
 71
     0
 72
     0
 73
     0
 74
     0
 75
     0
 76
     0
 77
     1
 78
     8
170
     0
171
     3
172
     1
173
     0
174
     0
175
     0
176
     0
177
     0
178
     0
270
     2
271
     2
272
     2
273
     2
274
     3
340
11
275
     0
280
     0
281
     0
282
     0
283
     0
284
     8
285
     0
286
     0
287
     3
288
     0
  0
ENDTAB
  0
TABLE
  2
BLOCK_RECORD
  5
1
330
0
100
AcDbSymbolTable
 70
     1
  0
BLOCK_RECORD
  5
1F
330
1
100
AcDbSymbolTableRecord
100
AcDbBlockTableRecord
  2
*MODEL_SPACE
  0
BLOCK_RECORD
  5
1B
330
1
100
AcDbSymbolTableRecord
100
AcDbBlockTableRecord
  2
*PAPER_SPACE
  0
ENDTAB
  0
ENDSEC
  0
SECTION
  2
BLOCKS
  0
BLOCK
  5
20
330
1F
100
AcDbEntity
  8
0
100
AcDbBlockBegin
  2
*MODEL_SPACE
 70
     0
 10
0.0
 20
0.0
 30
0.0
  3
*MODEL_SPACE
  1

  0
ENDBLK
  5
21
330
1F
100
AcDbEntity
  8
0
100
AcDbBlockEnd
  0
BLOCK
  5
1C
330
1B
100
AcDbEntity
 67
     1
  8
0
100
AcDbBlockBegin
  2
*PAPER_SPACE
  1

  0
ENDBLK
  5
1D
330
1B
100
AcDbEntity
 67
     1
  8
0
100
AcDbBlockEnd
  0
ENDSEC
  0
SECTION
  2
ENTITIES
  0
LINE
  5
100
100
AcDbEntity
  8
dxf1
 62
1
100
AcDbLine
 10
0.053409
 20
2.385599
 30
0.0
 11
0.515031
 21
2.258370
 31
0.0
  0
LINE
  5
101
100
AcDbEntity
  8
dxf1
 62
1
100
AcDbLine
 10
0.515031
 20
2.258370
 30
0.0
 11
0.975584
 21
2.134395
 31
0.0
  0
LINE
  5
102
100
AcDbEntity
  8
dxf1
 62
1
100
AcDbLine
 10
0.975584
 20
2.134395
 30
0.0
 11
1.435025
 21
2.013704
 31
0.0
  0
LINE
  5
103
100
AcDbEntity
  8
dxf1
 62
1
100
AcDbLine
 10
1.435025
 20
2.013704
 30
0.0
 11
1.893316
 21
1.896322
 31
0.0
  0
LINE
  5
104
100
AcDbEntity
  8
dxf1
 62
1
100
AcDbLine
 10
1.893316
 20
1.896322
 30
0.0
 11
2.350414
 21
1.782277
 31
0.0
  0
LINE
  5
105
100
AcDbEntity
  8
dxf1
 62
1
100
AcDbLine
 10
2.350414
 20
1.782277
 30
0.0
 11
2.806281
 21
1.671599
 31
0.0
  0
LINE
  5
106
100
AcDbEntity
  8
dxf1
 62
1
100
AcDbLine
 10
2.806281
 20
1.671599
 30
0.0
 11
3.260874
 21
1.564313
 31
0.0
  0
LINE
  5
107
100
AcDbEntity
  8
dxf1
 62
1
100
AcDbLine
 10
3.260874
 20
1.564313
 30
0.0
 11
3.714153
 21
1.460448
 31
0.0
  0
LINE
  5
108
100
AcDbEntity
  8
dxf1
 62
1
100
AcDbLine
 10
3.714153
 20
1.460448
 30
0.0
 11
4.166078
 21
1.360031
 31
0.0
  0
LINE
  5
109
100
AcDbEntity
  8
dxf1
 62
1
100
AcDbLine
 10
4.166078
 20
1.360031
 30
0.0
 11
4.616609
 21
1.263091
 31
0.0
  0
LINE
  5
10a
100
AcDbEntity
  8
dxf1
 62
1
100
AcDbLine
 10
4.616609
 20
1.263091
 30
0.0
 11
5.065703
 21
1.169651
 31
0.0
  0
LINE
  5
10b
100
AcDbEntity
  8
dxf1
 62
1
100
AcDbLine
 10
5.065703
 20
1.169651
 30
0.0
 11
5.513321
 21
1.079741
 31
0.0
  0
LINE
  5
10c
100
AcDbEntity
  8
dxf1
 62
1
100
AcDbLine
 10
5.513321
 20
1.079741
 30
0.0
 11
5.959422
 21
0.993391
 31
0.0
  0
LINE
  5
10d
100
AcDbEntity
  8
dxf1
 62
1
100
AcDbLine
 10
5.959422
 20
0.993391
 30
0.0
 11
6.403966
 21
0.910631
 31
0.0
  0
LINE
  5
10e
100
AcDbEntity
  8
dxf1
 62
1
100
AcDbLine
 10
6.403966
 20
0.910631
 30
0.0
 11
6.846911
 21
0.831480
 31
0.0
  0
LINE
  5
10f
100
AcDbEntity
  8
dxf1
 62
1
100
AcDbLine
 10
6.846911
 20
0.831480
 30
0.0
 11
7.288217
 21
0.755980
 31
0.0
  0
LINE
  5
110
100
AcDbEntity
  8
dxf1
 62
1
100
AcDbLine
 10
7.288217
 20
0.755980
 30
0.0
 11
7.727843
 21
0.684140
 31
0.0
  0
LINE
  5
111
100
AcDbEntity
  8
dxf1
 62
1
100
AcDbLine
 10
7.727843
 20
0.684140
 30
0.0
 11
8.165751
 21
0.616000
 31
0.0
  0
LINE
  5
112
100
AcDbEntity
  8
dxf1
 62
1
100
AcDbLine
 10
8.165751
 20
0.616000
 30
0.0
 11
8.601896
 21
0.551590
 31
0.0
  0
LINE
  5
113
100
AcDbEntity
  8
dxf1
 62
1
100
AcDbLine
 10
8.601896
 20
0.551590
 30
0.0
 11
9.036240
 21
0.490930
 31
0.0
  0
LINE
  5
114
100
AcDbEntity
  8
dxf1
 62
1
100
AcDbLine
 10
9.036240
 20
0.490930
 30
0.0
 11
9.468742
 21
0.434050
 31
0.0
  0
LINE
  5
115
100
AcDbEntity
  8
dxf1
 62
1
100
AcDbLine
 10
9.468742
 20
0.434050
 30
0.0
 11
9.899362
 21
0.380980
 31
0.0
  0
LINE
  5
116
100
AcDbEntity
  8
dxf1
 62
1
100
AcDbLine
 10
9.899362
 20
0.380980
 30
0.0
 11
10.328058
 21
0.331740
 31
0.0
  0
LINE
  5
117
100
AcDbEntity
  8
dxf1
 62
1
100
AcDbLine
 10
10.328058
 20
0.331740
 30
0.0
 11
10.754789
 21
0.286360
 31
0.0
  0
LINE
  5
118
100
AcDbEntity
  8
dxf1
 62
1
100
AcDbLine
 10
10.754789
 20
0.286360
 30
0.0
 11
11.179516
 21
0.244880
 31
0.0
  0
LINE
  5
119
100
AcDbEntity
  8
dxf1
 62
1
100
AcDbLine
 10
11.179516
 20
0.244880
 30
0.0
 11
11.602198
 21
0.207310
 31
0.0
  0
LINE
  5
11a
100
AcDbEntity
  8
dxf1
 62
1
100
AcDbLine
 10
11.602198
 20
0.207310
 30
0.0
 11
12.022794
 21
0.173690
 31
0.0
  0
LINE
  5
11b
100
AcDbEntity
  8
dxf1
 62
1
100
AcDbLine
 10
12.022794
 20
0.173690
 30
0.0
 11
12.441262
 21
0.144040
 31
0.0
  0
LINE
  5
11c
100
AcDbEntity
  8
dxf1
 62
1
100
AcDbLine
 10
12.441262
 20
0.144040
 30
0.0
 11
12.857564
 21
0.118400
 31
0.0
  0
LINE
  5
11d
100
AcDbEntity
  8
dxf1
 62
1
100
AcDbLine
 10
12.857564
 20
0.118400
 30
0.0
 11
13.271658
 21
0.096780
 31
0.0
  0
LINE
  5
11e
100
AcDbEntity
  8
dxf1
 62
1
100
AcDbLine
 10
13.271658
 20
0.096780
 30
0.0
 11
13.683503
 21
0.079220
 31
0.0
  0
LINE
  5
11f
100
AcDbEntity
  8
dxf1
 62
1
100
AcDbLine
 10
13.683503
 20
0.079220
 30
0.0
 11
14.093058
 21
0.065750
 31
0.0
  0
LINE
  5
120
100
AcDbEntity
  8
dxf1
 62
1
100
AcDbLine
 10
14.093058
 20
0.065750
 30
0.0
 11
14.500284
 21
0.056350
 31
0.0
  0
LINE
  5
121
100
AcDbEntity
  8
dxf1
 62
1
100
AcDbLine
 10
14.500284
 20
0.056350
 30
0.0
 11
14.905139
 21
0.051150
 31
0.0
  0
LINE
  5
122
100
AcDbEntity
  8
dxf1
 62
1
100
AcDbLine
 10
14.905139
 20
0.051150
 30
0.0
 11
15.307584
 21
0.050050
 31
0.0
  0
LINE
  5
123
100
AcDbEntity
  8
dxf1
 62
1
100
AcDbLine
 10
15.307584
 20
0.050050
 30
0.0
 11
15.707576
 21
0.053150
 31
0.0
  0
LINE
  5
124
100
AcDbEntity
  8
dxf1
 62
1
100
AcDbLine
 10
15.707576
 20
0.053150
 30
0.0
 11
16.105076
 21
0.060550
 31
0.0
  0
LINE
  5
125
100
AcDbEntity
  8
dxf1
 62
1
100
AcDbLine
 10
16.105076
 20
0.060550
 30
0.0
 11
16.500042
 21
0.072160
 31
0.0
  0
LINE
  5
126
100
AcDbEntity
  8
dxf1
 62
1
100
AcDbLine
 10
16.500042
 20
0.072160
 30
0.0
 11
16.892436
 21
0.088050
 31
0.0
  0
LINE
  5
127
100
AcDbEntity
  8
dxf1
 62
1
100
AcDbLine
 10
16.892436
 20
0.088050
 30
0.0
 11
17.282214
 21
0.108240
 31
0.0
  0
LINE
  5
128
100
AcDbEntity
  8
dxf1
 62
1
100
AcDbLine
 10
17.282214
 20
0.108240
 30
0.0
 11
17.669337
 21
0.132770
 31
0.0
  0
LINE
  5
129
100
AcDbEntity
  8
dxf1
 62
1
100
AcDbLine
 10
17.669337
 20
0.132770
 30
0.0
 11
18.053765
 21
0.161660
 31
0.0
  0
LINE
  5
12a
100
AcDbEntity
  8
dxf1
 62
1
100
AcDbLine
 10
18.053765
 20
0.161660
 30
0.0
 11
18.435456
 21
0.194940
 31
0.0
  0
LINE
  5
12b
100
AcDbEntity
  8
dxf1
 62
1
100
AcDbLine
 10
18.435456
 20
0.194940
 30
0.0
 11
18.814371
 21
0.232630
 31
0.0
  0
LINE
  5
12c
100
AcDbEntity
  8
dxf1
 62
1
100
AcDbLine
 10
18.814371
 20
0.232630
 30
0.0
 11
19.190467
 21
0.274770
 31
0.0
  0
LINE
  5
12d
100
AcDbEntity
  8
dxf1
 62
1
100
AcDbLine
 10
19.190467
 20
0.274770
 30
0.0
 11
19.563706
 21
0.321380
 31
0.0
  0
LINE
  5
12e
100
AcDbEntity
  8
dxf1
 62
1
100
AcDbLine
 10
19.563706
 20
0.321380
 30
0.0
 11
19.934045
 21
0.372490
 31
0.0
  0
LINE
  5
12f
100
AcDbEntity
  8
dxf1
 62
1
100
AcDbLine
 10
19.934045
 20
0.372490
 30
0.0
 11
20.301444
 21
0.428120
 31
0.0
  0
LINE
  5
130
100
AcDbEntity
  8
dxf1
 62
1
100
AcDbLine
 10
20.301444
 20
0.428120
 30
0.0
 11
20.665865
 21
0.488310
 31
0.0
  0
LINE
  5
131
100
AcDbEntity
  8
dxf1
 62
1
100
AcDbLine
 10
20.665865
 20
0.488310
 30
0.0
 11
21.027263
 21
0.553080
 31
0.0
  0
LINE
  5
132
100
AcDbEntity
  8
dxf1
 62
1
100
AcDbLine
 10
21.027263
 20
0.553080
 30
0.0
 11
21.385600
 21
0.622460
 31
0.0
  0
LINE
  5
133
100
AcDbEntity
  8
dxf1
 62
1
100
AcDbLine
 10
21.385600
 20
0.622460
 30
0.0
 11
21.740835
 21
0.696470
 31
0.0
  0
LINE
  5
134
100
AcDbEntity
  8
dxf1
 62
1
100
AcDbLine
 10
21.740835
 20
0.696470
 30
0.0
 11
22.092928
 21
0.775150
 31
0.0
  0
LINE
  5
135
100
AcDbEntity
  8
dxf1
 62
1
100
AcDbLine
 10
22.092928
 20
0.775150
 30
0.0
 11
22.441836
 21
0.858520
 31
0.0
  0
LINE
  5
136
100
AcDbEntity
  8
dxf1
 62
1
100
AcDbLine
 10
22.441836
 20
0.858520
 30
0.0
 11
22.787520
 21
0.946611
 31
0.0
  0
LINE
  5
137
100
AcDbEntity
  8
dxf1
 62
1
100
AcDbLine
 10
22.787520
 20
0.946611
 30
0.0
 11
23.129940
 21
1.039451
 31
0.0
  0
LINE
  5
138
100
AcDbEntity
  8
dxf1
 62
1
100
AcDbLine
 10
23.129940
 20
1.039451
 30
0.0
 11
23.469054
 21
1.137061
 31
0.0
  0
LINE
  5
139
100
AcDbEntity
  8
dxf1
 62
1
100
AcDbLine
 10
23.469054
 20
1.137061
 30
0.0
 11
23.804822
 21
1.239479
 31
0.0
  0
LINE
  5
13a
100
AcDbEntity
  8
dxf1
 62
1
100
AcDbLine
 10
23.804822
 20
1.239479
 30
0.0
 11
24.137204
 21
1.346727
 31
0.0
  0
LINE
  5
13b
100
AcDbEntity
  8
dxf1
 62
1
100
AcDbLine
 10
24.137204
 20
1.346727
 30
0.0
 11
24.466158
 21
1.458833
 31
0.0
  0
LINE
  5
13c
100
AcDbEntity
  8
dxf1
 62
1
100
AcDbLine
 10
24.466158
 20
1.458833
 30
0.0
 11
24.791644
 21
1.575826
 31
0.0
  0
LINE
  5
13d
100
AcDbEntity
  8
dxf1
 62
1
100
AcDbLine
 10
24.791644
 20
1.575826
 30
0.0
 11
25.113622
 21
1.697732
 31
0.0
  0
LINE
  5
13e
100
AcDbEntity
  8
dxf1
 62
1
100
AcDbLine
 10
25.113622
 20
1.697732
 30
0.0
 11
25.432050
 21
1.824579
 31
0.0
  0
LINE
  5
13f
100
AcDbEntity
  8
dxf1
 62
1
100
AcDbLine
 10
25.432050
 20
1.824579
 30
0.0
 11
25.746889
 21
1.956395
 31
0.0
  0
LINE
  5
140
100
AcDbEntity
  8
dxf1
 62
1
100
AcDbLine
 10
25.746889
 20
1.956395
 30
0.0
 11
26.058096
 21
2.093208
 31
0.0
  0
LINE
  5
141
100
AcDbEntity
  8
dxf1
 62
1
100
AcDbLine
 10
26.058096
 20
2.093208
 30
0.0
 11
26.365633
 21
2.235045
 31
0.0
  0
LINE
  5
142
100
AcDbEntity
  8
dxf1
 62
1
100
AcDbLine
 10
26.365633
 20
2.235045
 30
0.0
 11
26.669457
 21
2.381934
 31
0.0
  0
LINE
  5
143
100
AcDbEntity
  8
dxf1
 62
1
100
AcDbLine
 10
26.669457
 20
2.381934
 30
0.0
 11
26.969529
 21
2.533902
 31
0.0
  0
LINE
  5
144
100
AcDbEntity
  8
dxf1
 62
1
100
AcDbLine
 10
26.969529
 20
2.533902
 30
0.0
 11
27.265808
 21
2.690978
 31
0.0
  0
LINE
  5
145
100
AcDbEntity
  8
dxf1
 62
1
100
AcDbLine
 10
27.265808
 20
2.690978
 30
0.0
 11
27.558254
 21
2.853189
 31
0.0
  0
LINE
  5
146
100
AcDbEntity
  8
dxf1
 62
1
100
AcDbLine
 10
27.558254
 20
2.853189
 30
0.0
 11
27.846824
 21
3.020561
 31
0.0
  0
LINE
  5
147
100
AcDbEntity
  8
dxf1
 62
1
100
AcDbLine
 10
27.846824
 20
3.020561
 30
0.0
 11
28.131479
 21
3.193124
 31
0.0
  0
LINE
  5
148
100
AcDbEntity
  8
dxf1
 62
1
100
AcDbLine
 10
28.131479
 20
3.193124
 30
0.0
 11
28.412179
 21
3.370904
 31
0.0
  0
LINE
  5
149
100
AcDbEntity
  8
dxf1
 62
1
100
AcDbLine
 10
28.412179
 20
3.370904
 30
0.0
 11
28.688882
 21
3.553930
 31
0.0
  0
LINE
  5
14a
100
AcDbEntity
  8
dxf1
 62
1
100
AcDbLine
 10
28.688882
 20
3.553930
 30
0.0
 11
28.961548
 21
3.742229
 31
0.0
  0
LINE
  5
14b
100
AcDbEntity
  8
dxf1
 62
1
100
AcDbLine
 10
28.961548
 20
3.742229
 30
0.0
 11
29.230137
 21
3.935828
 31
0.0
  0
LINE
  5
14c
100
AcDbEntity
  8
dxf1
 62
1
100
AcDbLine
 10
29.230137
 20
3.935828
 30
0.0
 11
29.494607
 21
4.134756
 31
0.0
  0
LINE
  5
14d
100
AcDbEntity
  8
dxf1
 62
1
100
AcDbLine
 10
29.494607
 20
4.134756
 30
0.0
 11
29.754918
 21
4.339039
 31
0.0
  0
LINE
  5
14e
100
AcDbEntity
  8
dxf1
 62
1
100
AcDbLine
 10
29.754918
 20
4.339039
 30
0.0
 11
30.011030
 21
4.548708
 31
0.0
  0
LINE
  5
14f
100
AcDbEntity
  8
dxf1
 62
1
100
AcDbLine
 10
30.011030
 20
4.548708
 30
0.0
 11
30.262901
 21
4.763786
 31
0.0
  0
LINE
  5
150
100
AcDbEntity
  8
dxf1
 62
1
100
AcDbLine
 10
30.262901
 20
4.763786
 30
0.0
 11
30.510491
 21
4.984304
 31
0.0
  0
LINE
  5
151
100
AcDbEntity
  8
dxf1
 62
1
100
AcDbLine
 10
30.510491
 20
4.984304
 30
0.0
 11
30.753760
 21
5.210288
 31
0.0
  0
LINE
  5
152
100
AcDbEntity
  8
dxf1
 62
1
100
AcDbLine
 10
30.753760
 20
5.210288
 30
0.0
 11
30.992667
 21
5.441766
 31
0.0
  0
LINE
  5
153
100
AcDbEntity
  8
dxf1
 62
1
100
AcDbLine
 10
30.992667
 20
5.441766
 30
0.0
 11
31.227171
 21
5.678766
 31
0.0
  0
LINE
  5
154
100
AcDbEntity
  8
dxf1
 62
1
100
AcDbLine
 10
31.227171
 20
5.678766
 30
0.0
 11
31.457231
 21
5.921315
 31
0.0
  0
LINE
  5
155
100
AcDbEntity
  8
dxf1
 62
1
100
AcDbLine
 10
31.457231
 20
5.921315
 30
0.0
 11
31.682806
 21
6.169442
 31
0.0
  0
LINE
  5
156
100
AcDbEntity
  8
dxf1
 62
1
100
AcDbLine
 10
31.682806
 20
6.169442
 30
0.0
 11
31.903858
 21
6.423174
 31
0.0
  0
LINE
  5
157
100
AcDbEntity
  8
dxf1
 62
1
100
AcDbLine
 10
31.903858
 20
6.423174
 30
0.0
 11
32.120343
 21
6.682538
 31
0.0
  0
LINE
  5
158
100
AcDbEntity
  8
dxf1
 62
1
100
AcDbLine
 10
32.120343
 20
6.682538
 30
0.0
 11
32.332223
 21
6.947562
 31
0.0
  0
LINE
  5
159
100
AcDbEntity
  8
dxf1
 62
1
100
AcDbLine
 10
32.332223
 20
6.947562
 30
0.0
 11
32.539455
 21
7.218274
 31
0.0
  0
LINE
  5
15a
100
AcDbEntity
  8
dxf1
 62
1
100
AcDbLine
 10
32.539455
 20
7.218274
 30
0.0
 11
32.742002
 21
7.494701
 31
0.0
  0
LINE
  5
15b
100
AcDbEntity
  8
dxf1
 62
1
100
AcDbLine
 10
32.742002
 20
7.494701
 30
0.0
 11
32.939819
 21
7.776871
 31
0.0
  0
LINE
  5
15c
100
AcDbEntity
  8
dxf1
 62
1
100
AcDbLine
 10
32.939819
 20
7.776871
 30
0.0
 11
33.132867
 21
8.064813
 31
0.0
  0
LINE
  5
15d
100
AcDbEntity
  8
dxf1
 62
1
100
AcDbLine
 10
33.132867
 20
8.064813
 30
0.0
 11
33.321107
 21
8.358552
 31
0.0
  0
LINE
  5
15e
100
AcDbEntity
  8
dxf1
 62
1
100
AcDbLine
 10
33.321107
 20
8.358552
 30
0.0
 11
33.504496
 21
8.658117
 31
0.0
  0
LINE
  5
15f
100
AcDbEntity
  8
dxf1
 62
1
100
AcDbLine
 10
33.504496
 20
8.658117
 30
0.0
 11
33.682995
 21
8.963535
 31
0.0
  0
LINE
  5
160
100
AcDbEntity
  8
dxf1
 62
1
100
AcDbLine
 10
33.682995
 20
8.963535
 30
0.0
 11
33.856562
 21
9.274835
 31
0.0
  0
LINE
  5
161
100
AcDbEntity
  8
dxf1
 62
1
100
AcDbLine
 10
33.856562
 20
9.274835
 30
0.0
 11
34.025157
 21
9.592044
 31
0.0
  0
LINE
  5
162
100
AcDbEntity
  8
dxf1
 62
1
100
AcDbLine
 10
34.025157
 20
9.592044
 30
0.0
 11
34.188740
 21
9.915190
 31
0.0
  0
LINE
  5
163
100
AcDbEntity
  8
dxf1
 62
1
100
AcDbLine
 10
34.188740
 20
9.915190
 30
0.0
 11
34.347270
 21
10.244299
 31
0.0
  0
LINE
  5
164
100
AcDbEntity
  8
dxf1
 62
1
100
AcDbLine
 10
34.347270
 20
10.244299
 30
0.0
 11
34.500707
 21
10.579401
 31
0.0
  0
LINE
  5
165
100
AcDbEntity
  8
dxf1
 62
1
100
AcDbLine
 10
34.500707
 20
10.579401
 30
0.0
 11
34.649008
 21
10.920522
 31
0.0
  0
LINE
  5
166
100
AcDbEntity
  8
dxf1
 62
1
100
AcDbLine
 10
34.649008
 20
10.920522
 30
0.0
 11
34.792134
 21
11.267690
 31
0.0
  0
LINE
  5
167
100
AcDbEntity
  8
dxf1
 62
1
100
AcDbLine
 10
34.792134
 20
11.267690
 30
0.0
 11
34.930045
 21
11.620933
 31
0.0
  0
LINE
  5
168
100
AcDbEntity
  8
dxf1
 62
1
100
AcDbLine
 10
34.930045
 20
11.620933
 30
0.0
 11
35.062698
 21
11.980278
 31
0.0
  0
LINE
  5
169
100
AcDbEntity
  8
dxf1
 62
1
100
AcDbLine
 10
35.062698
 20
11.980278
 30
0.0
 11
35.190055
 21
12.345754
 31
0.0
  0
LINE
  5
16a
100
AcDbEntity
  8
dxf1
 62
1
100
AcDbLine
 10
35.190055
 20
12.345754
 30
0.0
 11
35.312074
 21
12.717387
 31
0.0
  0
LINE
  5
16b
100
AcDbEntity
  8
dxf1
 62
1
100
AcDbLine
 10
35.312074
 20
12.717387
 30
0.0
 11
35.428715
 21
13.095205
 31
0.0
  0
LINE
  5
16c
100
AcDbEntity
  8
dxf1
 62
1
100
AcDbLine
 10
35.428715
 20
13.095205
 30
0.0
 11
35.539937
 21
13.479237
 31
0.0
  0
LINE
  5
16d
100
AcDbEntity
  8
dxf1
 62
1
100
AcDbLine
 10
35.539937
 20
13.479237
 30
0.0
 11
35.645699
 21
13.869509
 31
0.0
  0
LINE
  5
16e
100
AcDbEntity
  8
dxf1
 62
1
100
AcDbLine
 10
35.645699
 20
13.869509
 30
0.0
 11
35.745960
 21
14.266050
 31
0.0
  0
LINE
  5
16f
100
AcDbEntity
  8
dxf1
 62
1
100
AcDbLine
 10
35.745960
 20
14.266050
 30
0.0
 11
35.840680
 21
14.668886
 31
0.0
  0
LINE
  5
170
100
AcDbEntity
  8
dxf1
 62
1
100
AcDbLine
 10
35.840680
 20
14.668886
 30
0.0
 11
35.929820
 21
15.078047
 31
0.0
  0
LINE
  5
171
100
AcDbEntity
  8
dxf1
 62
1
100
AcDbLine
 10
35.929820
 20
15.078047
 30
0.0
 11
36.013340
 21
15.493558
 31
0.0
  0
LINE
  5
172
100
AcDbEntity
  8
dxf1
 62
1
100
AcDbLine
 10
36.013340
 20
15.493558
 30
0.0
 11
36.091190
 21
15.915448
 31
0.0
  0
LINE
  5
173
100
AcDbEntity
  8
dxf1
 62
1
100
AcDbLine
 10
36.091190
 20
15.915448
 30
0.0
 11
36.163340
 21
16.343745
 31
0.0
  0
LINE
  5
174
100
AcDbEntity
  8
dxf1
 62
1
100
AcDbLine
 10
36.163340
 20
16.343745
 30
0.0
 11
36.229751
 21
16.778476
 31
0.0
  0
LINE
  5
175
100
AcDbEntity
  8
dxf1
 62
1
100
AcDbLine
 10
36.229751
 20
16.778476
 30
0.0
 11
36.290371
 21
17.219669
 31
0.0
  0
LINE
  5
176
100
AcDbEntity
  8
dxf1
 62
1
100
AcDbLine
 10
36.290371
 20
17.219669
 30
0.0
 11
36.345171
 21
17.667351
 31
0.0
  0
LINE
  5
177
100
AcDbEntity
  8
dxf1
 62
1
100
AcDbLine
 10
36.345171
 20
17.667351
 30
0.0
 11
36.394101
 21
18.121551
 31
0.0
  0
LINE
  5
178
100
AcDbEntity
  8
dxf1
 62
1
100
AcDbLine
 10
36.394101
 20
18.121551
 30
0.0
 11
36.437121
 21
18.582296
 31
0.0
  0
LINE
  5
179
100
AcDbEntity
  8
dxf1
 62
1
100
AcDbLine
 10
36.437121
 20
18.582296
 30
0.0
 11
36.474191
 21
19.049612
 31
0.0
  0
LINE
  5
17a
100
AcDbEntity
  8
dxf1
 62
1
100
AcDbLine
 10
36.474191
 20
19.049612
 30
0.0
 11
36.505281
 21
19.523529
 31
0.0
  0
LINE
  5
17b
100
AcDbEntity
  8
dxf1
 62
1
100
AcDbLine
 10
36.505281
 20
19.523529
 30
0.0
 11
36.530341
 21
20.004073
 31
0.0
  0
LINE
  5
17c
100
AcDbEntity
  8
dxf1
 62
1
100
AcDbLine
 10
36.530341
 20
20.004073
 30
0.0
 11
36.549331
 21
20.491274
 31
0.0
  0
LINE
  5
17d
100
AcDbEntity
  8
dxf1
 62
1
100
AcDbLine
 10
36.549331
 20
20.491274
 30
0.0
 11
36.562211
 21
20.985157
 31
0.0
  0
LINE
  5
17e
100
AcDbEntity
  8
dxf1
 62
1
100
AcDbLine
 10
36.562211
 20
20.985157
 30
0.0
 11
36.568911
 21
21.485750
 31
0.0
  0
LINE
  5
17f
100
AcDbEntity
  8
dxf1
 62
1
100
AcDbLine
 10
36.568911
 20
21.485750
 30
0.0
 11
36.569448
 21
21.993082
 31
0.0
  0
LINE
  5
180
100
AcDbEntity
  8
dxf1
 62
1
100
AcDbLine
 10
36.569448
 20
21.993082
 30
0.0
 11
36.563848
 21
22.512218
 31
0.0
  0
LINE
  5
181
100
AcDbEntity
  8
dxf1
 62
1
100
AcDbLine
 10
36.563848
 20
22.512218
 30
0.0
 11
36.552268
 21
23.023019
 31
0.0
  0
LINE
  5
182
100
AcDbEntity
  8
dxf1
 62
1
100
AcDbLine
 10
36.552268
 20
23.023019
 30
0.0
 11
36.534808
 21
23.525542
 31
0.0
  0
LINE
  5
183
100
AcDbEntity
  8
dxf1
 62
1
100
AcDbLine
 10
36.534808
 20
23.525542
 30
0.0
 11
36.511548
 21
24.019844
 31
0.0
  0
LINE
  5
184
100
AcDbEntity
  8
dxf1
 62
1
100
AcDbLine
 10
36.511548
 20
24.019844
 30
0.0
 11
36.482558
 21
24.505980
 31
0.0
  0
LINE
  5
185
100
AcDbEntity
  8
dxf1
 62
1
100
AcDbLine
 10
36.482558
 20
24.505980
 30
0.0
 11
36.447908
 21
24.984007
 31
0.0
  0
LINE
  5
186
100
AcDbEntity
  8
dxf1
 62
1
100
AcDbLine
 10
36.447908
 20
24.984007
 30
0.0
 11
36.407668
 21
25.453982
 31
0.0
  0
LINE
  5
187
100
AcDbEntity
  8
dxf1
 62
1
100
AcDbLine
 10
36.407668
 20
25.453982
 30
0.0
 11
36.361908
 21
25.915963
 31
0.0
  0
LINE
  5
188
100
AcDbEntity
  8
dxf1
 62
1
100
AcDbLine
 10
36.361908
 20
25.915963
 30
0.0
 11
36.310708
 21
26.370003
 31
0.0
  0
LINE
  5
189
100
AcDbEntity
  8
dxf1
 62
1
100
AcDbLine
 10
36.310708
 20
26.370003
 30
0.0
 11
36.254138
 21
26.816160
 31
0.0
  0
LINE
  5
18a
100
AcDbEntity
  8
dxf1
 62
1
100
AcDbLine
 10
36.254138
 20
26.816160
 30
0.0
 11
36.192267
 21
27.254491
 31
0.0
  0
LINE
  5
18b
100
AcDbEntity
  8
dxf1
 62
1
100
AcDbLine
 10
36.192267
 20
27.254491
 30
0.0
 11
36.125167
 21
27.685054
 31
0.0
  0
LINE
  5
18c
100
AcDbEntity
  8
dxf1
 62
1
100
AcDbLine
 10
36.125167
 20
27.685054
 30
0.0
 11
36.052917
 21
28.107902
 31
0.0
  0
LINE
  5
18d
100
AcDbEntity
  8
dxf1
 62
1
100
AcDbLine
 10
36.052917
 20
28.107902
 30
0.0
 11
35.975577
 21
28.523094
 31
0.0
  0
LINE
  5
18e
100
AcDbEntity
  8
dxf1
 62
1
100
AcDbLine
 10
35.975577
 20
28.523094
 30
0.0
 11
35.893227
 21
28.930685
 31
0.0
  0
LINE
  5
18f
100
AcDbEntity
  8
dxf1
 62
1
100
AcDbLine
 10
35.893227
 20
28.930685
 30
0.0
 11
35.805937
 21
29.330733
 31
0.0
  0
LINE
  5
190
100
AcDbEntity
  8
dxf1
 62
1
100
AcDbLine
 10
35.805937
 20
29.330733
 30
0.0
 11
35.713777
 21
29.723294
 31
0.0
  0
LINE
  5
191
100
AcDbEntity
  8
dxf1
 62
1
100
AcDbLine
 10
35.713777
 20
29.723294
 30
0.0
 11
35.616827
 21
30.108423
 31
0.0
  0
LINE
  5
192
100
AcDbEntity
  8
dxf1
 62
1
100
AcDbLine
 10
35.616827
 20
30.108423
 30
0.0
 11
35.515152
 21
30.486178
 31
0.0
  0
LINE
  5
193
100
AcDbEntity
  8
dxf1
 62
1
100
AcDbLine
 10
35.515152
 20
30.486178
 30
0.0
 11
35.408825
 21
30.856615
 31
0.0
  0
LINE
  5
194
100
AcDbEntity
  8
dxf1
 62
1
100
AcDbLine
 10
35.408825
 20
30.856615
 30
0.0
 11
35.297918
 21
31.219792
 31
0.0
  0
LINE
  5
195
100
AcDbEntity
  8
dxf1
 62
1
100
AcDbLine
 10
35.297918
 20
31.219792
 30
0.0
 11
35.182505
 21
31.575763
 31
0.0
  0
LINE
  5
196
100
AcDbEntity
  8
dxf1
 62
1
100
AcDbLine
 10
35.182505
 20
31.575763
 30
0.0
 11
35.062655
 21
31.924586
 31
0.0
  0
LINE
  5
197
100
AcDbEntity
  8
dxf1
 62
1
100
AcDbLine
 10
35.062655
 20
31.924586
 30
0.0
 11
34.938443
 21
32.266317
 31
0.0
  0
LINE
  5
198
100
AcDbEntity
  8
dxf1
 62
1
100
AcDbLine
 10
34.938443
 20
32.266317
 30
0.0
 11
34.809938
 21
32.601012
 31
0.0
  0
LINE
  5
199
100
AcDbEntity
  8
dxf1
 62
1
100
AcDbLine
 10
34.809938
 20
32.601012
 30
0.0
 11
34.677215
 21
32.928730
 31
0.0
  0
LINE
  5
19a
100
AcDbEntity
  8
dxf1
 62
1
100
AcDbLine
 10
34.677215
 20
32.928730
 30
0.0
 11
34.540344
 21
33.249524
 31
0.0
  0
LINE
  5
19b
100
AcDbEntity
  8
dxf1
 62
1
100
AcDbLine
 10
34.540344
 20
33.249524
 30
0.0
 11
34.399397
 21
33.563452
 31
0.0
  0
LINE
  5
19c
100
AcDbEntity
  8
dxf1
 62
1
100
AcDbLine
 10
34.399397
 20
33.563452
 30
0.0
 11
34.254447
 21
33.870571
 31
0.0
  0
LINE
  5
19d
100
AcDbEntity
  8
dxf1
 62
1
100
AcDbLine
 10
34.254447
 20
33.870571
 30
0.0
 11
34.105566
 21
34.170936
 31
0.0
  0
LINE
  5
19e
100
AcDbEntity
  8
dxf1
 62
1
100
AcDbLine
 10
34.105566
 20
34.170936
 30
0.0
 11
33.952826
 21
34.464607
 31
0.0
  0
LINE
  5
19f
100
AcDbEntity
  8
dxf1
 62
1
100
AcDbLine
 10
33.952826
 20
34.464607
 30
0.0
 11
33.796299
 21
34.751636
 31
0.0
  0
LINE
  5
1a0
100
AcDbEntity
  8
dxf1
 62
1
100
AcDbLine
 10
33.796299
 20
34.751636
 30
0.0
 11
33.636056
 21
35.032082
 31
0.0
  0
LINE
  5
1a1
100
AcDbEntity
  8
dxf1
 62
1
100
AcDbLine
 10
33.636056
 20
35.032082
 30
0.0
 11
33.472170
 21
35.306001
 31
0.0
  0
LINE
  5
1a2
100
AcDbEntity
  8
dxf1
 62
1
100
AcDbLine
 10
33.472170
 20
35.306001
 30
0.0
 11
33.304713
 21
35.573449
 31
0.0
  0
LINE
  5
1a3
100
AcDbEntity
  8
dxf1
 62
1
100
AcDbLine
 10
33.304713
 20
35.573449
 30
0.0
 11
33.133756
 21
35.834484
 31
0.0
  0
LINE
  5
1a4
100
AcDbEntity
  8
dxf1
 62
1
100
AcDbLine
 10
33.133756
 20
35.834484
 30
0.0
 11
32.959372
 21
36.089161
 31
0.0
  0
LINE
  5
1a5
100
AcDbEntity
  8
dxf1
 62
1
100
AcDbLine
 10
32.959372
 20
36.089161
 30
0.0
 11
32.781634
 21
36.337537
 31
0.0
  0
LINE
  5
1a6
100
AcDbEntity
  8
dxf1
 62
1
100
AcDbLine
 10
32.781634
 20
36.337537
 30
0.0
 11
32.600610
 21
36.579669
 31
0.0
  0
LINE
  5
1a7
100
AcDbEntity
  8
dxf1
 62
1
100
AcDbLine
 10
32.600610
 20
36.579669
 30
0.0
 11
32.416377
 21
36.815612
 31
0.0
  0
LINE
  5
1a8
100
AcDbEntity
  8
dxf1
 62
1
100
AcDbLine
 10
32.416377
 20
36.815612
 30
0.0
 11
32.229005
 21
37.045424
 31
0.0
  0
LINE
  5
1a9
100
AcDbEntity
  8
dxf1
 62
1
100
AcDbLine
 10
32.229005
 20
37.045424
 30
0.0
 11
32.038566
 21
37.269160
 31
0.0
  0
LINE
  5
1aa
100
AcDbEntity
  8
dxf1
 62
1
100
AcDbLine
 10
32.038566
 20
37.269160
 30
0.0
 11
31.845131
 21
37.486878
 31
0.0
  0
LINE
  5
1ab
100
AcDbEntity
  8
dxf1
 62
1
100
AcDbLine
 10
31.845131
 20
37.486878
 30
0.0
 11
31.648773
 21
37.698634
 31
0.0
  0
LINE
  5
1ac
100
AcDbEntity
  8
dxf1
 62
1
100
AcDbLine
 10
31.648773
 20
37.698634
 30
0.0
 11
31.449565
 21
37.904484
 31
0.0
  0
LINE
  5
1ad
100
AcDbEntity
  8
dxf1
 62
1
100
AcDbLine
 10
31.449565
 20
37.904484
 30
0.0
 11
31.247577
 21
38.104486
 31
0.0
  0
LINE
  5
1ae
100
AcDbEntity
  8
dxf1
 62
1
100
AcDbLine
 10
31.247577
 20
38.104486
 30
0.0
 11
31.042882
 21
38.298695
 31
0.0
  0
LINE
  5
1af
100
AcDbEntity
  8
dxf1
 62
1
100
AcDbLine
 10
31.042882
 20
38.298695
 30
0.0
 11
30.835552
 21
38.487167
 31
0.0
  0
LINE
  5
1b0
100
AcDbEntity
  8
dxf1
 62
1
100
AcDbLine
 10
30.835552
 20
38.487167
 30
0.0
 11
30.625659
 21
38.669959
 31
0.0
  0
LINE
  5
1b1
100
AcDbEntity
  8
dxf1
 62
1
100
AcDbLine
 10
30.625659
 20
38.669959
 30
0.0
 11
30.413275
 21
38.847129
 31
0.0
  0
LINE
  5
1b2
100
AcDbEntity
  8
dxf1
 62
1
100
AcDbLine
 10
30.413275
 20
38.847129
 30
0.0
 11
30.198472
 21
39.018732
 31
0.0
  0
LINE
  5
1b3
100
AcDbEntity
  8
dxf1
 62
1
100
AcDbLine
 10
30.198472
 20
39.018732
 30
0.0
 11
29.981323
 21
39.184824
 31
0.0
  0
LINE
  5
1b4
100
AcDbEntity
  8
dxf1
 62
1
100
AcDbLine
 10
29.981323
 20
39.184824
 30
0.0
 11
29.761898
 21
39.345463
 31
0.0
  0
LINE
  5
1b5
100
AcDbEntity
  8
dxf1
 62
1
100
AcDbLine
 10
29.761898
 20
39.345463
 30
0.0
 11
29.540271
 21
39.500705
 31
0.0
  0
LINE
  5
1b6
100
AcDbEntity
  8
dxf1
 62
1
100
AcDbLine
 10
29.540271
 20
39.500705
 30
0.0
 11
29.316513
 21
39.650605
 31
0.0
  0
LINE
  5
1b7
100
AcDbEntity
  8
dxf1
 62
1
100
AcDbLine
 10
29.316513
 20
39.650605
 30
0.0
 11
29.090694
 21
39.795223
 31
0.0
  0
LINE
  5
1b8
100
AcDbEntity
  8
dxf1
 62
1
100
AcDbLine
 10
29.090694
 20
39.795223
 30
0.0
 11
28.862890
 21
39.934612
 31
0.0
  0
LINE
  5
1b9
100
AcDbEntity
  8
dxf1
 62
1
100
AcDbLine
 10
28.862890
 20
39.934612
 30
0.0
 11
28.633171
 21
40.068829
 31
0.0
  0
LINE
  5
1ba
100
AcDbEntity
  8
dxf1
 62
1
100
AcDbLine
 10
28.633171
 20
40.068829
 30
0.0
 11
28.401610
 21
40.197932
 31
0.0
  0
LINE
  5
1bb
100
AcDbEntity
  8
dxf1
 62
1
100
AcDbLine
 10
28.401610
 20
40.197932
 30
0.0
 11
28.168277
 21
40.321977
 31
0.0
  0
LINE
  5
1bc
100
AcDbEntity
  8
dxf1
 62
1
100
AcDbLine
 10
28.168277
 20
40.321977
 30
0.0
 11
27.933246
 21
40.441019
 31
0.0
  0
LINE
  5
1bd
100
AcDbEntity
  8
dxf1
 62
1
100
AcDbLine
 10
27.933246
 20
40.441019
 30
0.0
 11
27.696588
 21
40.555117
 31
0.0
  0
LINE
  5
1be
100
AcDbEntity
  8
dxf1
 62
1
100
AcDbLine
 10
27.696588
 20
40.555117
 30
0.0
 11
27.458375
 21
40.664325
 31
0.0
  0
LINE
  5
1bf
100
AcDbEntity
  8
dxf1
 62
1
100
AcDbLine
 10
27.458375
 20
40.664325
 30
0.0
 11
27.218679
 21
40.768701
 31
0.0
  0
LINE
  5
1c0
100
AcDbEntity
  8
dxf1
 62
1
100
AcDbLine
 10
27.218679
 20
40.768701
 30
0.0
 11
26.977572
 21
40.868301
 31
0.0
  0
LINE
  5
1c1
100
AcDbEntity
  8
dxf1
 62
1
100
AcDbLine
 10
26.977572
 20
40.868301
 30
0.0
 11
26.735128
 21
40.963181
 31
0.0
  0
LINE
  5
1c2
100
AcDbEntity
  8
dxf1
 62
1
100
AcDbLine
 10
26.735128
 20
40.963181
 30
0.0
 11
26.491416
 21
41.053401
 31
0.0
  0
LINE
  5
1c3
100
AcDbEntity
  8
dxf1
 62
1
100
AcDbLine
 10
26.491416
 20
41.053401
 30
0.0
 11
26.246510
 21
41.139011
 31
0.0
  0
LINE
  5
1c4
100
AcDbEntity
  8
dxf1
 62
1
100
AcDbLine
 10
26.246510
 20
41.139011
 30
0.0
 11
26.000481
 21
41.220071
 31
0.0
  0
LINE
  5
1c5
100
AcDbEntity
  8
dxf1
 62
1
100
AcDbLine
 10
26.000481
 20
41.220071
 30
0.0
 11
25.753401
 21
41.296641
 31
0.0
  0
LINE
  5
1c6
100
AcDbEntity
  8
dxf1
 62
1
100
AcDbLine
 10
25.753401
 20
41.296641
 30
0.0
 11
25.505342
 21
41.368771
 31
0.0
  0
LINE
  5
1c7
100
AcDbEntity
  8
dxf1
 62
1
100
AcDbLine
 10
25.505342
 20
41.368771
 30
0.0
 11
25.256377
 21
41.436521
 31
0.0
  0
LINE
  5
1c8
100
AcDbEntity
  8
dxf1
 62
1
100
AcDbLine
 10
25.256377
 20
41.436521
 30
0.0
 11
25.006578
 21
41.499951
 31
0.0
  0
LINE
  5
1c9
100
AcDbEntity
  8
dxf1
 62
1
100
AcDbLine
 10
25.006578
 20
41.499951
 30
0.0
 11
24.756016
 21
41.559112
 31
0.0
  0
LINE
  5
1ca
100
AcDbEntity
  8
dxf1
 62
1
100
AcDbLine
 10
24.756016
 20
41.559112
 30
0.0
 11
24.504764
 21
41.614062
 31
0.0
  0
LINE
  5
1cb
100
AcDbEntity
  8
dxf1
 62
1
100
AcDbLine
 10
24.504764
 20
41.614062
 30
0.0
 11
24.252893
 21
41.664852
 31
0.0
  0
LINE
  5
1cc
100
AcDbEntity
  8
dxf1
 62
1
100
AcDbLine
 10
24.252893
 20
41.664852
 30
0.0
 11
24.000476
 21
41.711552
 31
0.0
  0
LINE
  5
1cd
100
AcDbEntity
  8
dxf1
 62
1
100
AcDbLine
 10
24.000476
 20
41.711552
 30
0.0
 11
23.747583
 21
41.754212
 31
0.0
  0
LINE
  5
1ce
100
AcDbEntity
  8
dxf1
 62
1
100
AcDbLine
 10
23.747583
 20
41.754212
 30
0.0
 11
23.494288
 21
41.792882
 31
0.0
  0
LINE
  5
1cf
100
AcDbEntity
  8
dxf1
 62
1
100
AcDbLine
 10
23.494288
 20
41.792882
 30
0.0
 11
23.240664
 21
41.827622
 31
0.0
  0
LINE
  5
1d0
100
AcDbEntity
  8
dxf1
 62
1
100
AcDbLine
 10
23.240664
 20
41.827622
 30
0.0
 11
22.986780
 21
41.858492
 31
0.0
  0
LINE
  5
1d1
100
AcDbEntity
  8
dxf1
 62
1
100
AcDbLine
 10
22.986780
 20
41.858492
 30
0.0
 11
22.732711
 21
41.885542
 31
0.0
  0
LINE
  5
1d2
100
AcDbEntity
  8
dxf1
 62
1
100
AcDbLine
 10
22.732711
 20
41.885542
 30
0.0
 11
22.478527
 21
41.908832
 31
0.0
  0
LINE
  5
1d3
100
AcDbEntity
  8
dxf1
 62
1
100
AcDbLine
 10
22.478527
 20
41.908832
 30
0.0
 11
22.224300
 21
41.928422
 31
0.0
  0
LINE
  5
1d4
100
AcDbEntity
  8
dxf1
 62
1
100
AcDbLine
 10
22.224300
 20
41.928422
 30
0.0
 11
21.970102
 21
41.944362
 31
0.0
  0
LINE
  5
1d5
100
AcDbEntity
  8
dxf1
 62
1
100
AcDbLine
 10
21.970102
 20
41.944362
 30
0.0
 11
21.716007
 21
41.956722
 31
0.0
  0
LINE
  5
1d6
100
AcDbEntity
  8
dxf1
 62
1
100
AcDbLine
 10
21.716007
 20
41.956722
 30
0.0
 11
21.462086
 21
41.965522
 31
0.0
  0
LINE
  5
1d7
100
AcDbEntity
  8
dxf1
 62
1
100
AcDbLine
 10
21.462086
 20
41.965522
 30
0.0
 11
21.208410
 21
41.970822
 31
0.0
  0
LINE
  5
1d8
100
AcDbEntity
  8
dxf1
 62
1
100
AcDbLine
 10
21.208410
 20
41.970822
 30
0.0
 11
20.955052
 21
41.972722
 31
0.0
  0
LINE
  5
1d9
100
AcDbEntity
  8
dxf1
 62
1
100
AcDbLine
 10
20.955052
 20
41.972722
 30
0.0
 11
20.702084
 21
41.971322
 31
0.0
  0
LINE
  5
1da
100
AcDbEntity
  8
dxf1
 62
1
100
AcDbLine
 10
20.702084
 20
41.971322
 30
0.0
 11
20.449577
 21
41.966622
 31
0.0
  0
LINE
  5
1db
100
AcDbEntity
  8
dxf1
 62
1
100
AcDbLine
 10
20.449577
 20
41.966622
 30
0.0
 11
20.197603
 21
41.958622
 31
0.0
  0
LINE
  5
1dc
100
AcDbEntity
  8
dxf1
 62
1
100
AcDbLine
 10
20.197603
 20
41.958622
 30
0.0
 11
19.946236
 21
41.947432
 31
0.0
  0
LINE
  5
1dd
100
AcDbEntity
  8
dxf1
 62
1
100
AcDbLine
 10
19.946236
 20
41.947432
 30
0.0
 11
19.695547
 21
41.933102
 31
0.0
  0
LINE
  5
1de
100
AcDbEntity
  8
dxf1
 62
1
100
AcDbLine
 10
19.695547
 20
41.933102
 30
0.0
 11
19.445607
 21
41.915692
 31
0.0
  0
LINE
  5
1df
100
AcDbEntity
  8
dxf1
 62
1
100
AcDbLine
 10
19.445607
 20
41.915692
 30
0.0
 11
19.196490
 21
41.895262
 31
0.0
  0
LINE
  5
1e0
100
AcDbEntity
  8
dxf1
 62
1
100
AcDbLine
 10
19.196490
 20
41.895262
 30
0.0
 11
18.948266
 21
41.871862
 31
0.0
  0
LINE
  5
1e1
100
AcDbEntity
  8
dxf1
 62
1
100
AcDbLine
 10
18.948266
 20
41.871862
 30
0.0
 11
18.701008
 21
41.845552
 31
0.0
  0
LINE
  5
1e2
100
AcDbEntity
  8
dxf1
 62
1
100
AcDbLine
 10
18.701008
 20
41.845552
 30
0.0
 11
18.454787
 21
41.816382
 31
0.0
  0
LINE
  5
1e3
100
AcDbEntity
  8
dxf1
 62
1
100
AcDbLine
 10
18.454787
 20
41.816382
 30
0.0
 11
18.209677
 21
41.784412
 31
0.0
  0
LINE
  5
1e4
100
AcDbEntity
  8
dxf1
 62
1
100
AcDbLine
 10
18.209677
 20
41.784412
 30
0.0
 11
17.965749
 21
41.749702
 31
0.0
  0
LINE
  5
1e5
100
AcDbEntity
  8
dxf1
 62
1
100
AcDbLine
 10
17.965749
 20
41.749702
 30
0.0
 11
17.723075
 21
41.712312
 31
0.0
  0
LINE
  5
1e6
100
AcDbEntity
  8
dxf1
 62
1
100
AcDbLine
 10
17.723075
 20
41.712312
 30
0.0
 11
17.481726
 21
41.672292
 31
0.0
  0
LINE
  5
1e7
100
AcDbEntity
  8
dxf1
 62
1
100
AcDbLine
 10
17.481726
 20
41.672292
 30
0.0
 11
17.241776
 21
41.629692
 31
0.0
  0
LINE
  5
1e8
100
AcDbEntity
  8
dxf1
 62
1
100
AcDbLine
 10
17.241776
 20
41.629692
 30
0.0
 11
17.003296
 21
41.584582
 31
0.0
  0
LINE
  5
1e9
100
AcDbEntity
  8
dxf1
 62
1
100
AcDbLine
 10
17.003296
 20
41.584582
 30
0.0
 11
16.766356
 21
41.537012
 31
0.0
  0
LINE
  5
1ea
100
AcDbEntity
  8
dxf1
 62
1
100
AcDbLine
 10
16.766356
 20
41.537012
 30
0.0
 11
16.531032
 21
41.487031
 31
0.0
  0
LINE
  5
1eb
100
AcDbEntity
  8
dxf1
 62
1
100
AcDbLine
 10
16.531032
 20
41.487031
 30
0.0
 11
16.297394
 21
41.434711
 31
0.0
  0
LINE
  5
1ec
100
AcDbEntity
  8
dxf1
 62
1
100
AcDbLine
 10
16.297394
 20
41.434711
 30
0.0
 11
16.065513
 21
41.380101
 31
0.0
  0
LINE
  5
1ed
100
AcDbEntity
  8
dxf1
 62
1
100
AcDbLine
 10
16.065513
 20
41.380101
 30
0.0
 11
15.835463
 21
41.323251
 31
0.0
  0
LINE
  5
1ee
100
AcDbEntity
  8
dxf1
 62
1
100
AcDbLine
 10
15.835463
 20
41.323251
 30
0.0
 11
15.607315
 21
41.264221
 31
0.0
  0
LINE
  5
1ef
100
AcDbEntity
  8
dxf1
 62
1
100
AcDbLine
 10
15.607315
 20
41.264221
 30
0.0
 11
15.381141
 21
41.203071
 31
0.0
  0
LINE
  5
1f0
100
AcDbEntity
  8
dxf1
 62
1
100
AcDbLine
 10
15.381141
 20
41.203071
 30
0.0
 11
15.157013
 21
41.139861
 31
0.0
  0
LINE
  5
1f1
100
AcDbEntity
  8
dxf1
 62
1
100
AcDbLine
 10
15.157013
 20
41.139861
 30
0.0
 11
14.935003
 21
41.074641
 31
0.0
  0
LINE
  5
1f2
100
AcDbEntity
  8
dxf1
 62
1
100
AcDbLine
 10
14.935003
 20
41.074641
 30
0.0
 11
14.715183
 21
41.007471
 31
0.0
  0
LINE
  5
1f3
100
AcDbEntity
  8
dxf1
 62
1
100
AcDbLine
 10
14.715183
 20
41.007471
 30
0.0
 11
14.497626
 21
40.938411
 31
0.0
  0
LINE
  5
1f4
100
AcDbEntity
  8
dxf1
 62
1
100
AcDbLine
 10
14.497626
 20
40.938411
 30
0.0
 11
14.282403
 21
40.867511
 31
0.0
  0
LINE
  5
1f5
100
AcDbEntity
  8
dxf1
 62
1
100
AcDbLine
 10
14.282403
 20
40.867511
 30
0.0
 11
14.069586
 21
40.794831
 31
0.0
  0
LINE
  5
1f6
100
AcDbEntity
  8
dxf1
 62
1
100
AcDbLine
 10
14.069586
 20
40.794831
 30
0.0
 11
13.859247
 21
40.720421
 31
0.0
  0
LINE
  5
1f7
100
AcDbEntity
  8
dxf1
 62
1
100
AcDbLine
 10
13.859247
 20
40.720421
 30
0.0
 11
13.651459
 21
40.644341
 31
0.0
  0
LINE
  5
1f8
100
AcDbEntity
  8
dxf1
 62
1
100
AcDbLine
 10
13.651459
 20
40.644341
 30
0.0
 11
13.446292
 21
40.566651
 31
0.0
  0
LINE
  5
1f9
100
AcDbEntity
  8
dxf1
 62
1
100
AcDbLine
 10
13.446292
 20
40.566651
 30
0.0
 11
13.243819
 21
40.487401
 31
0.0
  0
LINE
  5
1fa
100
AcDbEntity
  8
dxf1
 62
1
100
AcDbLine
 10
13.243819
 20
40.487401
 30
0.0
 11
13.044114
 21
40.406651
 31
0.0
  0
LINE
  5
1fb
100
AcDbEntity
  8
dxf1
 62
1
100
AcDbLine
 10
13.044114
 20
40.406651
 30
0.0
 11
12.847247
 21
40.324461
 31
0.0
  0
LINE
  5
1fc
100
AcDbEntity
  8
dxf1
 62
1
100
AcDbLine
 10
12.847247
 20
40.324461
 30
0.0
 11
12.653290
 21
40.240881
 31
0.0
  0
LINE
  5
1fd
100
AcDbEntity
  8
dxf1
 62
1
100
AcDbLine
 10
12.653290
 20
40.240881
 30
0.0
 11
12.462315
 21
40.155971
 31
0.0
  0
LINE
  5
1fe
100
AcDbEntity
  8
dxf1
 62
1
100
AcDbLine
 10
12.462315
 20
40.155971
 30
0.0
 11
12.274395
 21
40.069791
 31
0.0
  0
LINE
  5
1ff
100
AcDbEntity
  8
dxf1
 62
1
100
AcDbLine
 10
12.274395
 20
40.069791
 30
0.0
 11
12.089601
 21
39.982391
 31
0.0
  0
LINE
  5
200
100
AcDbEntity
  8
dxf1
 62
1
100
AcDbLine
 10
12.089601
 20
39.982391
 30
0.0
 11
12.089601
 21
40.111284
 31
0.0
  0
LINE
  5
201
100
AcDbEntity
  8
dxf1
 62
1
100
AcDbLine
 10
12.089601
 20
40.111284
 30
0.0
 11
12.089601
 21
40.240129
 31
0.0
  0
LINE
  5
202
100
AcDbEntity
  8
dxf1
 62
1
100
AcDbLine
 10
12.089601
 20
40.240129
 30
0.0
 11
12.089601
 21
40.368974
 31
0.0
  0
LINE
  5
203
100
AcDbEntity
  8
dxf1
 62
1
100
AcDbLine
 10
12.089601
 20
40.368974
 30
0.0
 11
12.089601
 21
40.497819
 31
0.0
  0
LINE
  5
204
100
AcDbEntity
  8
dxf1
 62
1
100
AcDbLine
 10
12.089601
 20
40.497819
 30
0.0
 11
12.089601
 21
40.626664
 31
0.0
  0
LINE
  5
205
100
AcDbEntity
  8
dxf1
 62
1
100
AcDbLine
 10
12.089601
 20
40.626664
 30
0.0
 11
12.089601
 21
40.755509
 31
0.0
  0
LINE
  5
206
100
AcDbEntity
  8
dxf1
 62
1
100
AcDbLine
 10
12.089601
 20
40.755509
 30
0.0
 11
12.089601
 21
40.884354
 31
0.0
  0
LINE
  5
207
100
AcDbEntity
  8
dxf1
 62
1
100
AcDbLine
 10
12.089601
 20
40.884354
 30
0.0
 11
12.089601
 21
41.013199
 31
0.0
  0
LINE
  5
208
100
AcDbEntity
  8
dxf1
 62
1
100
AcDbLine
 10
12.089601
 20
41.013199
 30
0.0
 11
12.089601
 21
41.142044
 31
0.0
  0
LINE
  5
209
100
AcDbEntity
  8
dxf1
 62
1
100
AcDbLine
 10
12.089601
 20
41.142044
 30
0.0
 11
12.089601
 21
41.270889
 31
0.0
  0
LINE
  5
20a
100
AcDbEntity
  8
dxf1
 62
1
100
AcDbLine
 10
12.089601
 20
41.270889
 30
0.0
 11
12.089601
 21
41.399734
 31
0.0
  0
LINE
  5
20b
100
AcDbEntity
  8
dxf1
 62
1
100
AcDbLine
 10
12.089601
 20
41.399734
 30
0.0
 11
12.089601
 21
41.528580
 31
0.0
  0
LINE
  5
20c
100
AcDbEntity
  8
dxf1
 62
1
100
AcDbLine
 10
12.089601
 20
41.528580
 30
0.0
 11
12.089601
 21
41.657426
 31
0.0
  0
LINE
  5
20d
100
AcDbEntity
  8
dxf1
 62
1
100
AcDbLine
 10
12.089601
 20
41.657426
 30
0.0
 11
12.089601
 21
41.786271
 31
0.0
  0
LINE
  5
20e
100
AcDbEntity
  8
dxf1
 62
1
100
AcDbLine
 10
12.089601
 20
41.786271
 30
0.0
 11
12.089601
 21
41.915116
 31
0.0
  0
LINE
  5
20f
100
AcDbEntity
  8
dxf1
 62
1
100
AcDbLine
 10
12.089601
 20
41.915116
 30
0.0
 11
12.089601
 21
42.043961
 31
0.0
  0
LINE
  5
210
100
AcDbEntity
  8
dxf1
 62
1
100
AcDbLine
 10
12.089601
 20
42.043961
 30
0.0
 11
12.089601
 21
42.172806
 31
0.0
  0
LINE
  5
211
100
AcDbEntity
  8
dxf1
 62
1
100
AcDbLine
 10
12.089601
 20
42.172806
 30
0.0
 11
12.089601
 21
42.301651
 31
0.0
  0
LINE
  5
212
100
AcDbEntity
  8
dxf1
 62
1
100
AcDbLine
 10
12.089601
 20
42.301651
 30
0.0
 11
12.089601
 21
42.430496
 31
0.0
  0
LINE
  5
213
100
AcDbEntity
  8
dxf1
 62
1
100
AcDbLine
 10
12.089601
 20
42.430496
 30
0.0
 11
12.089601
 21
42.559341
 31
0.0
  0
LINE
  5
214
100
AcDbEntity
  8
dxf1
 62
1
100
AcDbLine
 10
12.089601
 20
42.559341
 30
0.0
 11
12.089601
 21
42.688186
 31
0.0
  0
LINE
  5
215
100
AcDbEntity
  8
dxf1
 62
1
100
AcDbLine
 10
12.089601
 20
42.688186
 30
0.0
 11
12.089601
 21
42.817031
 31
0.0
  0
LINE
  5
216
100
AcDbEntity
  8
dxf1
 62
1
100
AcDbLine
 10
12.089601
 20
42.817031
 30
0.0
 11
12.089601
 21
42.945876
 31
0.0
  0
LINE
  5
217
100
AcDbEntity
  8
dxf1
 62
1
100
AcDbLine
 10
12.089601
 20
42.945876
 30
0.0
 11
12.089601
 21
43.074721
 31
0.0
  0
LINE
  5
218
100
AcDbEntity
  8
dxf1
 62
1
100
AcDbLine
 10
12.089601
 20
43.074721
 30
0.0
 11
12.089601
 21
43.203566
 31
0.0
  0
LINE
  5
219
100
AcDbEntity
  8
dxf1
 62
1
100
AcDbLine
 10
12.089601
 20
43.203566
 30
0.0
 11
12.089601
 21
43.332412
 31
0.0
  0
LINE
  5
21a
100
AcDbEntity
  8
dxf1
 62
1
100
AcDbLine
 10
12.089601
 20
43.332412
 30
0.0
 11
12.089601
 21
43.461257
 31
0.0
  0
LINE
  5
21b
100
AcDbEntity
  8
dxf1
 62
1
100
AcDbLine
 10
12.089601
 20
43.461257
 30
0.0
 11
12.089601
 21
43.590102
 31
0.0
  0
LINE
  5
21c
100
AcDbEntity
  8
dxf1
 62
1
100
AcDbLine
 10
12.089601
 20
43.590102
 30
0.0
 11
12.089601
 21
43.718947
 31
0.0
  0
LINE
  5
21d
100
AcDbEntity
  8
dxf1
 62
1
100
AcDbLine
 10
12.089601
 20
43.718947
 30
0.0
 11
12.089601
 21
43.847792
 31
0.0
  0
LINE
  5
21e
100
AcDbEntity
  8
dxf1
 62
1
100
AcDbLine
 10
12.089601
 20
43.847792
 30
0.0
 11
12.089601
 21
43.976637
 31
0.0
  0
LINE
  5
21f
100
AcDbEntity
  8
dxf1
 62
1
100
AcDbLine
 10
12.089601
 20
43.976637
 30
0.0
 11
12.089601
 21
44.105482
 31
0.0
  0
LINE
  5
220
100
AcDbEntity
  8
dxf1
 62
1
100
AcDbLine
 10
12.089601
 20
44.105482
 30
0.0
 11
12.089601
 21
44.234327
 31
0.0
  0
LINE
  5
221
100
AcDbEntity
  8
dxf1
 62
1
100
AcDbLine
 10
12.089601
 20
44.234327
 30
0.0
 11
12.089601
 21
44.363172
 31
0.0
  0
LINE
  5
222
100
AcDbEntity
  8
dxf1
 62
1
100
AcDbLine
 10
12.089601
 20
44.363172
 30
0.0
 11
12.089601
 21
44.492017
 31
0.0
  0
LINE
  5
223
100
AcDbEntity
  8
dxf1
 62
1
100
AcDbLine
 10
12.089601
 20
44.492017
 30
0.0
 11
12.089601
 21
44.620862
 31
0.0
  0
LINE
  5
224
100
AcDbEntity
  8
dxf1
 62
1
100
AcDbLine
 10
12.089601
 20
44.620862
 30
0.0
 11
12.089601
 21
44.749707
 31
0.0
  0
LINE
  5
225
100
AcDbEntity
  8
dxf1
 62
1
100
AcDbLine
 10
12.089601
 20
44.749707
 30
0.0
 11
12.089601
 21
44.878552
 31
0.0
  0
LINE
  5
226
100
AcDbEntity
  8
dxf1
 62
1
100
AcDbLine
 10
12.089601
 20
44.878552
 30
0.0
 11
12.089601
 21
45.007398
 31
0.0
  0
LINE
  5
227
100
AcDbEntity
  8
dxf1
 62
1
100
AcDbLine
 10
12.089601
 20
45.007398
 30
0.0
 11
12.089601
 21
45.136244
 31
0.0
  0
LINE
  5
228
100
AcDbEntity
  8
dxf1
 62
1
100
AcDbLine
 10
12.089601
 20
45.136244
 30
0.0
 11
12.089601
 21
45.265089
 31
0.0
  0
LINE
  5
229
100
AcDbEntity
  8
dxf1
 62
1
100
AcDbLine
 10
12.089601
 20
45.265089
 30
0.0
 11
12.089601
 21
45.393934
 31
0.0
  0
LINE
  5
22a
100
AcDbEntity
  8
dxf1
 62
1
100
AcDbLine
 10
12.089601
 20
45.393934
 30
0.0
 11
12.089601
 21
45.522779
 31
0.0
  0
LINE
  5
22b
100
AcDbEntity
  8
dxf1
 62
1
100
AcDbLine
 10
12.089601
 20
45.522779
 30
0.0
 11
12.089601
 21
45.651624
 31
0.0
  0
LINE
  5
22c
100
AcDbEntity
  8
dxf1
 62
1
100
AcDbLine
 10
12.089601
 20
45.651624
 30
0.0
 11
12.089601
 21
45.780469
 31
0.0
  0
LINE
  5
22d
100
AcDbEntity
  8
dxf1
 62
1
100
AcDbLine
 10
12.089601
 20
45.780469
 30
0.0
 11
12.089601
 21
45.909314
 31
0.0
  0
LINE
  5
22e
100
AcDbEntity
  8
dxf1
 62
1
100
AcDbLine
 10
12.089601
 20
45.909314
 30
0.0
 11
12.089601
 21
46.038159
 31
0.0
  0
LINE
  5
22f
100
AcDbEntity
  8
dxf1
 62
1
100
AcDbLine
 10
12.089601
 20
46.038159
 30
0.0
 11
12.089601
 21
46.167004
 31
0.0
  0
LINE
  5
230
100
AcDbEntity
  8
dxf1
 62
1
100
AcDbLine
 10
12.089601
 20
46.167004
 30
0.0
 11
12.089601
 21
46.295849
 31
0.0
  0
LINE
  5
231
100
AcDbEntity
  8
dxf1
 62
1
100
AcDbLine
 10
12.089601
 20
46.295849
 30
0.0
 11
12.089601
 21
46.424694
 31
0.0
  0
LINE
  5
232
100
AcDbEntity
  8
dxf1
 62
1
100
AcDbLine
 10
12.089601
 20
46.424694
 30
0.0
 11
12.089601
 21
46.553539
 31
0.0
  0
LINE
  5
233
100
AcDbEntity
  8
dxf1
 62
1
100
AcDbLine
 10
12.089601
 20
46.553539
 30
0.0
 11
12.089601
 21
46.682384
 31
0.0
  0
LINE
  5
234
100
AcDbEntity
  8
dxf1
 62
1
100
AcDbLine
 10
12.089601
 20
46.682384
 30
0.0
 11
12.089601
 21
46.811230
 31
0.0
  0
LINE
  5
235
100
AcDbEntity
  8
dxf1
 62
1
100
AcDbLine
 10
12.089601
 20
46.811230
 30
0.0
 11
12.089601
 21
46.940075
 31
0.0
  0
LINE
  5
236
100
AcDbEntity
  8
dxf1
 62
1
100
AcDbLine
 10
12.089601
 20
46.940075
 30
0.0
 11
12.089601
 21
47.068920
 31
0.0
  0
LINE
  5
237
100
AcDbEntity
  8
dxf1
 62
1
100
AcDbLine
 10
12.089601
 20
47.068920
 30
0.0
 11
12.089601
 21
47.197765
 31
0.0
  0
LINE
  5
238
100
AcDbEntity
  8
dxf1
 62
1
100
AcDbLine
 10
12.089601
 20
47.197765
 30
0.0
 11
12.089601
 21
47.326610
 31
0.0
  0
LINE
  5
239
100
AcDbEntity
  8
dxf1
 62
1
100
AcDbLine
 10
12.089601
 20
47.326610
 30
0.0
 11
12.089601
 21
47.455455
 31
0.0
  0
LINE
  5
23a
100
AcDbEntity
  8
dxf1
 62
1
100
AcDbLine
 10
12.089601
 20
47.455455
 30
0.0
 11
12.089601
 21
47.584300
 31
0.0
  0
LINE
  5
23b
100
AcDbEntity
  8
dxf1
 62
1
100
AcDbLine
 10
12.089601
 20
47.584300
 30
0.0
 11
12.089601
 21
47.713145
 31
0.0
  0
LINE
  5
23c
100
AcDbEntity
  8
dxf1
 62
1
100
AcDbLine
 10
12.089601
 20
47.713145
 30
0.0
 11
12.089601
 21
47.841990
 31
0.0
  0
LINE
  5
23d
100
AcDbEntity
  8
dxf1
 62
1
100
AcDbLine
 10
12.089601
 20
47.841990
 30
0.0
 11
12.089601
 21
47.970835
 31
0.0
  0
LINE
  5
23e
100
AcDbEntity
  8
dxf1
 62
1
100
AcDbLine
 10
12.089601
 20
47.970835
 30
0.0
 11
12.089601
 21
48.099680
 31
0.0
  0
LINE
  5
23f
100
AcDbEntity
  8
dxf1
 62
1
100
AcDbLine
 10
12.089601
 20
48.099680
 30
0.0
 11
12.089601
 21
48.228525
 31
0.0
  0
LINE
  5
240
100
AcDbEntity
  8
dxf1
 62
1
100
AcDbLine
 10
12.089601
 20
48.228525
 30
0.0
 11
12.089601
 21
48.357371
 31
0.0
  0
LINE
  5
241
100
AcDbEntity
  8
dxf1
 62
1
100
AcDbLine
 10
12.089601
 20
48.357371
 30
0.0
 11
12.089601
 21
48.486216
 31
0.0
  0
LINE
  5
242
100
AcDbEntity
  8
dxf1
 62
1
100
AcDbLine
 10
12.089601
 20
48.486216
 30
0.0
 11
12.089601
 21
48.615062
 31
0.0
  0
LINE
  5
243
100
AcDbEntity
  8
dxf1
 62
1
100
AcDbLine
 10
12.089601
 20
48.615062
 30
0.0
 11
12.089601
 21
48.743907
 31
0.0
  0
LINE
  5
244
100
AcDbEntity
  8
dxf1
 62
1
100
AcDbLine
 10
12.089601
 20
48.743907
 30
0.0
 11
12.089601
 21
48.872752
 31
0.0
  0
LINE
  5
245
100
AcDbEntity
  8
dxf1
 62
1
100
AcDbLine
 10
12.089601
 20
48.872752
 30
0.0
 11
12.089601
 21
49.001597
 31
0.0
  0
LINE
  5
246
100
AcDbEntity
  8
dxf1
 62
1
100
AcDbLine
 10
12.089601
 20
49.001597
 30
0.0
 11
12.089601
 21
49.130442
 31
0.0
  0
LINE
  5
247
100
AcDbEntity
  8
dxf1
 62
1
100
AcDbLine
 10
12.089601
 20
49.130442
 30
0.0
 11
12.089601
 21
49.259287
 31
0.0
  0
LINE
  5
248
100
AcDbEntity
  8
dxf1
 62
1
100
AcDbLine
 10
12.089601
 20
49.259287
 30
0.0
 11
12.089601
 21
49.388132
 31
0.0
  0
LINE
  5
249
100
AcDbEntity
  8
dxf1
 62
1
100
AcDbLine
 10
12.089601
 20
49.388132
 30
0.0
 11
12.089601
 21
49.516977
 31
0.0
  0
LINE
  5
24a
100
AcDbEntity
  8
dxf1
 62
1
100
AcDbLine
 10
12.089601
 20
49.516977
 30
0.0
 11
12.089601
 21
49.645822
 31
0.0
  0
LINE
  5
24b
100
AcDbEntity
  8
dxf1
 62
1
100
AcDbLine
 10
12.089601
 20
49.645822
 30
0.0
 11
12.089601
 21
49.774667
 31
0.0
  0
LINE
  5
24c
100
AcDbEntity
  8
dxf1
 62
1
100
AcDbLine
 10
12.089601
 20
49.774667
 30
0.0
 11
12.089601
 21
49.903512
 31
0.0
  0
LINE
  5
24d
100
AcDbEntity
  8
dxf1
 62
1
100
AcDbLine
 10
12.089601
 20
49.903512
 30
0.0
 11
12.089601
 21
50.032357
 31
0.0
  0
LINE
  5
24e
100
AcDbEntity
  8
dxf1
 62
1
100
AcDbLine
 10
12.089601
 20
50.032357
 30
0.0
 11
12.089601
 21
50.161202
 31
0.0
  0
LINE
  5
24f
100
AcDbEntity
  8
dxf1
 62
1
100
AcDbLine
 10
12.089601
 20
50.161202
 30
0.0
 11
12.089601
 21
50.290047
 31
0.0
  0
LINE
  5
250
100
AcDbEntity
  8
dxf1
 62
1
100
AcDbLine
 10
12.089601
 20
50.290047
 30
0.0
 11
12.089601
 21
50.418893
 31
0.0
  0
LINE
  5
251
100
AcDbEntity
  8
dxf1
 62
1
100
AcDbLine
 10
12.089601
 20
50.418893
 30
0.0
 11
12.089601
 21
50.547738
 31
0.0
  0
LINE
  5
252
100
AcDbEntity
  8
dxf1
 62
1
100
AcDbLine
 10
12.089601
 20
50.547738
 30
0.0
 11
12.089601
 21
50.676583
 31
0.0
  0
LINE
  5
253
100
AcDbEntity
  8
dxf1
 62
1
100
AcDbLine
 10
12.089601
 20
50.676583
 30
0.0
 11
12.089601
 21
50.805428
 31
0.0
  0
LINE
  5
254
100
AcDbEntity
  8
dxf1
 62
1
100
AcDbLine
 10
12.089601
 20
50.805428
 30
0.0
 11
12.089601
 21
50.934273
 31
0.0
  0
LINE
  5
255
100
AcDbEntity
  8
dxf1
 62
1
100
AcDbLine
 10
12.089601
 20
50.934273
 30
0.0
 11
12.089601
 21
51.063118
 31
0.0
  0
LINE
  5
256
100
AcDbEntity
  8
dxf1
 62
1
100
AcDbLine
 10
12.089601
 20
51.063118
 30
0.0
 11
12.089601
 21
51.191963
 31
0.0
  0
LINE
  5
257
100
AcDbEntity
  8
dxf1
 62
1
100
AcDbLine
 10
12.089601
 20
51.191963
 30
0.0
 11
12.089601
 21
51.320808
 31
0.0
  0
LINE
  5
258
100
AcDbEntity
  8
dxf1
 62
1
100
AcDbLine
 10
12.089601
 20
51.320808
 30
0.0
 11
12.089601
 21
51.449653
 31
0.0
  0
LINE
  5
259
100
AcDbEntity
  8
dxf1
 62
1
100
AcDbLine
 10
12.089601
 20
51.449653
 30
0.0
 11
12.089601
 21
51.578499
 31
0.0
  0
LINE
  5
25a
100
AcDbEntity
  8
dxf1
 62
1
100
AcDbLine
 10
12.089601
 20
51.578499
 30
0.0
 11
12.089601
 21
51.707344
 31
0.0
  0
LINE
  5
25b
100
AcDbEntity
  8
dxf1
 62
1
100
AcDbLine
 10
12.089601
 20
51.707344
 30
0.0
 11
12.089601
 21
51.836189
 31
0.0
  0
LINE
  5
25c
100
AcDbEntity
  8
dxf1
 62
1
100
AcDbLine
 10
12.089601
 20
51.836189
 30
0.0
 11
12.089601
 21
51.965034
 31
0.0
  0
LINE
  5
25d
100
AcDbEntity
  8
dxf1
 62
1
100
AcDbLine
 10
12.089601
 20
51.965034
 30
0.0
 11
12.089601
 21
52.093879
 31
0.0
  0
LINE
  5
25e
100
AcDbEntity
  8
dxf1
 62
1
100
AcDbLine
 10
12.089601
 20
52.093879
 30
0.0
 11
12.089601
 21
52.222725
 31
0.0
  0
LINE
  5
25f
100
AcDbEntity
  8
dxf1
 62
1
100
AcDbLine
 10
12.089601
 20
52.222725
 30
0.0
 11
12.089601
 21
52.351570
 31
0.0
  0
LINE
  5
260
100
AcDbEntity
  8
dxf1
 62
1
100
AcDbLine
 10
12.089601
 20
52.351570
 30
0.0
 11
12.089601
 21
52.480415
 31
0.0
  0
LINE
  5
261
100
AcDbEntity
  8
dxf1
 62
1
100
AcDbLine
 10
12.089601
 20
52.480415
 30
0.0
 11
12.089601
 21
52.609260
 31
0.0
  0
LINE
  5
262
100
AcDbEntity
  8
dxf1
 62
1
100
AcDbLine
 10
12.089601
 20
52.609260
 30
0.0
 11
12.089601
 21
52.738105
 31
0.0
  0
LINE
  5
263
100
AcDbEntity
  8
dxf1
 62
1
100
AcDbLine
 10
12.089601
 20
52.738105
 30
0.0
 11
12.089601
 21
52.866950
 31
0.0
  0
LINE
  5
264
100
AcDbEntity
  8
dxf1
 62
1
100
AcDbLine
 10
12.089601
 20
52.866950
 30
0.0
 11
12.089601
 21
52.995795
 31
0.0
  0
LINE
  5
265
100
AcDbEntity
  8
dxf1
 62
1
100
AcDbLine
 10
12.089601
 20
52.995795
 30
0.0
 11
12.089601
 21
53.124640
 31
0.0
  0
LINE
  5
266
100
AcDbEntity
  8
dxf1
 62
1
100
AcDbLine
 10
12.089601
 20
53.124640
 30
0.0
 11
12.089601
 21
53.253485
 31
0.0
  0
LINE
  5
267
100
AcDbEntity
  8
dxf1
 62
1
100
AcDbLine
 10
12.089601
 20
53.253485
 30
0.0
 11
12.089601
 21
53.382330
 31
0.0
  0
LINE
  5
268
100
AcDbEntity
  8
dxf1
 62
1
100
AcDbLine
 10
12.089601
 20
53.382330
 30
0.0
 11
12.089601
 21
53.511175
 31
0.0
  0
LINE
  5
269
100
AcDbEntity
  8
dxf1
 62
1
100
AcDbLine
 10
12.089601
 20
53.511175
 30
0.0
 11
12.089601
 21
53.640020
 31
0.0
  0
LINE
  5
26a
100
AcDbEntity
  8
dxf1
 62
1
100
AcDbLine
 10
12.089601
 20
53.640020
 30
0.0
 11
12.089601
 21
53.768865
 31
0.0
  0
LINE
  5
26b
100
AcDbEntity
  8
dxf1
 62
1
100
AcDbLine
 10
12.089601
 20
53.768865
 30
0.0
 11
12.089601
 21
53.897711
 31
0.0
  0
LINE
  5
26c
100
AcDbEntity
  8
dxf1
 62
1
100
AcDbLine
 10
12.089601
 20
53.897711
 30
0.0
 11
12.089601
 21
54.026556
 31
0.0
  0
LINE
  5
26d
100
AcDbEntity
  8
dxf1
 62
1
100
AcDbLine
 10
12.089601
 20
54.026556
 30
0.0
 11
12.089601
 21
54.155401
 31
0.0
  0
LINE
  5
26e
100
AcDbEntity
  8
dxf1
 62
1
100
AcDbLine
 10
12.089601
 20
54.155401
 30
0.0
 11
12.089601
 21
54.284246
 31
0.0
  0
LINE
  5
26f
100
AcDbEntity
  8
dxf1
 62
1
100
AcDbLine
 10
12.089601
 20
54.284246
 30
0.0
 11
12.089601
 21
54.413091
 31
0.0
  0
LINE
  5
270
100
AcDbEntity
  8
dxf1
 62
1
100
AcDbLine
 10
12.089601
 20
54.413091
 30
0.0
 11
12.089601
 21
54.541936
 31
0.0
  0
LINE
  5
271
100
AcDbEntity
  8
dxf1
 62
1
100
AcDbLine
 10
12.089601
 20
54.541936
 30
0.0
 11
12.089601
 21
54.670781
 31
0.0
  0
LINE
  5
272
100
AcDbEntity
  8
dxf1
 62
1
100
AcDbLine
 10
12.089601
 20
54.670781
 30
0.0
 11
12.089601
 21
54.799626
 31
0.0
  0
LINE
  5
273
100
AcDbEntity
  8
dxf1
 62
1
100
AcDbLine
 10
12.089601
 20
54.799626
 30
0.0
 11
12.089601
 21
54.928472
 31
0.0
  0
LINE
  5
274
100
AcDbEntity
  8
dxf1
 62
1
100
AcDbLine
 10
12.089601
 20
54.928472
 30
0.0
 11
12.089601
 21
55.057317
 31
0.0
  0
LINE
  5
275
100
AcDbEntity
  8
dxf1
 62
1
100
AcDbLine
 10
12.089601
 20
55.057317
 30
0.0
 11
12.089601
 21
55.186162
 31
0.0
  0
LINE
  5
276
100
AcDbEntity
  8
dxf1
 62
1
100
AcDbLine
 10
12.089601
 20
55.186162
 30
0.0
 11
12.089601
 21
55.315007
 31
0.0
  0
LINE
  5
277
100
AcDbEntity
  8
dxf1
 62
1
100
AcDbLine
 10
12.089601
 20
55.315007
 30
0.0
 11
12.089601
 21
55.443852
 31
0.0
  0
LINE
  5
278
100
AcDbEntity
  8
dxf1
 62
1
100
AcDbLine
 10
12.089601
 20
55.443852
 30
0.0
 11
12.089601
 21
55.572697
 31
0.0
  0
LINE
  5
279
100
AcDbEntity
  8
dxf1
 62
1
100
AcDbLine
 10
12.089601
 20
55.572697
 30
0.0
 11
12.089601
 21
55.701543
 31
0.0
  0
LINE
  5
27a
100
AcDbEntity
  8
dxf1
 62
1
100
AcDbLine
 10
12.089601
 20
55.701543
 30
0.0
 11
12.089601
 21
55.830388
 31
0.0
  0
LINE
  5
27b
100
AcDbEntity
  8
dxf1
 62
1
100
AcDbLine
 10
12.089601
 20
55.830388
 30
0.0
 11
12.089601
 21
55.959233
 31
0.0
  0
LINE
  5
27c
100
AcDbEntity
  8
dxf1
 62
1
100
AcDbLine
 10
12.089601
 20
55.959233
 30
0.0
 11
12.089601
 21
56.088078
 31
0.0
  0
LINE
  5
27d
100
AcDbEntity
  8
dxf1
 62
1
100
AcDbLine
 10
12.089601
 20
56.088078
 30
0.0
 11
12.089601
 21
56.216923
 31
0.0
  0
LINE
  5
27e
100
AcDbEntity
  8
dxf1
 62
1
100
AcDbLine
 10
12.089601
 20
56.216923
 30
0.0
 11
12.089601
 21
56.345768
 31
0.0
  0
LINE
  5
27f
100
AcDbEntity
  8
dxf1
 62
1
100
AcDbLine
 10
12.089601
 20
56.345768
 30
0.0
 11
12.089601
 21
56.474613
 31
0.0
  0
LINE
  5
280
100
AcDbEntity
  8
dxf1
 62
1
100
AcDbLine
 10
12.089601
 20
56.474613
 30
0.0
 11
11.995541
 21
56.474613
 31
0.0
  0
LINE
  5
281
100
AcDbEntity
  8
dxf1
 62
1
100
AcDbLine
 10
11.995541
 20
56.474613
 30
0.0
 11
11.901481
 21
56.474613
 31
0.0
  0
LINE
  5
282
100
AcDbEntity
  8
dxf1
 62
1
100
AcDbLine
 10
11.901481
 20
56.474613
 30
0.0
 11
11.807421
 21
56.474613
 31
0.0
  0
LINE
  5
283
100
AcDbEntity
  8
dxf1
 62
1
100
AcDbLine
 10
11.807421
 20
56.474613
 30
0.0
 11
11.713361
 21
56.474613
 31
0.0
  0
LINE
  5
284
100
AcDbEntity
  8
dxf1
 62
1
100
AcDbLine
 10
11.713361
 20
56.474613
 30
0.0
 11
11.619301
 21
56.474613
 31
0.0
  0
LINE
  5
285
100
AcDbEntity
  8
dxf1
 62
1
100
AcDbLine
 10
11.619301
 20
56.474613
 30
0.0
 11
11.525251
 21
56.474613
 31
0.0
  0
LINE
  5
286
100
AcDbEntity
  8
dxf1
 62
1
100
AcDbLine
 10
11.525251
 20
56.474613
 30
0.0
 11
11.431190
 21
56.474613
 31
0.0
  0
LINE
  5
287
100
AcDbEntity
  8
dxf1
 62
1
100
AcDbLine
 10
11.431190
 20
56.474613
 30
0.0
 11
11.337130
 21
56.474613
 31
0.0
  0
LINE
  5
288
100
AcDbEntity
  8
dxf1
 62
1
100
AcDbLine
 10
11.337130
 20
56.474613
 30
0.0
 11
11.243070
 21
56.474613
 31
0.0
  0
LINE
  5
289
100
AcDbEntity
  8
dxf1
 62
1
100
AcDbLine
 10
11.243070
 20
56.474613
 30
0.0
 11
11.149010
 21
56.474613
 31
0.0
  0
LINE
  5
28a
100
AcDbEntity
  8
dxf1
 62
1
100
AcDbLine
 10
11.149010
 20
56.474613
 30
0.0
 11
11.054950
 21
56.474613
 31
0.0
  0
LINE
  5
28b
100
AcDbEntity
  8
dxf1
 62
1
100
AcDbLine
 10
11.054950
 20
56.474613
 30
0.0
 11
10.960890
 21
56.474613
 31
0.0
  0
LINE
  5
28c
100
AcDbEntity
  8
dxf1
 62
1
100
AcDbLine
 10
10.960890
 20
56.474613
 30
0.0
 11
10.866830
 21
56.474613
 31
0.0
  0
LINE
  5
28d
100
AcDbEntity
  8
dxf1
 62
1
100
AcDbLine
 10
10.866830
 20
56.474613
 30
0.0
 11
10.772770
 21
56.474613
 31
0.0
  0
LINE
  5
28e
100
AcDbEntity
  8
dxf1
 62
1
100
AcDbLine
 10
10.772770
 20
56.474613
 30
0.0
 11
10.678710
 21
56.474613
 31
0.0
  0
LINE
  5
28f
100
AcDbEntity
  8
dxf1
 62
1
100
AcDbLine
 10
10.678710
 20
56.474613
 30
0.0
 11
10.584650
 21
56.474613
 31
0.0
  0
LINE
  5
290
100
AcDbEntity
  8
dxf1
 62
1
100
AcDbLine
 10
10.584650
 20
56.474613
 30
0.0
 11
10.490600
 21
56.474613
 31
0.0
  0
LINE
  5
291
100
AcDbEntity
  8
dxf1
 62
1
100
AcDbLine
 10
10.490600
 20
56.474613
 30
0.0
 11
10.396540
 21
56.474613
 31
0.0
  0
LINE
  5
292
100
AcDbEntity
  8
dxf1
 62
1
100
AcDbLine
 10
10.396540
 20
56.474613
 30
0.0
 11
10.302480
 21
56.474613
 31
0.0
  0
LINE
  5
293
100
AcDbEntity
  8
dxf1
 62
1
100
AcDbLine
 10
10.302480
 20
56.474613
 30
0.0
 11
10.208420
 21
56.474613
 31
0.0
  0
LINE
  5
294
100
AcDbEntity
  8
dxf1
 62
1
100
AcDbLine
 10
10.208420
 20
56.474613
 30
0.0
 11
10.114360
 21
56.474613
 31
0.0
  0
LINE
  5
295
100
AcDbEntity
  8
dxf1
 62
1
100
AcDbLine
 10
10.114360
 20
56.474613
 30
0.0
 11
10.020300
 21
56.474613
 31
0.0
  0
LINE
  5
296
100
AcDbEntity
  8
dxf1
 62
1
100
AcDbLine
 10
10.020300
 20
56.474613
 30
0.0
 11
9.926240
 21
56.474613
 31
0.0
  0
LINE
  5
297
100
AcDbEntity
  8
dxf1
 62
1
100
AcDbLine
 10
9.926240
 20
56.474613
 30
0.0
 11
9.832180
 21
56.474613
 31
0.0
  0
LINE
  5
298
100
AcDbEntity
  8
dxf1
 62
1
100
AcDbLine
 10
9.832180
 20
56.474613
 30
0.0
 11
9.738120
 21
56.474613
 31
0.0
  0
LINE
  5
299
100
AcDbEntity
  8
dxf1
 62
1
100
AcDbLine
 10
9.738120
 20
56.474613
 30
0.0
 11
9.644059
 21
56.474613
 31
0.0
  0
LINE
  5
29a
100
AcDbEntity
  8
dxf1
 62
1
100
AcDbLine
 10
9.644059
 20
56.474613
 30
0.0
 11
9.549999
 21
56.474613
 31
0.0
  0
LINE
  5
29b
100
AcDbEntity
  8
dxf1
 62
1
100
AcDbLine
 10
9.549999
 20
56.474613
 30
0.0
 11
9.455939
 21
56.474613
 31
0.0
  0
LINE
  5
29c
100
AcDbEntity
  8
dxf1
 62
1
100
AcDbLine
 10
9.455939
 20
56.474613
 30
0.0
 11
9.361879
 21
56.474613
 31
0.0
  0
LINE
  5
29d
100
AcDbEntity
  8
dxf1
 62
1
100
AcDbLine
 10
9.361879
 20
56.474613
 30
0.0
 11
9.267819
 21
56.474613
 31
0.0
  0
LINE
  5
29e
100
AcDbEntity
  8
dxf1
 62
1
100
AcDbLine
 10
9.267819
 20
56.474613
 30
0.0
 11
9.173759
 21
56.474613
 31
0.0
  0
LINE
  5
29f
100
AcDbEntity
  8
dxf1
 62
1
100
AcDbLine
 10
9.173759
 20
56.474613
 30
0.0
 11
9.079699
 21
56.474613
 31
0.0
  0
LINE
  5
2a0
100
AcDbEntity
  8
dxf1
 62
1
100
AcDbLine
 10
9.079699
 20
56.474613
 30
0.0
 11
8.985639
 21
56.474613
 31
0.0
  0
LINE
  5
2a1
100
AcDbEntity
  8
dxf1
 62
1
100
AcDbLine
 10
8.985639
 20
56.474613
 30
0.0
 11
8.891579
 21
56.474613
 31
0.0
  0
LINE
  5
2a2
100
AcDbEntity
  8
dxf1
 62
1
100
AcDbLine
 10
8.891579
 20
56.474613
 30
0.0
 11
8.797519
 21
56.474613
 31
0.0
  0
LINE
  5
2a3
100
AcDbEntity
  8
dxf1
 62
1
100
AcDbLine
 10
8.797519
 20
56.474613
 30
0.0
 11
8.703459
 21
56.474613
 31
0.0
  0
LINE
  5
2a4
100
AcDbEntity
  8
dxf1
 62
1
100
AcDbLine
 10
8.703459
 20
56.474613
 30
0.0
 11
8.609399
 21
56.474613
 31
0.0
  0
LINE
  5
2a5
100
AcDbEntity
  8
dxf1
 62
1
100
AcDbLine
 10
8.609399
 20
56.474613
 30
0.0
 11
8.515339
 21
56.474613
 31
0.0
  0
LINE
  5
2a6
100
AcDbEntity
  8
dxf1
 62
1
100
AcDbLine
 10
8.515339
 20
56.474613
 30
0.0
 11
8.421279
 21
56.474613
 31
0.0
  0
LINE
  5
2a7
100
AcDbEntity
  8
dxf1
 62
1
100
AcDbLine
 10
8.421279
 20
56.474613
 30
0.0
 11
8.327219
 21
56.474613
 31
0.0
  0
LINE
  5
2a8
100
AcDbEntity
  8
dxf1
 62
1
100
AcDbLine
 10
8.327219
 20
56.474613
 30
0.0
 11
8.233169
 21
56.474613
 31
0.0
  0
LINE
  5
2a9
100
AcDbEntity
  8
dxf1
 62
1
100
AcDbLine
 10
8.233169
 20
56.474613
 30
0.0
 11
8.139109
 21
56.474613
 31
0.0
  0
LINE
  5
2aa
100
AcDbEntity
  8
dxf1
 62
1
100
AcDbLine
 10
8.139109
 20
56.474613
 30
0.0
 11
8.045049
 21
56.474613
 31
0.0
  0
LINE
  5
2ab
100
AcDbEntity
  8
dxf1
 62
1
100
AcDbLine
 10
8.045049
 20
56.474613
 30
0.0
 11
7.950989
 21
56.474613
 31
0.0
  0
LINE
  5
2ac
100
AcDbEntity
  8
dxf1
 62
1
100
AcDbLine
 10
7.950989
 20
56.474613
 30
0.0
 11
7.856938
 21
56.474613
 31
0.0
  0
LINE
  5
2ad
100
AcDbEntity
  8
dxf1
 62
1
100
AcDbLine
 10
7.856938
 20
56.474613
 30
0.0
 11
7.762878
 21
56.474613
 31
0.0
  0
LINE
  5
2ae
100
AcDbEntity
  8
dxf1
 62
1
100
AcDbLine
 10
7.762878
 20
56.474613
 30
0.0
 11
7.668818
 21
56.474613
 31
0.0
  0
LINE
  5
2af
100
AcDbEntity
  8
dxf1
 62
1
100
AcDbLine
 10
7.668818
 20
56.474613
 30
0.0
 11
7.574758
 21
56.474613
 31
0.0
  0
LINE
  5
2b0
100
AcDbEntity
  8
dxf1
 62
1
100
AcDbLine
 10
7.574758
 20
56.474613
 30
0.0
 11
7.480698
 21
56.474613
 31
0.0
  0
LINE
  5
2b1
100
AcDbEntity
  8
dxf1
 62
1
100
AcDbLine
 10
7.480698
 20
56.474613
 30
0.0
 11
7.386638
 21
56.474613
 31
0.0
  0
LINE
  5
2b2
100
AcDbEntity
  8
dxf1
 62
1
100
AcDbLine
 10
7.386638
 20
56.474613
 30
0.0
 11
7.292578
 21
56.474613
 31
0.0
  0
LINE
  5
2b3
100
AcDbEntity
  8
dxf1
 62
1
100
AcDbLine
 10
7.292578
 20
56.474613
 30
0.0
 11
7.198528
 21
56.474613
 31
0.0
  0
LINE
  5
2b4
100
AcDbEntity
  8
dxf1
 62
1
100
AcDbLine
 10
7.198528
 20
56.474613
 30
0.0
 11
7.104468
 21
56.474613
 31
0.0
  0
LINE
  5
2b5
100
AcDbEntity
  8
dxf1
 62
1
100
AcDbLine
 10
7.104468
 20
56.474613
 30
0.0
 11
7.010408
 21
56.474613
 31
0.0
  0
LINE
  5
2b6
100
AcDbEntity
  8
dxf1
 62
1
100
AcDbLine
 10
7.010408
 20
56.474613
 30
0.0
 11
6.916348
 21
56.474613
 31
0.0
  0
LINE
  5
2b7
100
AcDbEntity
  8
dxf1
 62
1
100
AcDbLine
 10
6.916348
 20
56.474613
 30
0.0
 11
6.822298
 21
56.474613
 31
0.0
  0
LINE
  5
2b8
100
AcDbEntity
  8
dxf1
 62
1
100
AcDbLine
 10
6.822298
 20
56.474613
 30
0.0
 11
6.728238
 21
56.474613
 31
0.0
  0
LINE
  5
2b9
100
AcDbEntity
  8
dxf1
 62
1
100
AcDbLine
 10
6.728238
 20
56.474613
 30
0.0
 11
6.634178
 21
56.474613
 31
0.0
  0
LINE
  5
2ba
100
AcDbEntity
  8
dxf1
 62
1
100
AcDbLine
 10
6.634178
 20
56.474613
 30
0.0
 11
6.540118
 21
56.474613
 31
0.0
  0
LINE
  5
2bb
100
AcDbEntity
  8
dxf1
 62
1
100
AcDbLine
 10
6.540118
 20
56.474613
 30
0.0
 11
6.446058
 21
56.474613
 31
0.0
  0
LINE
  5
2bc
100
AcDbEntity
  8
dxf1
 62
1
100
AcDbLine
 10
6.446058
 20
56.474613
 30
0.0
 11
6.351998
 21
56.474613
 31
0.0
  0
LINE
  5
2bd
100
AcDbEntity
  8
dxf1
 62
1
100
AcDbLine
 10
6.351998
 20
56.474613
 30
0.0
 11
6.257938
 21
56.474613
 31
0.0
  0
LINE
  5
2be
100
AcDbEntity
  8
dxf1
 62
1
100
AcDbLine
 10
6.257938
 20
56.474613
 30
0.0
 11
6.163877
 21
56.474613
 31
0.0
  0
LINE
  5
2bf
100
AcDbEntity
  8
dxf1
 62
1
100
AcDbLine
 10
6.163877
 20
56.474613
 30
0.0
 11
6.069817
 21
56.474613
 31
0.0
  0
LINE
  5
2c0
100
AcDbEntity
  8
dxf1
 62
1
100
AcDbLine
 10
6.069817
 20
56.474613
 30
0.0
 11
5.975757
 21
56.474613
 31
0.0
  0
LINE
  5
2c1
100
AcDbEntity
  8
dxf1
 62
1
100
AcDbLine
 10
5.975757
 20
56.474613
 30
0.0
 11
5.881697
 21
56.474613
 31
0.0
  0
LINE
  5
2c2
100
AcDbEntity
  8
dxf1
 62
1
100
AcDbLine
 10
5.881697
 20
56.474613
 30
0.0
 11
5.787637
 21
56.474613
 31
0.0
  0
LINE
  5
2c3
100
AcDbEntity
  8
dxf1
 62
1
100
AcDbLine
 10
5.787637
 20
56.474613
 30
0.0
 11
5.693577
 21
56.474613
 31
0.0
  0
LINE
  5
2c4
100
AcDbEntity
  8
dxf1
 62
1
100
AcDbLine
 10
5.693577
 20
56.474613
 30
0.0
 11
5.599517
 21
56.474613
 31
0.0
  0
LINE
  5
2c5
100
AcDbEntity
  8
dxf1
 62
1
100
AcDbLine
 10
5.599517
 20
56.474613
 30
0.0
 11
5.505457
 21
56.474613
 31
0.0
  0
LINE
  5
2c6
100
AcDbEntity
  8
dxf1
 62
1
100
AcDbLine
 10
5.505457
 20
56.474613
 30
0.0
 11
5.411397
 21
56.474613
 31
0.0
  0
LINE
  5
2c7
100
AcDbEntity
  8
dxf1
 62
1
100
AcDbLine
 10
5.411397
 20
56.474613
 30
0.0
 11
5.317337
 21
56.474613
 31
0.0
  0
LINE
  5
2c8
100
AcDbEntity
  8
dxf1
 62
1
100
AcDbLine
 10
5.317337
 20
56.474613
 30
0.0
 11
5.223277
 21
56.474613
 31
0.0
  0
LINE
  5
2c9
100
AcDbEntity
  8
dxf1
 62
1
100
AcDbLine
 10
5.223277
 20
56.474613
 30
0.0
 11
5.129217
 21
56.474613
 31
0.0
  0
LINE
  5
2ca
100
AcDbEntity
  8
dxf1
 62
1
100
AcDbLine
 10
5.129217
 20
56.474613
 30
0.0
 11
5.035157
 21
56.474613
 31
0.0
  0
LINE
  5
2cb
100
AcDbEntity
  8
dxf1
 62
1
100
AcDbLine
 10
5.035157
 20
56.474613
 30
0.0
 11
4.941097
 21
56.474613
 31
0.0
  0
LINE
  5
2cc
100
AcDbEntity
  8
dxf1
 62
1
100
AcDbLine
 10
4.941097
 20
56.474613
 30
0.0
 11
4.847037
 21
56.474613
 31
0.0
  0
LINE
  5
2cd
100
AcDbEntity
  8
dxf1
 62
1
100
AcDbLine
 10
4.847037
 20
56.474613
 30
0.0
 11
4.752977
 21
56.474613
 31
0.0
  0
LINE
  5
2ce
100
AcDbEntity
  8
dxf1
 62
1
100
AcDbLine
 10
4.752977
 20
56.474613
 30
0.0
 11
4.658917
 21
56.474613
 31
0.0
  0
LINE
  5
2cf
100
AcDbEntity
  8
dxf1
 62
1
100
AcDbLine
 10
4.658917
 20
56.474613
 30
0.0
 11
4.564857
 21
56.474613
 31
0.0
  0
LINE
  5
2d0
100
AcDbEntity
  8
dxf1
 62
1
100
AcDbLine
 10
4.564857
 20
56.474613
 30
0.0
 11
4.470797
 21
56.474613
 31
0.0
  0
LINE
  5
2d1
100
AcDbEntity
  8
dxf1
 62
1
100
AcDbLine
 10
4.470797
 20
56.474613
 30
0.0
 11
4.376736
 21
56.474613
 31
0.0
  0
LINE
  5
2d2
100
AcDbEntity
  8
dxf1
 62
1
100
AcDbLine
 10
4.376736
 20
56.474613
 30
0.0
 11
4.282676
 21
56.474613
 31
0.0
  0
LINE
  5
2d3
100
AcDbEntity
  8
dxf1
 62
1
100
AcDbLine
 10
4.282676
 20
56.474613
 30
0.0
 11
4.188626
 21
56.474613
 31
0.0
  0
LINE
  5
2d4
100
AcDbEntity
  8
dxf1
 62
1
100
AcDbLine
 10
4.188626
 20
56.474613
 30
0.0
 11
4.094566
 21
56.474613
 31
0.0
  0
LINE
  5
2d5
100
AcDbEntity
  8
dxf1
 62
1
100
AcDbLine
 10
4.094566
 20
56.474613
 30
0.0
 11
4.000506
 21
56.474613
 31
0.0
  0
LINE
  5
2d6
100
AcDbEntity
  8
dxf1
 62
1
100
AcDbLine
 10
4.000506
 20
56.474613
 30
0.0
 11
3.906446
 21
56.474613
 31
0.0
  0
LINE
  5
2d7
100
AcDbEntity
  8
dxf1
 62
1
100
AcDbLine
 10
3.906446
 20
56.474613
 30
0.0
 11
3.812386
 21
56.474613
 31
0.0
  0
LINE
  5
2d8
100
AcDbEntity
  8
dxf1
 62
1
100
AcDbLine
 10
3.812386
 20
56.474613
 30
0.0
 11
3.718326
 21
56.474613
 31
0.0
  0
LINE
  5
2d9
100
AcDbEntity
  8
dxf1
 62
1
100
AcDbLine
 10
3.718326
 20
56.474613
 30
0.0
 11
3.624266
 21
56.474613
 31
0.0
  0
LINE
  5
2da
100
AcDbEntity
  8
dxf1
 62
1
100
AcDbLine
 10
3.624266
 20
56.474613
 30
0.0
 11
3.530206
 21
56.474613
 31
0.0
  0
LINE
  5
2db
100
AcDbEntity
  8
dxf1
 62
1
100
AcDbLine
 10
3.530206
 20
56.474613
 30
0.0
 11
3.436146
 21
56.474613
 31
0.0
  0
LINE
  5
2dc
100
AcDbEntity
  8
dxf1
 62
1
100
AcDbLine
 10
3.436146
 20
56.474613
 30
0.0
 11
3.342086
 21
56.474613
 31
0.0
  0
LINE
  5
2dd
100
AcDbEntity
  8
dxf1
 62
1
100
AcDbLine
 10
3.342086
 20
56.474613
 30
0.0
 11
3.248026
 21
56.474613
 31
0.0
  0
LINE
  5
2de
100
AcDbEntity
  8
dxf1
 62
1
100
AcDbLine
 10
3.248026
 20
56.474613
 30
0.0
 11
3.153976
 21
56.474613
 31
0.0
  0
LINE
  5
2df
100
AcDbEntity
  8
dxf1
 62
1
100
AcDbLine
 10
3.153976
 20
56.474613
 30
0.0
 11
3.059916
 21
56.474613
 31
0.0
  0
LINE
  5
2e0
100
AcDbEntity
  8
dxf1
 62
1
100
AcDbLine
 10
3.059916
 20
56.474613
 30
0.0
 11
2.965856
 21
56.474613
 31
0.0
  0
LINE
  5
2e1
100
AcDbEntity
  8
dxf1
 62
1
100
AcDbLine
 10
2.965856
 20
56.474613
 30
0.0
 11
2.871806
 21
56.474613
 31
0.0
  0
LINE
  5
2e2
100
AcDbEntity
  8
dxf1
 62
1
100
AcDbLine
 10
2.871806
 20
56.474613
 30
0.0
 11
2.777746
 21
56.474613
 31
0.0
  0
LINE
  5
2e3
100
AcDbEntity
  8
dxf1
 62
1
100
AcDbLine
 10
2.777746
 20
56.474613
 30
0.0
 11
2.683686
 21
56.474613
 31
0.0
  0
LINE
  5
2e4
100
AcDbEntity
  8
dxf1
 62
1
100
AcDbLine
 10
2.683686
 20
56.474613
 30
0.0
 11
2.589625
 21
56.474613
 31
0.0
  0
LINE
  5
2e5
100
AcDbEntity
  8
dxf1
 62
1
100
AcDbLine
 10
2.589625
 20
56.474613
 30
0.0
 11
2.495565
 21
56.474613
 31
0.0
  0
LINE
  5
2e6
100
AcDbEntity
  8
dxf1
 62
1
100
AcDbLine
 10
2.495565
 20
56.474613
 30
0.0
 11
2.401505
 21
56.474613
 31
0.0
  0
LINE
  5
2e7
100
AcDbEntity
  8
dxf1
 62
1
100
AcDbLine
 10
2.401505
 20
56.474613
 30
0.0
 11
2.307445
 21
56.474613
 31
0.0
  0
LINE
  5
2e8
100
AcDbEntity
  8
dxf1
 62
1
100
AcDbLine
 10
2.307445
 20
56.474613
 30
0.0
 11
2.213395
 21
56.474613
 31
0.0
  0
LINE
  5
2e9
100
AcDbEntity
  8
dxf1
 62
1
100
AcDbLine
 10
2.213395
 20
56.474613
 30
0.0
 11
2.119335
 21
56.474613
 31
0.0
  0
LINE
  5
2ea
100
AcDbEntity
  8
dxf1
 62
1
100
AcDbLine
 10
2.119335
 20
56.474613
 30
0.0
 11
2.025275
 21
56.474613
 31
0.0
  0
LINE
  5
2eb
100
AcDbEntity
  8
dxf1
 62
1
100
AcDbLine
 10
2.025275
 20
56.474613
 30
0.0
 11
1.931215
 21
56.474613
 31
0.0
  0
LINE
  5
2ec
100
AcDbEntity
  8
dxf1
 62
1
100
AcDbLine
 10
1.931215
 20
56.474613
 30
0.0
 11
1.837165
 21
56.474613
 31
0.0
  0
LINE
  5
2ed
100
AcDbEntity
  8
dxf1
 62
1
100
AcDbLine
 10
1.837165
 20
56.474613
 30
0.0
 11
1.743105
 21
56.474613
 31
0.0
  0
LINE
  5
2ee
100
AcDbEntity
  8
dxf1
 62
1
100
AcDbLine
 10
1.743105
 20
56.474613
 30
0.0
 11
1.649045
 21
56.474613
 31
0.0
  0
LINE
  5
2ef
100
AcDbEntity
  8
dxf1
 62
1
100
AcDbLine
 10
1.649045
 20
56.474613
 30
0.0
 11
1.554985
 21
56.474613
 31
0.0
  0
LINE
  5
2f0
100
AcDbEntity
  8
dxf1
 62
1
100
AcDbLine
 10
1.554985
 20
56.474613
 30
0.0
 11
1.460925
 21
56.474613
 31
0.0
  0
LINE
  5
2f1
100
AcDbEntity
  8
dxf1
 62
1
100
AcDbLine
 10
1.460925
 20
56.474613
 30
0.0
 11
1.366865
 21
56.474613
 31
0.0
  0
LINE
  5
2f2
100
AcDbEntity
  8
dxf1
 62
1
100
AcDbLine
 10
1.366865
 20
56.474613
 30
0.0
 11
1.272805
 21
56.474613
 31
0.0
  0
LINE
  5
2f3
100
AcDbEntity
  8
dxf1
 62
1
100
AcDbLine
 10
1.272805
 20
56.474613
 30
0.0
 11
1.178745
 21
56.474613
 31
0.0
  0
LINE
  5
2f4
100
AcDbEntity
  8
dxf1
 62
1
100
AcDbLine
 10
1.178745
 20
56.474613
 30
0.0
 11
1.084685
 21
56.474613
 31
0.0
  0
LINE
  5
2f5
100
AcDbEntity
  8
dxf1
 62
1
100
AcDbLine
 10
1.084685
 20
56.474613
 30
0.0
 11
0.990625
 21
56.474613
 31
0.0
  0
LINE
  5
2f6
100
AcDbEntity
  8
dxf1
 62
1
100
AcDbLine
 10
0.990625
 20
56.474613
 30
0.0
 11
0.896565
 21
56.474613
 31
0.0
  0
LINE
  5
2f7
100
AcDbEntity
  8
dxf1
 62
1
100
AcDbLine
 10
0.896565
 20
56.474613
 30
0.0
 11
0.802514
 21
56.474613
 31
0.0
  0
LINE
  5
2f8
100
AcDbEntity
  8
dxf1
 62
1
100
AcDbLine
 10
0.802514
 20
56.474613
 30
0.0
 11
0.708454
 21
56.474613
 31
0.0
  0
LINE
  5
2f9
100
AcDbEntity
  8
dxf1
 62
1
100
AcDbLine
 10
0.708454
 20
56.474613
 30
0.0
 11
0.614394
 21
56.474613
 31
0.0
  0
LINE
  5
2fa
100
AcDbEntity
  8
dxf1
 62
1
100
AcDbLine
 10
0.614394
 20
56.474613
 30
0.0
 11
0.520334
 21
56.474613
 31
0.0
  0
LINE
  5
2fb
100
AcDbEntity
  8
dxf1
 62
1
100
AcDbLine
 10
0.520334
 20
56.474613
 30
0.0
 11
0.426274
 21
56.474613
 31
0.0
  0
LINE
  5
2fc
100
AcDbEntity
  8
dxf1
 62
1
100
AcDbLine
 10
0.426274
 20
56.474613
 30
0.0
 11
0.332214
 21
56.474613
 31
0.0
  0
LINE
  5
2fd
100
AcDbEntity
  8
dxf1
 62
1
100
AcDbLine
 10
0.332214
 20
56.474613
 30
0.0
 11
0.238154
 21
56.474613
 31
0.0
  0
LINE
  5
2fe
100
AcDbEntity
  8
dxf1
 62
1
100
AcDbLine
 10
0.238154
 20
56.474613
 30
0.0
 11
0.144094
 21
56.474613
 31
0.0
  0
LINE
  5
2ff
100
AcDbEntity
  8
dxf1
 62
1
100
AcDbLine
 10
0.144094
 20
56.474613
 30
0.0
 11
0.050034
 21
56.474613
 31
0.0
  0
LINE
  5
300
100
AcDbEntity
  8
dxf1
 62
1
100
AcDbLine
 10
0.050034
 20
56.474613
 30
0.0
 11
0.050178
 21
56.052044
 31
0.0
  0
LINE
  5
301
100
AcDbEntity
  8
dxf1
 62
1
100
AcDbLine
 10
0.050178
 20
56.052044
 30
0.0
 11
0.050318
 21
55.629473
 31
0.0
  0
LINE
  5
302
100
AcDbEntity
  8
dxf1
 62
1
100
AcDbLine
 10
0.050318
 20
55.629473
 30
0.0
 11
0.050455
 21
55.206903
 31
0.0
  0
LINE
  5
303
100
AcDbEntity
  8
dxf1
 62
1
100
AcDbLine
 10
0.050455
 20
55.206903
 30
0.0
 11
0.050588
 21
54.784334
 31
0.0
  0
LINE
  5
304
100
AcDbEntity
  8
dxf1
 62
1
100
AcDbLine
 10
0.050588
 20
54.784334
 30
0.0
 11
0.050718
 21
54.361764
 31
0.0
  0
LINE
  5
305
100
AcDbEntity
  8
dxf1
 62
1
100
AcDbLine
 10
0.050718
 20
54.361764
 30
0.0
 11
0.050845
 21
53.939195
 31
0.0
  0
LINE
  5
306
100
AcDbEntity
  8
dxf1
 62
1
100
AcDbLine
 10
0.050845
 20
53.939195
 30
0.0
 11
0.050969
 21
53.516624
 31
0.0
  0
LINE
  5
307
100
AcDbEntity
  8
dxf1
 62
1
100
AcDbLine
 10
0.050969
 20
53.516624
 30
0.0
 11
0.051089
 21
53.094054
 31
0.0
  0
LINE
  5
308
100
AcDbEntity
  8
dxf1
 62
1
100
AcDbLine
 10
0.051089
 20
53.094054
 30
0.0
 11
0.051207
 21
52.671485
 31
0.0
  0
LINE
  5
309
100
AcDbEntity
  8
dxf1
 62
1
100
AcDbLine
 10
0.051207
 20
52.671485
 30
0.0
 11
0.051321
 21
52.248915
 31
0.0
  0
LINE
  5
30a
100
AcDbEntity
  8
dxf1
 62
1
100
AcDbLine
 10
0.051321
 20
52.248915
 30
0.0
 11
0.051432
 21
51.826344
 31
0.0
  0
LINE
  5
30b
100
AcDbEntity
  8
dxf1
 62
1
100
AcDbLine
 10
0.051432
 20
51.826344
 30
0.0
 11
0.051540
 21
51.403775
 31
0.0
  0
LINE
  5
30c
100
AcDbEntity
  8
dxf1
 62
1
100
AcDbLine
 10
0.051540
 20
51.403775
 30
0.0
 11
0.051645
 21
50.981205
 31
0.0
  0
LINE
  5
30d
100
AcDbEntity
  8
dxf1
 62
1
100
AcDbLine
 10
0.051645
 20
50.981205
 30
0.0
 11
0.051748
 21
50.558635
 31
0.0
  0
LINE
  5
30e
100
AcDbEntity
  8
dxf1
 62
1
100
AcDbLine
 10
0.051748
 20
50.558635
 30
0.0
 11
0.051847
 21
50.136064
 31
0.0
  0
LINE
  5
30f
100
AcDbEntity
  8
dxf1
 62
1
100
AcDbLine
 10
0.051847
 20
50.136064
 30
0.0
 11
0.051943
 21
49.713494
 31
0.0
  0
LINE
  5
310
100
AcDbEntity
  8
dxf1
 62
1
100
AcDbLine
 10
0.051943
 20
49.713494
 30
0.0
 11
0.052036
 21
49.290925
 31
0.0
  0
LINE
  5
311
100
AcDbEntity
  8
dxf1
 62
1
100
AcDbLine
 10
0.052036
 20
49.290925
 30
0.0
 11
0.052127
 21
48.868355
 31
0.0
  0
LINE
  5
312
100
AcDbEntity
  8
dxf1
 62
1
100
AcDbLine
 10
0.052127
 20
48.868355
 30
0.0
 11
0.052215
 21
48.445784
 31
0.0
  0
LINE
  5
313
100
AcDbEntity
  8
dxf1
 62
1
100
AcDbLine
 10
0.052215
 20
48.445784
 30
0.0
 11
0.052300
 21
48.023214
 31
0.0
  0
LINE
  5
314
100
AcDbEntity
  8
dxf1
 62
1
100
AcDbLine
 10
0.052300
 20
48.023214
 30
0.0
 11
0.052382
 21
47.600644
 31
0.0
  0
LINE
  5
315
100
AcDbEntity
  8
dxf1
 62
1
100
AcDbLine
 10
0.052382
 20
47.600644
 30
0.0
 11
0.052462
 21
47.178074
 31
0.0
  0
LINE
  5
316
100
AcDbEntity
  8
dxf1
 62
1
100
AcDbLine
 10
0.052462
 20
47.178074
 30
0.0
 11
0.052539
 21
46.755503
 31
0.0
  0
LINE
  5
317
100
AcDbEntity
  8
dxf1
 62
1
100
AcDbLine
 10
0.052539
 20
46.755503
 30
0.0
 11
0.052613
 21
46.332933
 31
0.0
  0
LINE
  5
318
100
AcDbEntity
  8
dxf1
 62
1
100
AcDbLine
 10
0.052613
 20
46.332933
 30
0.0
 11
0.052685
 21
45.910363
 31
0.0
  0
LINE
  5
319
100
AcDbEntity
  8
dxf1
 62
1
100
AcDbLine
 10
0.052685
 20
45.910363
 30
0.0
 11
0.052754
 21
45.487793
 31
0.0
  0
LINE
  5
31a
100
AcDbEntity
  8
dxf1
 62
1
100
AcDbLine
 10
0.052754
 20
45.487793
 30
0.0
 11
0.052821
 21
45.065223
 31
0.0
  0
LINE
  5
31b
100
AcDbEntity
  8
dxf1
 62
1
100
AcDbLine
 10
0.052821
 20
45.065223
 30
0.0
 11
0.052885
 21
44.642652
 31
0.0
  0
LINE
  5
31c
100
AcDbEntity
  8
dxf1
 62
1
100
AcDbLine
 10
0.052885
 20
44.642652
 30
0.0
 11
0.052947
 21
44.220082
 31
0.0
  0
LINE
  5
31d
100
AcDbEntity
  8
dxf1
 62
1
100
AcDbLine
 10
0.052947
 20
44.220082
 30
0.0
 11
0.053007
 21
43.797512
 31
0.0
  0
LINE
  5
31e
100
AcDbEntity
  8
dxf1
 62
1
100
AcDbLine
 10
0.053007
 20
43.797512
 30
0.0
 11
0.053064
 21
43.374942
 31
0.0
  0
LINE
  5
31f
100
AcDbEntity
  8
dxf1
 62
1
100
AcDbLine
 10
0.053064
 20
43.374942
 30
0.0
 11
0.053118
 21
42.952371
 31
0.0
  0
LINE
  5
320
100
AcDbEntity
  8
dxf1
 62
1
100
AcDbLine
 10
0.053118
 20
42.952371
 30
0.0
 11
0.053171
 21
42.529801
 31
0.0
  0
LINE
  5
321
100
AcDbEntity
  8
dxf1
 62
1
100
AcDbLine
 10
0.053171
 20
42.529801
 30
0.0
 11
0.053221
 21
42.107231
 31
0.0
  0
LINE
  5
322
100
AcDbEntity
  8
dxf1
 62
1
100
AcDbLine
 10
0.053221
 20
42.107231
 30
0.0
 11
0.053269
 21
41.684661
 31
0.0
  0
LINE
  5
323
100
AcDbEntity
  8
dxf1
 62
1
100
AcDbLine
 10
0.053269
 20
41.684661
 30
0.0
 11
0.053315
 21
41.262089
 31
0.0
  0
LINE
  5
324
100
AcDbEntity
  8
dxf1
 62
1
100
AcDbLine
 10
0.053315
 20
41.262089
 30
0.0
 11
0.053359
 21
40.839519
 31
0.0
  0
LINE
  5
325
100
AcDbEntity
  8
dxf1
 62
1
100
AcDbLine
 10
0.053359
 20
40.839519
 30
0.0
 11
0.053400
 21
40.416949
 31
0.0
  0
LINE
  5
326
100
AcDbEntity
  8
dxf1
 62
1
100
AcDbLine
 10
0.053400
 20
40.416949
 30
0.0
 11
0.053440
 21
39.994379
 31
0.0
  0
LINE
  5
327
100
AcDbEntity
  8
dxf1
 62
1
100
AcDbLine
 10
0.053440
 20
39.994379
 30
0.0
 11
0.053477
 21
39.571808
 31
0.0
  0
LINE
  5
328
100
AcDbEntity
  8
dxf1
 62
1
100
AcDbLine
 10
0.053477
 20
39.571808
 30
0.0
 11
0.053513
 21
39.149237
 31
0.0
  0
LINE
  5
329
100
AcDbEntity
  8
dxf1
 62
1
100
AcDbLine
 10
0.053513
 20
39.149237
 30
0.0
 11
0.053546
 21
38.726667
 31
0.0
  0
LINE
  5
32a
100
AcDbEntity
  8
dxf1
 62
1
100
AcDbLine
 10
0.053546
 20
38.726667
 30
0.0
 11
0.053578
 21
38.304097
 31
0.0
  0
LINE
  5
32b
100
AcDbEntity
  8
dxf1
 62
1
100
AcDbLine
 10
0.053578
 20
38.304097
 30
0.0
 11
0.053607
 21
37.881526
 31
0.0
  0
LINE
  5
32c
100
AcDbEntity
  8
dxf1
 62
1
100
AcDbLine
 10
0.053607
 20
37.881526
 30
0.0
 11
0.053635
 21
37.458956
 31
0.0
  0
LINE
  5
32d
100
AcDbEntity
  8
dxf1
 62
1
100
AcDbLine
 10
0.053635
 20
37.458956
 30
0.0
 11
0.053661
 21
37.036385
 31
0.0
  0
LINE
  5
32e
100
AcDbEntity
  8
dxf1
 62
1
100
AcDbLine
 10
0.053661
 20
37.036385
 30
0.0
 11
0.053685
 21
36.613815
 31
0.0
  0
LINE
  5
32f
100
AcDbEntity
  8
dxf1
 62
1
100
AcDbLine
 10
0.053685
 20
36.613815
 30
0.0
 11
0.053708
 21
36.191244
 31
0.0
  0
LINE
  5
330
100
AcDbEntity
  8
dxf1
 62
1
100
AcDbLine
 10
0.053708
 20
36.191244
 30
0.0
 11
0.053729
 21
35.768673
 31
0.0
  0
LINE
  5
331
100
AcDbEntity
  8
dxf1
 62
1
100
AcDbLine
 10
0.053729
 20
35.768673
 30
0.0
 11
0.053748
 21
35.346103
 31
0.0
  0
LINE
  5
332
100
AcDbEntity
  8
dxf1
 62
1
100
AcDbLine
 10
0.053748
 20
35.346103
 30
0.0
 11
0.053765
 21
34.923533
 31
0.0
  0
LINE
  5
333
100
AcDbEntity
  8
dxf1
 62
1
100
AcDbLine
 10
0.053765
 20
34.923533
 30
0.0
 11
0.053781
 21
34.500962
 31
0.0
  0
LINE
  5
334
100
AcDbEntity
  8
dxf1
 62
1
100
AcDbLine
 10
0.053781
 20
34.500962
 30
0.0
 11
0.053795
 21
34.078391
 31
0.0
  0
LINE
  5
335
100
AcDbEntity
  8
dxf1
 62
1
100
AcDbLine
 10
0.053795
 20
34.078391
 30
0.0
 11
0.053808
 21
33.655821
 31
0.0
  0
LINE
  5
336
100
AcDbEntity
  8
dxf1
 62
1
100
AcDbLine
 10
0.053808
 20
33.655821
 30
0.0
 11
0.053819
 21
33.233250
 31
0.0
  0
LINE
  5
337
100
AcDbEntity
  8
dxf1
 62
1
100
AcDbLine
 10
0.053819
 20
33.233250
 30
0.0
 11
0.053829
 21
32.810680
 31
0.0
  0
LINE
  5
338
100
AcDbEntity
  8
dxf1
 62
1
100
AcDbLine
 10
0.053829
 20
32.810680
 30
0.0
 11
0.053837
 21
32.388109
 31
0.0
  0
LINE
  5
339
100
AcDbEntity
  8
dxf1
 62
1
100
AcDbLine
 10
0.053837
 20
32.388109
 30
0.0
 11
0.053844
 21
31.965538
 31
0.0
  0
LINE
  5
33a
100
AcDbEntity
  8
dxf1
 62
1
100
AcDbLine
 10
0.053844
 20
31.965538
 30
0.0
 11
0.053850
 21
31.542968
 31
0.0
  0
LINE
  5
33b
100
AcDbEntity
  8
dxf1
 62
1
100
AcDbLine
 10
0.053850
 20
31.542968
 30
0.0
 11
0.053854
 21
31.120398
 31
0.0
  0
LINE
  5
33c
100
AcDbEntity
  8
dxf1
 62
1
100
AcDbLine
 10
0.053854
 20
31.120398
 30
0.0
 11
0.053857
 21
30.697826
 31
0.0
  0
LINE
  5
33d
100
AcDbEntity
  8
dxf1
 62
1
100
AcDbLine
 10
0.053857
 20
30.697826
 30
0.0
 11
0.053859
 21
30.275256
 31
0.0
  0
LINE
  5
33e
100
AcDbEntity
  8
dxf1
 62
1
100
AcDbLine
 10
0.053859
 20
30.275256
 30
0.0
 11
0.053860
 21
29.852686
 31
0.0
  0
LINE
  5
33f
100
AcDbEntity
  8
dxf1
 62
1
100
AcDbLine
 10
0.053860
 20
29.852686
 30
0.0
 11
0.053859
 21
29.430115
 31
0.0
  0
LINE
  5
340
100
AcDbEntity
  8
dxf1
 62
1
100
AcDbLine
 10
0.053859
 20
29.430115
 30
0.0
 11
0.053857
 21
29.007544
 31
0.0
  0
LINE
  5
341
100
AcDbEntity
  8
dxf1
 62
1
100
AcDbLine
 10
0.053857
 20
29.007544
 30
0.0
 11
0.053854
 21
28.584973
 31
0.0
  0
LINE
  5
342
100
AcDbEntity
  8
dxf1
 62
1
100
AcDbLine
 10
0.053854
 20
28.584973
 30
0.0
 11
0.053851
 21
28.162403
 31
0.0
  0
LINE
  5
343
100
AcDbEntity
  8
dxf1
 62
1
100
AcDbLine
 10
0.053851
 20
28.162403
 30
0.0
 11
0.053846
 21
27.739833
 31
0.0
  0
LINE
  5
344
100
AcDbEntity
  8
dxf1
 62
1
100
AcDbLine
 10
0.053846
 20
27.739833
 30
0.0
 11
0.053840
 21
27.317261
 31
0.0
  0
LINE
  5
345
100
AcDbEntity
  8
dxf1
 62
1
100
AcDbLine
 10
0.053840
 20
27.317261
 30
0.0
 11
0.053833
 21
26.894691
 31
0.0
  0
LINE
  5
346
100
AcDbEntity
  8
dxf1
 62
1
100
AcDbLine
 10
0.053833
 20
26.894691
 30
0.0
 11
0.053825
 21
26.472120
 31
0.0
  0
LINE
  5
347
100
AcDbEntity
  8
dxf1
 62
1
100
AcDbLine
 10
0.053825
 20
26.472120
 30
0.0
 11
0.053816
 21
26.049550
 31
0.0
  0
LINE
  5
348
100
AcDbEntity
  8
dxf1
 62
1
100
AcDbLine
 10
0.053816
 20
26.049550
 30
0.0
 11
0.053807
 21
25.626979
 31
0.0
  0
LINE
  5
349
100
AcDbEntity
  8
dxf1
 62
1
100
AcDbLine
 10
0.053807
 20
25.626979
 30
0.0
 11
0.053797
 21
25.204408
 31
0.0
  0
LINE
  5
34a
100
AcDbEntity
  8
dxf1
 62
1
100
AcDbLine
 10
0.053797
 20
25.204408
 30
0.0
 11
0.053785
 21
24.781838
 31
0.0
  0
LINE
  5
34b
100
AcDbEntity
  8
dxf1
 62
1
100
AcDbLine
 10
0.053785
 20
24.781838
 30
0.0
 11
0.053774
 21
24.359267
 31
0.0
  0
LINE
  5
34c
100
AcDbEntity
  8
dxf1
 62
1
100
AcDbLine
 10
0.053774
 20
24.359267
 30
0.0
 11
0.053761
 21
23.936697
 31
0.0
  0
LINE
  5
34d
100
AcDbEntity
  8
dxf1
 62
1
100
AcDbLine
 10
0.053761
 20
23.936697
 30
0.0
 11
0.053748
 21
23.514125
 31
0.0
  0
LINE
  5
34e
100
AcDbEntity
  8
dxf1
 62
1
100
AcDbLine
 10
0.053748
 20
23.514125
 30
0.0
 11
0.053734
 21
23.091555
 31
0.0
  0
LINE
  5
34f
100
AcDbEntity
  8
dxf1
 62
1
100
AcDbLine
 10
0.053734
 20
23.091555
 30
0.0
 11
0.053720
 21
22.668984
 31
0.0
  0
LINE
  5
350
100
AcDbEntity
  8
dxf1
 62
1
100
AcDbLine
 10
0.053720
 20
22.668984
 30
0.0
 11
0.053705
 21
22.246414
 31
0.0
  0
LINE
  5
351
100
AcDbEntity
  8
dxf1
 62
1
100
AcDbLine
 10
0.053705
 20
22.246414
 30
0.0
 11
0.053689
 21
21.823843
 31
0.0
  0
LINE
  5
352
100
AcDbEntity
  8
dxf1
 62
1
100
AcDbLine
 10
0.053689
 20
21.823843
 30
0.0
 11
0.053673
 21
21.401272
 31
0.0
  0
LINE
  5
353
100
AcDbEntity
  8
dxf1
 62
1
100
AcDbLine
 10
0.053673
 20
21.401272
 30
0.0
 11
0.053657
 21
20.978702
 31
0.0
  0
LINE
  5
354
100
AcDbEntity
  8
dxf1
 62
1
100
AcDbLine
 10
0.053657
 20
20.978702
 30
0.0
 11
0.053640
 21
20.556131
 31
0.0
  0
LINE
  5
355
100
AcDbEntity
  8
dxf1
 62
1
100
AcDbLine
 10
0.053640
 20
20.556131
 30
0.0
 11
0.053622
 21
20.133560
 31
0.0
  0
LINE
  5
356
100
AcDbEntity
  8
dxf1
 62
1
100
AcDbLine
 10
0.053622
 20
20.133560
 30
0.0
 11
0.053605
 21
19.710990
 31
0.0
  0
LINE
  5
357
100
AcDbEntity
  8
dxf1
 62
1
100
AcDbLine
 10
0.053605
 20
19.710990
 30
0.0
 11
0.053587
 21
19.288419
 31
0.0
  0
LINE
  5
358
100
AcDbEntity
  8
dxf1
 62
1
100
AcDbLine
 10
0.053587
 20
19.288419
 30
0.0
 11
0.053569
 21
18.865849
 31
0.0
  0
LINE
  5
359
100
AcDbEntity
  8
dxf1
 62
1
100
AcDbLine
 10
0.053569
 20
18.865849
 30
0.0
 11
0.053550
 21
18.443277
 31
0.0
  0
LINE
  5
35a
100
AcDbEntity
  8
dxf1
 62
1
100
AcDbLine
 10
0.053550
 20
18.443277
 30
0.0
 11
0.053532
 21
18.020707
 31
0.0
  0
LINE
  5
35b
100
AcDbEntity
  8
dxf1
 62
1
100
AcDbLine
 10
0.053532
 20
18.020707
 30
0.0
 11
0.053513
 21
17.598137
 31
0.0
  0
LINE
  5
35c
100
AcDbEntity
  8
dxf1
 62
1
100
AcDbLine
 10
0.053513
 20
17.598137
 30
0.0
 11
0.053494
 21
17.175566
 31
0.0
  0
LINE
  5
35d
100
AcDbEntity
  8
dxf1
 62
1
100
AcDbLine
 10
0.053494
 20
17.175566
 30
0.0
 11
0.053475
 21
16.752995
 31
0.0
  0
LINE
  5
35e
100
AcDbEntity
  8
dxf1
 62
1
100
AcDbLine
 10
0.053475
 20
16.752995
 30
0.0
 11
0.053456
 21
16.330424
 31
0.0
  0
LINE
  5
35f
100
AcDbEntity
  8
dxf1
 62
1
100
AcDbLine
 10
0.053456
 20
16.330424
 30
0.0
 11
0.053437
 21
15.907854
 31
0.0
  0
LINE
  5
360
100
AcDbEntity
  8
dxf1
 62
1
100
AcDbLine
 10
0.053437
 20
15.907854
 30
0.0
 11
0.053418
 21
15.485284
 31
0.0
  0
LINE
  5
361
100
AcDbEntity
  8
dxf1
 62
1
100
AcDbLine
 10
0.053418
 20
15.485284
 30
0.0
 11
0.053399
 21
15.062713
 31
0.0
  0
LINE
  5
362
100
AcDbEntity
  8
dxf1
 62
1
100
AcDbLine
 10
0.053399
 20
15.062713
 30
0.0
 11
0.053380
 21
14.640142
 31
0.0
  0
LINE
  5
363
100
AcDbEntity
  8
dxf1
 62
1
100
AcDbLine
 10
0.053380
 20
14.640142
 30
0.0
 11
0.053361
 21
14.217572
 31
0.0
  0
LINE
  5
364
100
AcDbEntity
  8
dxf1
 62
1
100
AcDbLine
 10
0.053361
 20
14.217572
 30
0.0
 11
0.053343
 21
13.795001
 31
0.0
  0
LINE
  5
365
100
AcDbEntity
  8
dxf1
 62
1
100
AcDbLine
 10
0.053343
 20
13.795001
 30
0.0
 11
0.053324
 21
13.372431
 31
0.0
  0
LINE
  5
366
100
AcDbEntity
  8
dxf1
 62
1
100
AcDbLine
 10
0.053324
 20
13.372431
 30
0.0
 11
0.053306
 21
12.949860
 31
0.0
  0
LINE
  5
367
100
AcDbEntity
  8
dxf1
 62
1
100
AcDbLine
 10
0.053306
 20
12.949860
 30
0.0
 11
0.053288
 21
12.527289
 31
0.0
  0
LINE
  5
368
100
AcDbEntity
  8
dxf1
 62
1
100
AcDbLine
 10
0.053288
 20
12.527289
 30
0.0
 11
0.053271
 21
12.104719
 31
0.0
  0
LINE
  5
369
100
AcDbEntity
  8
dxf1
 62
1
100
AcDbLine
 10
0.053271
 20
12.104719
 30
0.0
 11
0.053254
 21
11.682149
 31
0.0
  0
LINE
  5
36a
100
AcDbEntity
  8
dxf1
 62
1
100
AcDbLine
 10
0.053254
 20
11.682149
 30
0.0
 11
0.053237
 21
11.259577
 31
0.0
  0
LINE
  5
36b
100
AcDbEntity
  8
dxf1
 62
1
100
AcDbLine
 10
0.053237
 20
11.259577
 30
0.0
 11
0.053220
 21
10.837007
 31
0.0
  0
LINE
  5
36c
100
AcDbEntity
  8
dxf1
 62
1
100
AcDbLine
 10
0.053220
 20
10.837007
 30
0.0
 11
0.053204
 21
10.414437
 31
0.0
  0
LINE
  5
36d
100
AcDbEntity
  8
dxf1
 62
1
100
AcDbLine
 10
0.053204
 20
10.414437
 30
0.0
 11
0.053189
 21
9.991867
 31
0.0
  0
LINE
  5
36e
100
AcDbEntity
  8
dxf1
 62
1
100
AcDbLine
 10
0.053189
 20
9.991867
 30
0.0
 11
0.053174
 21
9.569295
 31
0.0
  0
LINE
  5
36f
100
AcDbEntity
  8
dxf1
 62
1
100
AcDbLine
 10
0.053174
 20
9.569295
 30
0.0
 11
0.053159
 21
9.146725
 31
0.0
  0
LINE
  5
370
100
AcDbEntity
  8
dxf1
 62
1
100
AcDbLine
 10
0.053159
 20
9.146725
 30
0.0
 11
0.053146
 21
8.724155
 31
0.0
  0
LINE
  5
371
100
AcDbEntity
  8
dxf1
 62
1
100
AcDbLine
 10
0.053146
 20
8.724155
 30
0.0
 11
0.053132
 21
8.301585
 31
0.0
  0
LINE
  5
372
100
AcDbEntity
  8
dxf1
 62
1
100
AcDbLine
 10
0.053132
 20
8.301585
 30
0.0
 11
0.053120
 21
7.879013
 31
0.0
  0
LINE
  5
373
100
AcDbEntity
  8
dxf1
 62
1
100
AcDbLine
 10
0.053120
 20
7.879013
 30
0.0
 11
0.053108
 21
7.456443
 31
0.0
  0
LINE
  5
374
100
AcDbEntity
  8
dxf1
 62
1
100
AcDbLine
 10
0.053108
 20
7.456443
 30
0.0
 11
0.053097
 21
7.033873
 31
0.0
  0
LINE
  5
375
100
AcDbEntity
  8
dxf1
 62
1
100
AcDbLine
 10
0.053097
 20
7.033873
 30
0.0
 11
0.053087
 21
6.611303
 31
0.0
  0
LINE
  5
376
100
AcDbEntity
  8
dxf1
 62
1
100
AcDbLine
 10
0.053087
 20
6.611303
 30
0.0
 11
0.053077
 21
6.188733
 31
0.0
  0
LINE
  5
377
100
AcDbEntity
  8
dxf1
 62
1
100
AcDbLine
 10
0.053077
 20
6.188733
 30
0.0
 11
0.053068
 21
5.766162
 31
0.0
  0
LINE
  5
378
100
AcDbEntity
  8
dxf1
 62
1
100
AcDbLine
 10
0.053068
 20
5.766162
 30
0.0
 11
0.053061
 21
5.343591
 31
0.0
  0
LINE
  5
379
100
AcDbEntity
  8
dxf1
 62
1
100
AcDbLine
 10
0.053061
 20
5.343591
 30
0.0
 11
0.053054
 21
4.921021
 31
0.0
  0
LINE
  5
37a
100
AcDbEntity
  8
dxf1
 62
1
100
AcDbLine
 10
0.053054
 20
4.921021
 30
0.0
 11
0.053048
 21
4.498451
 31
0.0
  0
LINE
  5
37b
100
AcDbEntity
  8
dxf1
 62
1
100
AcDbLine
 10
0.053048
 20
4.498451
 30
0.0
 11
0.053043
 21
4.075880
 31
0.0
  0
LINE
  5
37c
100
AcDbEntity
  8
dxf1
 62
1
100
AcDbLine
 10
0.053043
 20
4.075880
 30
0.0
 11
0.053039
 21
3.653310
 31
0.0
  0
LINE
  5
37d
100
AcDbEntity
  8
dxf1
 62
1
100
AcDbLine
 10
0.053039
 20
3.653310
 30
0.0
 11
0.053036
 21
3.230740
 31
0.0
  0
LINE
  5
37e
100
AcDbEntity
  8
dxf1
 62
1
100
AcDbLine
 10
0.053036
 20
3.230740
 30
0.0
 11
0.053035
 21
2.808170
 31
0.0
  0
LINE
  5
37f
100
AcDbEntity
  8
dxf1
 62
1
100
AcDbLine
 10
0.053035
 20
2.808170
 30
0.0
 11
0.053034
 21
2.385599
 31
0.0
  0
LINE
  5
380
100
AcDbEntity
  8
dxf1
 62
1
100
AcDbLine
 10
0.053034
 20
2.385599
 30
0.0
 11
0.053034
 21
2.385599
 31
0.0
  0
LINE
  5
381
100
AcDbEntity
  8
dxf1
 62
1
100
AcDbLine
 10
0.053034
 20
2.385599
 30
0.0
 11
0.053033
 21
2.385599
 31
0.0
  0
LINE
  5
382
100
AcDbEntity
  8
dxf1
 62
1
100
AcDbLine
 10
0.053033
 20
2.385599
 30
0.0
 11
0.053033
 21
2.385599
 31
0.0
  0
LINE
  5
383
100
AcDbEntity
  8
dxf1
 62
1
100
AcDbLine
 10
0.053033
 20
2.385599
 30
0.0
 11
0.053033
 21
2.385599
 31
0.0
  0
LINE
  5
384
100
AcDbEntity
  8
dxf1
 62
1
100
AcDbLine
 10
0.053033
 20
2.385599
 30
0.0
 11
0.053032
 21
2.385599
 31
0.0
  0
LINE
  5
385
100
AcDbEntity
  8
dxf1
 62
1
100
AcDbLine
 10
0.053032
 20
2.385599
 30
0.0
 11
0.053032
 21
2.385599
 31
0.0
  0
LINE
  5
386
100
AcDbEntity
  8
dxf1
 62
1
100
AcDbLine
 10
0.053032
 20
2.385599
 30
0.0
 11
0.053031
 21
2.385599
 31
0.0
  0
LINE
  5
387
100
AcDbEntity
  8
dxf1
 62
1
100
AcDbLine
 10
0.053031
 20
2.385599
 30
0.0
 11
0.053031
 21
2.385599
 31
0.0
  0
LINE
  5
388
100
AcDbEntity
  8
dxf1
 62
1
100
AcDbLine
 10
0.053031
 20
2.385599
 30
0.0
 11
0.053031
 21
2.385599
 31
0.0
  0
LINE
  5
389
100
AcDbEntity
  8
dxf1
 62
1
100
AcDbLine
 10
0.053031
 20
2.385599
 30
0.0
 11
0.053030
 21
2.385599
 31
0.0
  0
LINE
  5
38a
100
AcDbEntity
  8
dxf1
 62
1
100
AcDbLine
 10
0.053030
 20
2.385599
 30
0.0
 11
0.053030
 21
2.385599
 31
0.0
  0
LINE
  5
38b
100
AcDbEntity
  8
dxf1
 62
1
100
AcDbLine
 10
0.053030
 20
2.385599
 30
0.0
 11
0.053030
 21
2.385599
 31
0.0
  0
LINE
  5
38c
100
AcDbEntity
  8
dxf1
 62
1
100
AcDbLine
 10
0.053030
 20
2.385599
 30
0.0
 11
0.053029
 21
2.385599
 31
0.0
  0
LINE
  5
38d
100
AcDbEntity
  8
dxf1
 62
1
100
AcDbLine
 10
0.053029
 20
2.385599
 30
0.0
 11
0.053029
 21
2.385599
 31
0.0
  0
LINE
  5
38e
100
AcDbEntity
  8
dxf1
 62
1
100
AcDbLine
 10
0.053029
 20
2.385599
 30
0.0
 11
0.053028
 21
2.385599
 31
0.0
  0
LINE
  5
38f
100
AcDbEntity
  8
dxf1
 62
1
100
AcDbLine
 10
0.053028
 20
2.385599
 30
0.0
 11
0.053028
 21
2.385599
 31
0.0
  0
LINE
  5
390
100
AcDbEntity
  8
dxf1
 62
1
100
AcDbLine
 10
0.053028
 20
2.385599
 30
0.0
 11
0.053028
 21
2.385599
 31
0.0
  0
LINE
  5
391
100
AcDbEntity
  8
dxf1
 62
1
100
AcDbLine
 10
0.053028
 20
2.385599
 30
0.0
 11
0.053027
 21
2.385599
 31
0.0
  0
LINE
  5
392
100
AcDbEntity
  8
dxf1
 62
1
100
AcDbLine
 10
0.053027
 20
2.385599
 30
0.0
 11
0.053027
 21
2.385599
 31
0.0
  0
LINE
  5
393
100
AcDbEntity
  8
dxf1
 62
1
100
AcDbLine
 10
0.053027
 20
2.385599
 30
0.0
 11
0.053027
 21
2.385599
 31
0.0
  0
LINE
  5
394
100
AcDbEntity
  8
dxf1
 62
1
100
AcDbLine
 10
0.053027
 20
2.385599
 30
0.0
 11
0.053026
 21
2.385599
 31
0.0
  0
LINE
  5
395
100
AcDbEntity
  8
dxf1
 62
1
100
AcDbLine
 10
0.053026
 20
2.385599
 30
0.0
 11
0.053026
 21
2.385599
 31
0.0
  0
LINE
  5
396
100
AcDbEntity
  8
dxf1
 62
1
100
AcDbLine
 10
0.053026
 20
2.385599
 30
0.0
 11
0.053026
 21
2.385599
 31
0.0
  0
LINE
  5
397
100
AcDbEntity
  8
dxf1
 62
1
100
AcDbLine
 10
0.053026
 20
2.385599
 30
0.0
 11
0.053025
 21
2.385599
 31
0.0
  0
LINE
  5
398
100
AcDbEntity
  8
dxf1
 62
1
100
AcDbLine
 10
0.053025
 20
2.385599
 30
0.0
 11
0.053025
 21
2.385599
 31
0.0
  0
LINE
  5
399
100
AcDbEntity
  8
dxf1
 62
1
100
AcDbLine
 10
0.053025
 20
2.385599
 30
0.0
 11
0.053024
 21
2.385599
 31
0.0
  0
LINE
  5
39a
100
AcDbEntity
  8
dxf1
 62
1
100
AcDbLine
 10
0.053024
 20
2.385599
 30
0.0
 11
0.053024
 21
2.385599
 31
0.0
  0
LINE
  5
39b
100
AcDbEntity
  8
dxf1
 62
1
100
AcDbLine
 10
0.053024
 20
2.385599
 30
0.0
 11
0.053024
 21
2.385599
 31
0.0
  0
LINE
  5
39c
100
AcDbEntity
  8
dxf1
 62
1
100
AcDbLine
 10
0.053024
 20
2.385599
 30
0.0
 11
0.053023
 21
2.385599
 31
0.0
  0
LINE
  5
39d
100
AcDbEntity
  8
dxf1
 62
1
100
AcDbLine
 10
0.053023
 20
2.385599
 30
0.0
 11
0.053023
 21
2.385599
 31
0.0
  0
LINE
  5
39e
100
AcDbEntity
  8
dxf1
 62
1
100
AcDbLine
 10
0.053023
 20
2.385599
 30
0.0
 11
0.053023
 21
2.385599
 31
0.0
  0
LINE
  5
39f
100
AcDbEntity
  8
dxf1
 62
1
100
AcDbLine
 10
0.053023
 20
2.385599
 30
0.0
 11
0.053022
 21
2.385599
 31
0.0
  0
LINE
  5
3a0
100
AcDbEntity
  8
dxf1
 62
1
100
AcDbLine
 10
0.053022
 20
2.385599
 30
0.0
 11
0.053022
 21
2.385599
 31
0.0
  0
LINE
  5
3a1
100
AcDbEntity
  8
dxf1
 62
1
100
AcDbLine
 10
0.053022
 20
2.385599
 30
0.0
 11
0.053022
 21
2.385599
 31
0.0
  0
LINE
  5
3a2
100
AcDbEntity
  8
dxf1
 62
1
100
AcDbLine
 10
0.053022
 20
2.385599
 30
0.0
 11
0.053021
 21
2.385599
 31
0.0
  0
LINE
  5
3a3
100
AcDbEntity
  8
dxf1
 62
1
100
AcDbLine
 10
0.053021
 20
2.385599
 30
0.0
 11
0.053021
 21
2.385599
 31
0.0
  0
LINE
  5
3a4
100
AcDbEntity
  8
dxf1
 62
1
100
AcDbLine
 10
0.053021
 20
2.385599
 30
0.0
 11
0.053020
 21
2.385599
 31
0.0
  0
LINE
  5
3a5
100
AcDbEntity
  8
dxf1
 62
1
100
AcDbLine
 10
0.053020
 20
2.385599
 30
0.0
 11
0.053020
 21
2.385599
 31
0.0
  0
LINE
  5
3a6
100
AcDbEntity
  8
dxf1
 62
1
100
AcDbLine
 10
0.053020
 20
2.385599
 30
0.0
 11
0.053020
 21
2.385599
 31
0.0
  0
LINE
  5
3a7
100
AcDbEntity
  8
dxf1
 62
1
100
AcDbLine
 10
0.053020
 20
2.385599
 30
0.0
 11
0.053019
 21
2.385599
 31
0.0
  0
LINE
  5
3a8
100
AcDbEntity
  8
dxf1
 62
1
100
AcDbLine
 10
0.053019
 20
2.385599
 30
0.0
 11
0.053019
 21
2.385599
 31
0.0
  0
LINE
  5
3a9
100
AcDbEntity
  8
dxf1
 62
1
100
AcDbLine
 10
0.053019
 20
2.385599
 30
0.0
 11
0.053019
 21
2.385599
 31
0.0
  0
LINE
  5
3aa
100
AcDbEntity
  8
dxf1
 62
1
100
AcDbLine
 10
0.053019
 20
2.385599
 30
0.0
 11
0.053018
 21
2.385599
 31
0.0
  0
LINE
  5
3ab
100
AcDbEntity
  8
dxf1
 62
1
100
AcDbLine
 10
0.053018
 20
2.385599
 30
0.0
 11
0.053018
 21
2.385599
 31
0.0
  0
LINE
  5
3ac
100
AcDbEntity
  8
dxf1
 62
1
100
AcDbLine
 10
0.053018
 20
2.385599
 30
0.0
 11
0.053017
 21
2.385599
 31
0.0
  0
LINE
  5
3ad
100
AcDbEntity
  8
dxf1
 62
1
100
AcDbLine
 10
0.053017
 20
2.385599
 30
0.0
 11
0.053017
 21
2.385599
 31
0.0
  0
LINE
  5
3ae
100
AcDbEntity
  8
dxf1
 62
1
100
AcDbLine
 10
0.053017
 20
2.385599
 30
0.0
 11
0.053017
 21
2.385599
 31
0.0
  0
LINE
  5
3af
100
AcDbEntity
  8
dxf1
 62
1
100
AcDbLine
 10
0.053017
 20
2.385599
 30
0.0
 11
0.053016
 21
2.385599
 31
0.0
  0
LINE
  5
3b0
100
AcDbEntity
  8
dxf1
 62
1
100
AcDbLine
 10
0.053016
 20
2.385599
 30
0.0
 11
0.053016
 21
2.385599
 31
0.0
  0
LINE
  5
3b1
100
AcDbEntity
  8
dxf1
 62
1
100
AcDbLine
 10
0.053016
 20
2.385599
 30
0.0
 11
0.053016
 21
2.385599
 31
0.0
  0
LINE
  5
3b2
100
AcDbEntity
  8
dxf1
 62
1
100
AcDbLine
 10
0.053016
 20
2.385599
 30
0.0
 11
0.053015
 21
2.385599
 31
0.0
  0
LINE
  5
3b3
100
AcDbEntity
  8
dxf1
 62
1
100
AcDbLine
 10
0.053015
 20
2.385599
 30
0.0
 11
0.053015
 21
2.385599
 31
0.0
  0
LINE
  5
3b4
100
AcDbEntity
  8
dxf1
 62
1
100
AcDbLine
 10
0.053015
 20
2.385599
 30
0.0
 11
0.053015
 21
2.385599
 31
0.0
  0
LINE
  5
3b5
100
AcDbEntity
  8
dxf1
 62
1
100
AcDbLine
 10
0.053015
 20
2.385599
 30
0.0
 11
0.053014
 21
2.385599
 31
0.0
  0
LINE
  5
3b6
100
AcDbEntity
  8
dxf1
 62
1
100
AcDbLine
 10
0.053014
 20
2.385599
 30
0.0
 11
0.053014
 21
2.385599
 31
0.0
  0
LINE
  5
3b7
100
AcDbEntity
  8
dxf1
 62
1
100
AcDbLine
 10
0.053014
 20
2.385599
 30
0.0
 11
0.053013
 21
2.385599
 31
0.0
  0
LINE
  5
3b8
100
AcDbEntity
  8
dxf1
 62
1
100
AcDbLine
 10
0.053013
 20
2.385599
 30
0.0
 11
0.053013
 21
2.385599
 31
0.0
  0
LINE
  5
3b9
100
AcDbEntity
  8
dxf1
 62
1
100
AcDbLine
 10
0.053013
 20
2.385599
 30
0.0
 11
0.053013
 21
2.385599
 31
0.0
  0
LINE
  5
3ba
100
AcDbEntity
  8
dxf1
 62
1
100
AcDbLine
 10
0.053013
 20
2.385599
 30
0.0
 11
0.053012
 21
2.385599
 31
0.0
  0
LINE
  5
3bb
100
AcDbEntity
  8
dxf1
 62
1
100
AcDbLine
 10
0.053012
 20
2.385599
 30
0.0
 11
0.053012
 21
2.385599
 31
0.0
  0
LINE
  5
3bc
100
AcDbEntity
  8
dxf1
 62
1
100
AcDbLine
 10
0.053012
 20
2.385599
 30
0.0
 11
0.053012
 21
2.385599
 31
0.0
  0
LINE
  5
3bd
100
AcDbEntity
  8
dxf1
 62
1
100
AcDbLine
 10
0.053012
 20
2.385599
 30
0.0
 11
0.053011
 21
2.385599
 31
0.0
  0
LINE
  5
3be
100
AcDbEntity
  8
dxf1
 62
1
100
AcDbLine
 10
0.053011
 20
2.385599
 30
0.0
 11
0.053011
 21
2.385599
 31
0.0
  0
LINE
  5
3bf
100
AcDbEntity
  8
dxf1
 62
1
100
AcDbLine
 10
0.053011
 20
2.385599
 30
0.0
 11
0.053011
 21
2.385599
 31
0.0
  0
LINE
  5
3c0
100
AcDbEntity
  8
dxf1
 62
1
100
AcDbLine
 10
0.053011
 20
2.385599
 30
0.0
 11
0.053010
 21
2.385599
 31
0.0
  0
LINE
  5
3c1
100
AcDbEntity
  8
dxf1
 62
1
100
AcDbLine
 10
0.053010
 20
2.385599
 30
0.0
 11
0.053010
 21
2.385599
 31
0.0
  0
LINE
  5
3c2
100
AcDbEntity
  8
dxf1
 62
1
100
AcDbLine
 10
0.053010
 20
2.385599
 30
0.0
 11
0.053009
 21
2.385599
 31
0.0
  0
LINE
  5
3c3
100
AcDbEntity
  8
dxf1
 62
1
100
AcDbLine
 10
0.053009
 20
2.385599
 30
0.0
 11
0.053009
 21
2.385599
 31
0.0
  0
LINE
  5
3c4
100
AcDbEntity
  8
dxf1
 62
1
100
AcDbLine
 10
0.053009
 20
2.385599
 30
0.0
 11
0.053009
 21
2.385599
 31
0.0
  0
LINE
  5
3c5
100
AcDbEntity
  8
dxf1
 62
1
100
AcDbLine
 10
0.053009
 20
2.385599
 30
0.0
 11
0.053008
 21
2.385599
 31
0.0
  0
LINE
  5
3c6
100
AcDbEntity
  8
dxf1
 62
1
100
AcDbLine
 10
0.053008
 20
2.385599
 30
0.0
 11
0.053008
 21
2.385599
 31
0.0
  0
LINE
  5
3c7
100
AcDbEntity
  8
dxf1
 62
1
100
AcDbLine
 10
0.053008
 20
2.385599
 30
0.0
 11
0.053008
 21
2.385599
 31
0.0
  0
LINE
  5
3c8
100
AcDbEntity
  8
dxf1
 62
1
100
AcDbLine
 10
0.053008
 20
2.385599
 30
0.0
 11
0.053007
 21
2.385599
 31
0.0
  0
LINE
  5
3c9
100
AcDbEntity
  8
dxf1
 62
1
100
AcDbLine
 10
0.053007
 20
2.385599
 30
0.0
 11
0.053007
 21
2.385599
 31
0.0
  0
LINE
  5
3ca
100
AcDbEntity
  8
dxf1
 62
1
100
AcDbLine
 10
0.053007
 20
2.385599
 30
0.0
 11
0.053006
 21
2.385599
 31
0.0
  0
LINE
  5
3cb
100
AcDbEntity
  8
dxf1
 62
1
100
AcDbLine
 10
0.053006
 20
2.385599
 30
0.0
 11
0.053006
 21
2.385599
 31
0.0
  0
LINE
  5
3cc
100
AcDbEntity
  8
dxf1
 62
1
100
AcDbLine
 10
0.053006
 20
2.385599
 30
0.0
 11
0.053006
 21
2.385599
 31
0.0
  0
LINE
  5
3cd
100
AcDbEntity
  8
dxf1
 62
1
100
AcDbLine
 10
0.053006
 20
2.385599
 30
0.0
 11
0.053005
 21
2.385599
 31
0.0
  0
LINE
  5
3ce
100
AcDbEntity
  8
dxf1
 62
1
100
AcDbLine
 10
0.053005
 20
2.385599
 30
0.0
 11
0.053005
 21
2.385599
 31
0.0
  0
LINE
  5
3cf
100
AcDbEntity
  8
dxf1
 62
1
100
AcDbLine
 10
0.053005
 20
2.385599
 30
0.0
 11
0.053005
 21
2.385599
 31
0.0
  0
LINE
  5
3d0
100
AcDbEntity
  8
dxf1
 62
1
100
AcDbLine
 10
0.053005
 20
2.385599
 30
0.0
 11
0.053004
 21
2.385599
 31
0.0
  0
LINE
  5
3d1
100
AcDbEntity
  8
dxf1
 62
1
100
AcDbLine
 10
0.053004
 20
2.385599
 30
0.0
 11
0.053004
 21
2.385599
 31
0.0
  0
LINE
  5
3d2
100
AcDbEntity
  8
dxf1
 62
1
100
AcDbLine
 10
0.053004
 20
2.385599
 30
0.0
 11
0.053004
 21
2.385599
 31
0.0
  0
LINE
  5
3d3
100
AcDbEntity
  8
dxf1
 62
1
100
AcDbLine
 10
0.053004
 20
2.385599
 30
0.0
 11
0.053003
 21
2.385599
 31
0.0
  0
LINE
  5
3d4
100
AcDbEntity
  8
dxf1
 62
1
100
AcDbLine
 10
0.053003
 20
2.385599
 30
0.0
 11
0.053003
 21
2.385599
 31
0.0
  0
LINE
  5
3d5
100
AcDbEntity
  8
dxf1
 62
1
100
AcDbLine
 10
0.053003
 20
2.385599
 30
0.0
 11
0.053002
 21
2.385599
 31
0.0
  0
LINE
  5
3d6
100
AcDbEntity
  8
dxf1
 62
1
100
AcDbLine
 10
0.053002
 20
2.385599
 30
0.0
 11
0.053002
 21
2.385599
 31
0.0
  0
LINE
  5
3d7
100
AcDbEntity
  8
dxf1
 62
1
100
AcDbLine
 10
0.053002
 20
2.385599
 30
0.0
 11
0.053002
 21
2.385599
 31
0.0
  0
LINE
  5
3d8
100
AcDbEntity
  8
dxf1
 62
1
100
AcDbLine
 10
0.053002
 20
2.385599
 30
0.0
 11
0.053001
 21
2.385599
 31
0.0
  0
LINE
  5
3d9
100
AcDbEntity
  8
dxf1
 62
1
100
AcDbLine
 10
0.053001
 20
2.385599
 30
0.0
 11
0.053001
 21
2.385599
 31
0.0
  0
LINE
  5
3da
100
AcDbEntity
  8
dxf1
 62
1
100
AcDbLine
 10
0.053001
 20
2.385599
 30
0.0
 11
0.053001
 21
2.385599
 31
0.0
  0
LINE
  5
3db
100
AcDbEntity
  8
dxf1
 62
1
100
AcDbLine
 10
0.053001
 20
2.385599
 30
0.0
 11
0.053000
 21
2.385599
 31
0.0
  0
LINE
  5
3dc
100
AcDbEntity
  8
dxf1
 62
1
100
AcDbLine
 10
0.053000
 20
2.385599
 30
0.0
 11
0.053000
 21
2.385599
 31
0.0
  0
LINE
  5
3dd
100
AcDbEntity
  8
dxf1
 62
1
100
AcDbLine
 10
0.053000
 20
2.385599
 30
0.0
 11
0.052999
 21
2.385599
 31
0.0
  0
LINE
  5
3de
100
AcDbEntity
  8
dxf1
 62
1
100
AcDbLine
 10
0.052999
 20
2.385599
 30
0.0
 11
0.052999
 21
2.385599
 31
0.0
  0
LINE
  5
3df
100
AcDbEntity
  8
dxf1
 62
1
100
AcDbLine
 10
0.052999
 20
2.385599
 30
0.0
 11
0.052999
 21
2.385599
 31
0.0
  0
LINE
  5
3e0
100
AcDbEntity
  8
dxf1
 62
1
100
AcDbLine
 10
0.052999
 20
2.385599
 30
0.0
 11
0.052998
 21
2.385599
 31
0.0
  0
LINE
  5
3e1
100
AcDbEntity
  8
dxf1
 62
1
100
AcDbLine
 10
0.052998
 20
2.385599
 30
0.0
 11
0.052998
 21
2.385599
 31
0.0
  0
LINE
  5
3e2
100
AcDbEntity
  8
dxf1
 62
1
100
AcDbLine
 10
0.052998
 20
2.385599
 30
0.0
 11
0.052998
 21
2.385599
 31
0.0
  0
LINE
  5
3e3
100
AcDbEntity
  8
dxf1
 62
1
100
AcDbLine
 10
0.052998
 20
2.385599
 30
0.0
 11
0.052997
 21
2.385599
 31
0.0
  0
LINE
  5
3e4
100
AcDbEntity
  8
dxf1
 62
1
100
AcDbLine
 10
0.052997
 20
2.385599
 30
0.0
 11
0.052997
 21
2.385599
 31
0.0
  0
LINE
  5
3e5
100
AcDbEntity
  8
dxf1
 62
1
100
AcDbLine
 10
0.052997
 20
2.385599
 30
0.0
 11
0.052997
 21
2.385599
 31
0.0
  0
LINE
  5
3e6
100
AcDbEntity
  8
dxf1
 62
1
100
AcDbLine
 10
0.052997
 20
2.385599
 30
0.0
 11
0.052996
 21
2.385599
 31
0.0
  0
LINE
  5
3e7
100
AcDbEntity
  8
dxf1
 62
1
100
AcDbLine
 10
0.052996
 20
2.385599
 30
0.0
 11
0.052996
 21
2.385599
 31
0.0
  0
LINE
  5
3e8
100
AcDbEntity
  8
dxf1
 62
1
100
AcDbLine
 10
0.052996
 20
2.385599
 30
0.0
 11
0.052995
 21
2.385599
 31
0.0
  0
LINE
  5
3e9
100
AcDbEntity
  8
dxf1
 62
1
100
AcDbLine
 10
0.052995
 20
2.385599
 30
0.0
 11
0.052995
 21
2.385599
 31
0.0
  0
LINE
  5
3ea
100
AcDbEntity
  8
dxf1
 62
1
100
AcDbLine
 10
0.052995
 20
2.385599
 30
0.0
 11
0.052995
 21
2.385599
 31
0.0
  0
LINE
  5
3eb
100
AcDbEntity
  8
dxf1
 62
1
100
AcDbLine
 10
0.052995
 20
2.385599
 30
0.0
 11
0.052994
 21
2.385599
 31
0.0
  0
LINE
  5
3ec
100
AcDbEntity
  8
dxf1
 62
1
100
AcDbLine
 10
0.052994
 20
2.385599
 30
0.0
 11
0.052994
 21
2.385599
 31
0.0
  0
LINE
  5
3ed
100
AcDbEntity
  8
dxf1
 62
1
100
AcDbLine
 10
0.052994
 20
2.385599
 30
0.0
 11
0.052994
 21
2.385599
 31
0.0
  0
LINE
  5
3ee
100
AcDbEntity
  8
dxf1
 62
1
100
AcDbLine
 10
0.052994
 20
2.385599
 30
0.0
 11
0.052993
 21
2.385599
 31
0.0
  0
LINE
  5
3ef
100
AcDbEntity
  8
dxf1
 62
1
100
AcDbLine
 10
0.052993
 20
2.385599
 30
0.0
 11
0.052993
 21
2.385599
 31
0.0
  0
LINE
  5
3f0
100
AcDbEntity
  8
dxf1
 62
1
100
AcDbLine
 10
0.052993
 20
2.385599
 30
0.0
 11
0.052993
 21
2.385599
 31
0.0
  0
LINE
  5
3f1
100
AcDbEntity
  8
dxf1
 62
1
100
AcDbLine
 10
0.052993
 20
2.385599
 30
0.0
 11
0.052992
 21
2.385599
 31
0.0
  0
LINE
  5
3f2
100
AcDbEntity
  8
dxf1
 62
1
100
AcDbLine
 10
0.052992
 20
2.385599
 30
0.0
 11
0.052992
 21
2.385599
 31
0.0
  0
LINE
  5
3f3
100
AcDbEntity
  8
dxf1
 62
1
100
AcDbLine
 10
0.052992
 20
2.385599
 30
0.0
 11
0.052991
 21
2.385599
 31
0.0
  0
LINE
  5
3f4
100
AcDbEntity
  8
dxf1
 62
1
100
AcDbLine
 10
0.052991
 20
2.385599
 30
0.0
 11
0.052991
 21
2.385599
 31
0.0
  0
LINE
  5
3f5
100
AcDbEntity
  8
dxf1
 62
1
100
AcDbLine
 10
0.052991
 20
2.385599
 30
0.0
 11
0.052991
 21
2.385599
 31
0.0
  0
LINE
  5
3f6
100
AcDbEntity
  8
dxf1
 62
1
100
AcDbLine
 10
0.052991
 20
2.385599
 30
0.0
 11
0.052990
 21
2.385599
 31
0.0
  0
LINE
  5
3f7
100
AcDbEntity
  8
dxf1
 62
1
100
AcDbLine
 10
0.052990
 20
2.385599
 30
0.0
 11
0.052990
 21
2.385599
 31
0.0
  0
LINE
  5
3f8
100
AcDbEntity
  8
dxf1
 62
1
100
AcDbLine
 10
0.052990
 20
2.385599
 30
0.0
 11
0.052990
 21
2.385599
 31
0.0
  0
LINE
  5
3f9
100
AcDbEntity
  8
dxf1
 62
1
100
AcDbLine
 10
0.052990
 20
2.385599
 30
0.0
 11
0.052989
 21
2.385599
 31
0.0
  0
LINE
  5
3fa
100
AcDbEntity
  8
dxf1
 62
1
100
AcDbLine
 10
0.052989
 20
2.385599
 30
0.0
 11
0.052989
 21
2.385599
 31
0.0
  0
LINE
  5
3fb
100
AcDbEntity
  8
dxf1
 62
1
100
AcDbLine
 10
0.052989
 20
2.385599
 30
0.0
 11
0.052988
 21
2.385599
 31
0.0
  0
LINE
  5
3fc
100
AcDbEntity
  8
dxf1
 62
1
100
AcDbLine
 10
0.052988
 20
2.385599
 30
0.0
 11
0.052988
 21
2.385599
 31
0.0
  0
LINE
  5
3fd
100
AcDbEntity
  8
dxf1
 62
1
100
AcDbLine
 10
0.052988
 20
2.385599
 30
0.0
 11
0.052988
 21
2.385599
 31
0.0
  0
LINE
  5
3fe
100
AcDbEntity
  8
dxf1
 62
1
100
AcDbLine
 10
0.052988
 20
2.385599
 30
0.0
 11
0.052987
 21
2.385599
 31
0.0
  0
LINE
  5
3ff
100
AcDbEntity
  8
dxf1
 62
1
100
AcDbLine
 10
0.052987
 20
2.385599
 30
0.0
 11
0.053409
 21
2.385599
 31
0.0
  0
LINE
  5
400
100
AcDbEntity
  8
dxf1
 62
7
100
AcDbLine
 10
36.917919
 20
41.216767
 30
0.0
 11
49.686434
 21
41.216767
 31
0.0
  0
LINE
  5
401
100
AcDbEntity
  8
dxf1
 62
7
100
AcDbLine
 10
49.686434
 20
41.216767
 30
0.0
 11
57.045162
 21
14.026090
 31
0.0
  0
LINE
  5
402
100
AcDbEntity
  8
dxf1
 62
7
100
AcDbLine
 10
57.045162
 20
14.026090
 30
0.0
 11
64.285775
 21
41.240392
 31
0.0
  0
LINE
  5
403
100
AcDbEntity
  8
dxf1
 62
7
100
AcDbLine
 10
64.285775
 20
41.240392
 30
0.0
 11
76.936173
 21
41.252192
 31
0.0
  0
LINE
  5
404
100
AcDbEntity
  8
dxf1
 62
7
100
AcDbLine
 10
76.936173
 20
41.252192
 30
0.0
 11
63.895985
 21
0.761481
 31
0.0
  0
LINE
  5
405
100
AcDbEntity
  8
dxf1
 62
7
100
AcDbLine
 10
63.895985
 20
0.761481
 30
0.0
 11
49.816366
 21
0.761481
 31
0.0
  0
LINE
  5
406
100
AcDbEntity
  8
dxf1
 62
7
100
AcDbLine
 10
49.816366
 20
0.761481
 30
0.0
 11
36.917919
 21
41.216767
 31
0.0
  0
ENDSEC
  0
SECTION
  2
OBJECTS
  0
DICTIONARY
  5
C
330
0
100
AcDbDictionary
  3
ACAD_GROUP
350
D
  3
ACAD_MLINESTYLE
350
17
  0
DICTIONARY
  5
D
330
C
100
AcDbDictionary
  0
DICTIONARY
  5
1A
330
C
100
AcDbDictionary
  0
DICTIONARY
  5
17
330
C
100
AcDbDictionary
  3
STANDARD
350
18
  0
DICTIONARY
  5
19
330
C
100
AcDbDictionary
  0
ENDSEC
  0
EOF
