  0
SECTION
  2
HEADER
  9
$ACADVER
  1
AC1014
  9
$HANDSEED
  5
FFFF
  9
$MEASUREMENT
 70
     1
  0
ENDSEC
  0
SECTION
  2
TABLES
  0
TABLE
  2
VPORT
  5
8
330
0
100
AcDbSymbolTable
 70
     4
  0
VPORT
  5
2E
330
8
100
AcDbSymbolTableRecord
100
AcDbViewportTableRecord
  2
*ACTIVE
 70
     0
 10
0.0
 20
0.0
 11
1.0
 21
1.0
 12
210.0
 22
148.5
 13
0.0
 23
0.0
 14
10.0
 24
10.0
 15
10.0
 25
10.0
 16
0.0
 26
0.0
 36
1.0
 17
0.0
 27
0.0
 37
0.0
 40
341.0
 41
1.24
 42
50.0
 43
0.0
 44
0.0
 50
0.0
 51
0.0
 71
     0
 72
   100
 73
     1
 74
     3
 75
     0
 76
     0
 77
     0
 78
     0
  0
ENDTAB
  0
TABLE
  2
LTYPE
  5
5
330
0
100
AcDbSymbolTable
 70
     1
  0
LTYPE
  5
14
330
5
100
AcDbSymbolTableRecord
100
AcDbLinetypeTableRecord
  2
BYBLOCK
 70
     0
  3

 72
    65
 73
     0
 40
0.0
  0
LTYPE
  5
15
330
5
100
AcDbSymbolTableRecord
100
AcDbLinetypeTableRecord
  2
BYLAYER
 70
     0
  3

 72
    65
 73
     0
 40
0.0
  0
LTYPE
  5
16
330
5
100
AcDbSymbolTableRecord
100
AcDbLinetypeTableRecord
  2
CONTINUOUS
 70
     0
  3
Solid line
 72
    65
 73
     0
 40
0.0
  0
ENDTAB
  0
TABLE
  2
LAYER
  5
2
100
AcDbSymbolTable
 70
5
  0
LAYER
  5
50
100
AcDbSymbolTableRecord
100
AcDbLayerTableRecord
  2
0
 70
0
  6
CONTINUOUS
  0
LAYER
  5
51
100
AcDbSymbolTableRecord
100
AcDbLayerTableRecord
  2
Ebene_1
 70
0
  6
CONTINUOUS
  0
LAYER
  5
52
100
AcDbSymbolTableRecord
100
AcDbLayerTableRecord
  2
dxf2
 70
0
  6
CONTINUOUS
  0
LAYER
  5
53
100
AcDbSymbolTableRecord
100
AcDbLayerTableRecord
  2
dxf1
 70
0
  6
CONTINUOUS
  0
LAYER
  5
54
100
AcDbSymbolTableRecord
100
AcDbLayerTableRecord
  2
vector
 70
0
  6
CONTINUOUS
  0
ENDTAB
  0
TABLE
  2
STYLE
  5
3
330
0
100
AcDbSymbolTable
 70
     1
  0
STYLE
  5
11
330
3
100
AcDbSymbolTableRecord
100
AcDbTextStyleTableRecord
  2
STANDARD
 70
     0
 40
0.0
 41
1.0
 50
0.0
 71
     0
 42
2.5
  3
txt
  4

  0
ENDTAB
  0
TABLE
  2
VIEW
  5
6
330
0
100
AcDbSymbolTable
 70
     0
  0
ENDTAB
  0
TABLE
  2
UCS
  5
7
330
0
100
AcDbSymbolTable
 70
     0
  0
ENDTAB
  0
TABLE
  2
APPID
  5
9
330
0
100
AcDbSymbolTable
 70
     2
  0
APPID
  5
12
330
9
100
AcDbSymbolTableRecord
100
AcDbRegAppTableRecord
  2
ACAD
 70
     0
  0
ENDTAB
  0
TABLE
  2
DIMSTYLE
  5
A
330
0
100
AcDbSymbolTable
 70
     1
  0
DIMSTYLE
105
27
330
A
100
AcDbSymbolTableRecord
100
AcDbDimStyleTableRecord
  2
ISO-25
 70
     0
  3

  4

  5

  6

  7

 40
1.0
 41
2.5
 42
0.625
 43
3.75
 44
1.25
 45
0.0
 46
0.0
 47
0.0
 48
0.0
140
2.5
141
2.5
142
0.0
143
0.03937007874016
144
1.0
145
0.0
146
1.0
147
0.625
 71
     0
 72
     0
 73
     0
 74
     0
 75
     0
 76
     0
 77
     1
 78
     8
170
     0
171
     3
172
     1
173
     0
174
     0
175
     0
176
     0
177
     0
178
     0
270
     2
271
     2
272
     2
273
     2
274
     3
340
11
275
     0
280
     0
281
     0
282
     0
283
     0
284
     8
285
     0
286
     0
287
     3
288
     0
  0
ENDTAB
  0
TABLE
  2
BLOCK_RECORD
  5
1
330
0
100
AcDbSymbolTable
 70
     1
  0
BLOCK_RECORD
  5
1F
330
1
100
AcDbSymbolTableRecord
100
AcDbBlockTableRecord
  2
*MODEL_SPACE
  0
BLOCK_RECORD
  5
1B
330
1
100
AcDbSymbolTableRecord
100
AcDbBlockTableRecord
  2
*PAPER_SPACE
  0
ENDTAB
  0
ENDSEC
  0
SECTION
  2
BLOCKS
  0
BLOCK
  5
20
330
1F
100
AcDbEntity
  8
0
100
AcDbBlockBegin
  2
*MODEL_SPACE
 70
     0
 10
0.0
 20
0.0
 30
0.0
  3
*MODEL_SPACE
  1

  0
ENDBLK
  5
21
330
1F
100
AcDbEntity
  8
0
100
AcDbBlockEnd
  0
BLOCK
  5
1C
330
1B
100
AcDbEntity
 67
     1
  8
0
100
AcDbBlockBegin
  2
*PAPER_SPACE
  1

  0
ENDBLK
  5
1D
330
1B
100
AcDbEntity
 67
     1
  8
0
100
AcDbBlockEnd
  0
ENDSEC
  0
SECTION
  2
ENTITIES
  0
LINE
  5
100
100
AcDbEntity
  8
dxf2
 62
1
100
AcDbLine
 10
12.113219
 20
30.007406
 30
0.0
 11
12.113219
 21
29.858190
 31
0.0
  0
LINE
  5
101
100
AcDbEntity
  8
dxf2
 62
1
100
AcDbLine
 10
12.113219
 20
29.858190
 30
0.0
 11
12.113219
 21
29.708975
 31
0.0
  0
LINE
  5
102
100
AcDbEntity
  8
dxf2
 62
1
100
AcDbLine
 10
12.113219
 20
29.708975
 30
0.0
 11
12.113219
 21
29.559759
 31
0.0
  0
LINE
  5
103
100
AcDbEntity
  8
dxf2
 62
1
100
AcDbLine
 10
12.113219
 20
29.559759
 30
0.0
 11
12.113219
 21
29.410543
 31
0.0
  0
LINE
  5
104
100
AcDbEntity
  8
dxf2
 62
1
100
AcDbLine
 10
12.113219
 20
29.410543
 30
0.0
 11
12.113219
 21
29.261327
 31
0.0
  0
LINE
  5
105
100
AcDbEntity
  8
dxf2
 62
1
100
AcDbLine
 10
12.113219
 20
29.261327
 30
0.0
 11
12.113219
 21
29.112111
 31
0.0
  0
LINE
  5
106
100
AcDbEntity
  8
dxf2
 62
1
100
AcDbLine
 10
12.113219
 20
29.112111
 30
0.0
 11
12.113219
 21
28.962895
 31
0.0
  0
LINE
  5
107
100
AcDbEntity
  8
dxf2
 62
1
100
AcDbLine
 10
12.113219
 20
28.962895
 30
0.0
 11
12.113219
 21
28.813679
 31
0.0
  0
LINE
  5
108
100
AcDbEntity
  8
dxf2
 62
1
100
AcDbLine
 10
12.113219
 20
28.813679
 30
0.0
 11
12.113219
 21
28.664464
 31
0.0
  0
LINE
  5
109
100
AcDbEntity
  8
dxf2
 62
1
100
AcDbLine
 10
12.113219
 20
28.664464
 30
0.0
 11
12.113219
 21
28.515248
 31
0.0
  0
LINE
  5
10a
100
AcDbEntity
  8
dxf2
 62
1
100
AcDbLine
 10
12.113219
 20
28.515248
 30
0.0
 11
12.113219
 21
28.366032
 31
0.0
  0
LINE
  5
10b
100
AcDbEntity
  8
dxf2
 62
1
100
AcDbLine
 10
12.113219
 20
28.366032
 30
0.0
 11
12.113219
 21
28.216817
 31
0.0
  0
LINE
  5
10c
100
AcDbEntity
  8
dxf2
 62
1
100
AcDbLine
 10
12.113219
 20
28.216817
 30
0.0
 11
12.113219
 21
28.067601
 31
0.0
  0
LINE
  5
10d
100
AcDbEntity
  8
dxf2
 62
1
100
AcDbLine
 10
12.113219
 20
28.067601
 30
0.0
 11
12.113219
 21
27.918385
 31
0.0
  0
LINE
  5
10e
100
AcDbEntity
  8
dxf2
 62
1
100
AcDbLine
 10
12.113219
 20
27.918385
 30
0.0
 11
12.113219
 21
27.769169
 31
0.0
  0
LINE
  5
10f
100
AcDbEntity
  8
dxf2
 62
1
100
AcDbLine
 10
12.113219
 20
27.769169
 30
0.0
 11
12.113219
 21
27.619954
 31
0.0
  0
LINE
  5
110
100
AcDbEntity
  8
dxf2
 62
1
100
AcDbLine
 10
12.113219
 20
27.619954
 30
0.0
 11
12.113219
 21
27.470738
 31
0.0
  0
LINE
  5
111
100
AcDbEntity
  8
dxf2
 62
1
100
AcDbLine
 10
12.113219
 20
27.470738
 30
0.0
 11
12.113219
 21
27.321521
 31
0.0
  0
LINE
  5
112
100
AcDbEntity
  8
dxf2
 62
1
100
AcDbLine
 10
12.113219
 20
27.321521
 30
0.0
 11
12.113219
 21
27.172306
 31
0.0
  0
LINE
  5
113
100
AcDbEntity
  8
dxf2
 62
1
100
AcDbLine
 10
12.113219
 20
27.172306
 30
0.0
 11
12.113219
 21
27.023090
 31
0.0
  0
LINE
  5
114
100
AcDbEntity
  8
dxf2
 62
1
100
AcDbLine
 10
12.113219
 20
27.023090
 30
0.0
 11
12.113219
 21
26.873874
 31
0.0
  0
LINE
  5
115
100
AcDbEntity
  8
dxf2
 62
1
100
AcDbLine
 10
12.113219
 20
26.873874
 30
0.0
 11
12.113219
 21
26.724659
 31
0.0
  0
LINE
  5
116
100
AcDbEntity
  8
dxf2
 62
1
100
AcDbLine
 10
12.113219
 20
26.724659
 30
0.0
 11
12.113219
 21
26.575443
 31
0.0
  0
LINE
  5
117
100
AcDbEntity
  8
dxf2
 62
1
100
AcDbLine
 10
12.113219
 20
26.575443
 30
0.0
 11
12.113219
 21
26.426227
 31
0.0
  0
LINE
  5
118
100
AcDbEntity
  8
dxf2
 62
1
100
AcDbLine
 10
12.113219
 20
26.426227
 30
0.0
 11
12.113219
 21
26.277011
 31
0.0
  0
LINE
  5
119
100
AcDbEntity
  8
dxf2
 62
1
100
AcDbLine
 10
12.113219
 20
26.277011
 30
0.0
 11
12.113219
 21
26.127796
 31
0.0
  0
LINE
  5
11a
100
AcDbEntity
  8
dxf2
 62
1
100
AcDbLine
 10
12.113219
 20
26.127796
 30
0.0
 11
12.113219
 21
25.978580
 31
0.0
  0
LINE
  5
11b
100
AcDbEntity
  8
dxf2
 62
1
100
AcDbLine
 10
12.113219
 20
25.978580
 30
0.0
 11
12.113219
 21
25.829364
 31
0.0
  0
LINE
  5
11c
100
AcDbEntity
  8
dxf2
 62
1
100
AcDbLine
 10
12.113219
 20
25.829364
 30
0.0
 11
12.113219
 21
25.680149
 31
0.0
  0
LINE
  5
11d
100
AcDbEntity
  8
dxf2
 62
1
100
AcDbLine
 10
12.113219
 20
25.680149
 30
0.0
 11
12.113219
 21
25.530932
 31
0.0
  0
LINE
  5
11e
100
AcDbEntity
  8
dxf2
 62
1
100
AcDbLine
 10
12.113219
 20
25.530932
 30
0.0
 11
12.113219
 21
25.381716
 31
0.0
  0
LINE
  5
11f
100
AcDbEntity
  8
dxf2
 62
1
100
AcDbLine
 10
12.113219
 20
25.381716
 30
0.0
 11
12.113219
 21
25.232501
 31
0.0
  0
LINE
  5
120
100
AcDbEntity
  8
dxf2
 62
1
100
AcDbLine
 10
12.113219
 20
25.232501
 30
0.0
 11
12.113219
 21
25.083285
 31
0.0
  0
LINE
  5
121
100
AcDbEntity
  8
dxf2
 62
1
100
AcDbLine
 10
12.113219
 20
25.083285
 30
0.0
 11
12.113219
 21
24.934069
 31
0.0
  0
LINE
  5
122
100
AcDbEntity
  8
dxf2
 62
1
100
AcDbLine
 10
12.113219
 20
24.934069
 30
0.0
 11
12.113219
 21
24.784853
 31
0.0
  0
LINE
  5
123
100
AcDbEntity
  8
dxf2
 62
1
100
AcDbLine
 10
12.113219
 20
24.784853
 30
0.0
 11
12.113219
 21
24.635638
 31
0.0
  0
LINE
  5
124
100
AcDbEntity
  8
dxf2
 62
1
100
AcDbLine
 10
12.113219
 20
24.635638
 30
0.0
 11
12.113219
 21
24.486422
 31
0.0
  0
LINE
  5
125
100
AcDbEntity
  8
dxf2
 62
1
100
AcDbLine
 10
12.113219
 20
24.486422
 30
0.0
 11
12.113219
 21
24.337206
 31
0.0
  0
LINE
  5
126
100
AcDbEntity
  8
dxf2
 62
1
100
AcDbLine
 10
12.113219
 20
24.337206
 30
0.0
 11
12.113219
 21
24.187991
 31
0.0
  0
LINE
  5
127
100
AcDbEntity
  8
dxf2
 62
1
100
AcDbLine
 10
12.113219
 20
24.187991
 30
0.0
 11
12.113219
 21
24.038775
 31
0.0
  0
LINE
  5
128
100
AcDbEntity
  8
dxf2
 62
1
100
AcDbLine
 10
12.113219
 20
24.038775
 30
0.0
 11
12.113219
 21
23.889559
 31
0.0
  0
LINE
  5
129
100
AcDbEntity
  8
dxf2
 62
1
100
AcDbLine
 10
12.113219
 20
23.889559
 30
0.0
 11
12.113219
 21
23.740342
 31
0.0
  0
LINE
  5
12a
100
AcDbEntity
  8
dxf2
 62
1
100
AcDbLine
 10
12.113219
 20
23.740342
 30
0.0
 11
12.113219
 21
23.591127
 31
0.0
  0
LINE
  5
12b
100
AcDbEntity
  8
dxf2
 62
1
100
AcDbLine
 10
12.113219
 20
23.591127
 30
0.0
 11
12.113219
 21
23.441911
 31
0.0
  0
LINE
  5
12c
100
AcDbEntity
  8
dxf2
 62
1
100
AcDbLine
 10
12.113219
 20
23.441911
 30
0.0
 11
12.113219
 21
23.292695
 31
0.0
  0
LINE
  5
12d
100
AcDbEntity
  8
dxf2
 62
1
100
AcDbLine
 10
12.113219
 20
23.292695
 30
0.0
 11
12.113219
 21
23.143480
 31
0.0
  0
LINE
  5
12e
100
AcDbEntity
  8
dxf2
 62
1
100
AcDbLine
 10
12.113219
 20
23.143480
 30
0.0
 11
12.113219
 21
22.994264
 31
0.0
  0
LINE
  5
12f
100
AcDbEntity
  8
dxf2
 62
1
100
AcDbLine
 10
12.113219
 20
22.994264
 30
0.0
 11
12.113219
 21
22.845048
 31
0.0
  0
LINE
  5
130
100
AcDbEntity
  8
dxf2
 62
1
100
AcDbLine
 10
12.113219
 20
22.845048
 30
0.0
 11
12.113219
 21
22.695833
 31
0.0
  0
LINE
  5
131
100
AcDbEntity
  8
dxf2
 62
1
100
AcDbLine
 10
12.113219
 20
22.695833
 30
0.0
 11
12.113219
 21
22.546617
 31
0.0
  0
LINE
  5
132
100
AcDbEntity
  8
dxf2
 62
1
100
AcDbLine
 10
12.113219
 20
22.546617
 30
0.0
 11
12.113219
 21
22.397401
 31
0.0
  0
LINE
  5
133
100
AcDbEntity
  8
dxf2
 62
1
100
AcDbLine
 10
12.113219
 20
22.397401
 30
0.0
 11
12.113219
 21
22.248185
 31
0.0
  0
LINE
  5
134
100
AcDbEntity
  8
dxf2
 62
1
100
AcDbLine
 10
12.113219
 20
22.248185
 30
0.0
 11
12.113219
 21
22.098970
 31
0.0
  0
LINE
  5
135
100
AcDbEntity
  8
dxf2
 62
1
100
AcDbLine
 10
12.113219
 20
22.098970
 30
0.0
 11
12.113219
 21
21.949753
 31
0.0
  0
LINE
  5
136
100
AcDbEntity
  8
dxf2
 62
1
100
AcDbLine
 10
12.113219
 20
21.949753
 30
0.0
 11
12.113219
 21
21.800537
 31
0.0
  0
LINE
  5
137
100
AcDbEntity
  8
dxf2
 62
1
100
AcDbLine
 10
12.113219
 20
21.800537
 30
0.0
 11
12.113219
 21
21.651322
 31
0.0
  0
LINE
  5
138
100
AcDbEntity
  8
dxf2
 62
1
100
AcDbLine
 10
12.113219
 20
21.651322
 30
0.0
 11
12.113219
 21
21.502106
 31
0.0
  0
LINE
  5
139
100
AcDbEntity
  8
dxf2
 62
1
100
AcDbLine
 10
12.113219
 20
21.502106
 30
0.0
 11
12.113219
 21
21.352890
 31
0.0
  0
LINE
  5
13a
100
AcDbEntity
  8
dxf2
 62
1
100
AcDbLine
 10
12.113219
 20
21.352890
 30
0.0
 11
12.113219
 21
21.203675
 31
0.0
  0
LINE
  5
13b
100
AcDbEntity
  8
dxf2
 62
1
100
AcDbLine
 10
12.113219
 20
21.203675
 30
0.0
 11
12.113219
 21
21.054459
 31
0.0
  0
LINE
  5
13c
100
AcDbEntity
  8
dxf2
 62
1
100
AcDbLine
 10
12.113219
 20
21.054459
 30
0.0
 11
12.113219
 21
20.905243
 31
0.0
  0
LINE
  5
13d
100
AcDbEntity
  8
dxf2
 62
1
100
AcDbLine
 10
12.113219
 20
20.905243
 30
0.0
 11
12.113219
 21
20.756027
 31
0.0
  0
LINE
  5
13e
100
AcDbEntity
  8
dxf2
 62
1
100
AcDbLine
 10
12.113219
 20
20.756027
 30
0.0
 11
12.113219
 21
20.606812
 31
0.0
  0
LINE
  5
13f
100
AcDbEntity
  8
dxf2
 62
1
100
AcDbLine
 10
12.113219
 20
20.606812
 30
0.0
 11
12.113219
 21
20.457596
 31
0.0
  0
LINE
  5
140
100
AcDbEntity
  8
dxf2
 62
1
100
AcDbLine
 10
12.113219
 20
20.457596
 30
0.0
 11
12.113219
 21
20.308379
 31
0.0
  0
LINE
  5
141
100
AcDbEntity
  8
dxf2
 62
1
100
AcDbLine
 10
12.113219
 20
20.308379
 30
0.0
 11
12.113219
 21
20.159164
 31
0.0
  0
LINE
  5
142
100
AcDbEntity
  8
dxf2
 62
1
100
AcDbLine
 10
12.113219
 20
20.159164
 30
0.0
 11
12.113219
 21
20.009948
 31
0.0
  0
LINE
  5
143
100
AcDbEntity
  8
dxf2
 62
1
100
AcDbLine
 10
12.113219
 20
20.009948
 30
0.0
 11
12.113219
 21
19.860732
 31
0.0
  0
LINE
  5
144
100
AcDbEntity
  8
dxf2
 62
1
100
AcDbLine
 10
12.113219
 20
19.860732
 30
0.0
 11
12.113219
 21
19.711516
 31
0.0
  0
LINE
  5
145
100
AcDbEntity
  8
dxf2
 62
1
100
AcDbLine
 10
12.113219
 20
19.711516
 30
0.0
 11
12.113219
 21
19.562301
 31
0.0
  0
LINE
  5
146
100
AcDbEntity
  8
dxf2
 62
1
100
AcDbLine
 10
12.113219
 20
19.562301
 30
0.0
 11
12.113219
 21
19.413085
 31
0.0
  0
LINE
  5
147
100
AcDbEntity
  8
dxf2
 62
1
100
AcDbLine
 10
12.113219
 20
19.413085
 30
0.0
 11
12.113219
 21
19.263869
 31
0.0
  0
LINE
  5
148
100
AcDbEntity
  8
dxf2
 62
1
100
AcDbLine
 10
12.113219
 20
19.263869
 30
0.0
 11
12.113219
 21
19.114654
 31
0.0
  0
LINE
  5
149
100
AcDbEntity
  8
dxf2
 62
1
100
AcDbLine
 10
12.113219
 20
19.114654
 30
0.0
 11
12.113219
 21
18.965438
 31
0.0
  0
LINE
  5
14a
100
AcDbEntity
  8
dxf2
 62
1
100
AcDbLine
 10
12.113219
 20
18.965438
 30
0.0
 11
12.113219
 21
18.816222
 31
0.0
  0
LINE
  5
14b
100
AcDbEntity
  8
dxf2
 62
1
100
AcDbLine
 10
12.113219
 20
18.816222
 30
0.0
 11
12.113219
 21
18.667007
 31
0.0
  0
LINE
  5
14c
100
AcDbEntity
  8
dxf2
 62
1
100
AcDbLine
 10
12.113219
 20
18.667007
 30
0.0
 11
12.113219
 21
18.517790
 31
0.0
  0
LINE
  5
14d
100
AcDbEntity
  8
dxf2
 62
1
100
AcDbLine
 10
12.113219
 20
18.517790
 30
0.0
 11
12.113219
 21
18.368574
 31
0.0
  0
LINE
  5
14e
100
AcDbEntity
  8
dxf2
 62
1
100
AcDbLine
 10
12.113219
 20
18.368574
 30
0.0
 11
12.113219
 21
18.219358
 31
0.0
  0
LINE
  5
14f
100
AcDbEntity
  8
dxf2
 62
1
100
AcDbLine
 10
12.113219
 20
18.219358
 30
0.0
 11
12.113219
 21
18.070143
 31
0.0
  0
LINE
  5
150
100
AcDbEntity
  8
dxf2
 62
1
100
AcDbLine
 10
12.113219
 20
18.070143
 30
0.0
 11
12.113219
 21
17.920927
 31
0.0
  0
LINE
  5
151
100
AcDbEntity
  8
dxf2
 62
1
100
AcDbLine
 10
12.113219
 20
17.920927
 30
0.0
 11
12.113219
 21
17.771711
 31
0.0
  0
LINE
  5
152
100
AcDbEntity
  8
dxf2
 62
1
100
AcDbLine
 10
12.113219
 20
17.771711
 30
0.0
 11
12.113219
 21
17.622496
 31
0.0
  0
LINE
  5
153
100
AcDbEntity
  8
dxf2
 62
1
100
AcDbLine
 10
12.113219
 20
17.622496
 30
0.0
 11
12.113219
 21
17.473280
 31
0.0
  0
LINE
  5
154
100
AcDbEntity
  8
dxf2
 62
1
100
AcDbLine
 10
12.113219
 20
17.473280
 30
0.0
 11
12.113219
 21
17.324064
 31
0.0
  0
LINE
  5
155
100
AcDbEntity
  8
dxf2
 62
1
100
AcDbLine
 10
12.113219
 20
17.324064
 30
0.0
 11
12.113219
 21
17.174849
 31
0.0
  0
LINE
  5
156
100
AcDbEntity
  8
dxf2
 62
1
100
AcDbLine
 10
12.113219
 20
17.174849
 30
0.0
 11
12.113219
 21
17.025633
 31
0.0
  0
LINE
  5
157
100
AcDbEntity
  8
dxf2
 62
1
100
AcDbLine
 10
12.113219
 20
17.025633
 30
0.0
 11
12.113219
 21
16.876417
 31
0.0
  0
LINE
  5
158
100
AcDbEntity
  8
dxf2
 62
1
100
AcDbLine
 10
12.113219
 20
16.876417
 30
0.0
 11
12.113219
 21
16.727200
 31
0.0
  0
LINE
  5
159
100
AcDbEntity
  8
dxf2
 62
1
100
AcDbLine
 10
12.113219
 20
16.727200
 30
0.0
 11
12.113219
 21
16.577985
 31
0.0
  0
LINE
  5
15a
100
AcDbEntity
  8
dxf2
 62
1
100
AcDbLine
 10
12.113219
 20
16.577985
 30
0.0
 11
12.113219
 21
16.428769
 31
0.0
  0
LINE
  5
15b
100
AcDbEntity
  8
dxf2
 62
1
100
AcDbLine
 10
12.113219
 20
16.428769
 30
0.0
 11
12.113219
 21
16.279553
 31
0.0
  0
LINE
  5
15c
100
AcDbEntity
  8
dxf2
 62
1
100
AcDbLine
 10
12.113219
 20
16.279553
 30
0.0
 11
12.113219
 21
16.130338
 31
0.0
  0
LINE
  5
15d
100
AcDbEntity
  8
dxf2
 62
1
100
AcDbLine
 10
12.113219
 20
16.130338
 30
0.0
 11
12.113219
 21
15.981122
 31
0.0
  0
LINE
  5
15e
100
AcDbEntity
  8
dxf2
 62
1
100
AcDbLine
 10
12.113219
 20
15.981122
 30
0.0
 11
12.113219
 21
15.831906
 31
0.0
  0
LINE
  5
15f
100
AcDbEntity
  8
dxf2
 62
1
100
AcDbLine
 10
12.113219
 20
15.831906
 30
0.0
 11
12.113219
 21
15.682690
 31
0.0
  0
LINE
  5
160
100
AcDbEntity
  8
dxf2
 62
1
100
AcDbLine
 10
12.113219
 20
15.682690
 30
0.0
 11
12.113219
 21
15.533475
 31
0.0
  0
LINE
  5
161
100
AcDbEntity
  8
dxf2
 62
1
100
AcDbLine
 10
12.113219
 20
15.533475
 30
0.0
 11
12.113219
 21
15.384259
 31
0.0
  0
LINE
  5
162
100
AcDbEntity
  8
dxf2
 62
1
100
AcDbLine
 10
12.113219
 20
15.384259
 30
0.0
 11
12.113219
 21
15.235043
 31
0.0
  0
LINE
  5
163
100
AcDbEntity
  8
dxf2
 62
1
100
AcDbLine
 10
12.113219
 20
15.235043
 30
0.0
 11
12.113219
 21
15.085828
 31
0.0
  0
LINE
  5
164
100
AcDbEntity
  8
dxf2
 62
1
100
AcDbLine
 10
12.113219
 20
15.085828
 30
0.0
 11
12.113219
 21
14.936611
 31
0.0
  0
LINE
  5
165
100
AcDbEntity
  8
dxf2
 62
1
100
AcDbLine
 10
12.113219
 20
14.936611
 30
0.0
 11
12.113219
 21
14.787395
 31
0.0
  0
LINE
  5
166
100
AcDbEntity
  8
dxf2
 62
1
100
AcDbLine
 10
12.113219
 20
14.787395
 30
0.0
 11
12.113219
 21
14.638180
 31
0.0
  0
LINE
  5
167
100
AcDbEntity
  8
dxf2
 62
1
100
AcDbLine
 10
12.113219
 20
14.638180
 30
0.0
 11
12.113219
 21
14.488964
 31
0.0
  0
LINE
  5
168
100
AcDbEntity
  8
dxf2
 62
1
100
AcDbLine
 10
12.113219
 20
14.488964
 30
0.0
 11
12.113219
 21
14.339748
 31
0.0
  0
LINE
  5
169
100
AcDbEntity
  8
dxf2
 62
1
100
AcDbLine
 10
12.113219
 20
14.339748
 30
0.0
 11
12.113219
 21
14.190532
 31
0.0
  0
LINE
  5
16a
100
AcDbEntity
  8
dxf2
 62
1
100
AcDbLine
 10
12.113219
 20
14.190532
 30
0.0
 11
12.113219
 21
14.041317
 31
0.0
  0
LINE
  5
16b
100
AcDbEntity
  8
dxf2
 62
1
100
AcDbLine
 10
12.113219
 20
14.041317
 30
0.0
 11
12.113219
 21
13.892101
 31
0.0
  0
LINE
  5
16c
100
AcDbEntity
  8
dxf2
 62
1
100
AcDbLine
 10
12.113219
 20
13.892101
 30
0.0
 11
12.113219
 21
13.742885
 31
0.0
  0
LINE
  5
16d
100
AcDbEntity
  8
dxf2
 62
1
100
AcDbLine
 10
12.113219
 20
13.742885
 30
0.0
 11
12.113219
 21
13.593670
 31
0.0
  0
LINE
  5
16e
100
AcDbEntity
  8
dxf2
 62
1
100
AcDbLine
 10
12.113219
 20
13.593670
 30
0.0
 11
12.113219
 21
13.444454
 31
0.0
  0
LINE
  5
16f
100
AcDbEntity
  8
dxf2
 62
1
100
AcDbLine
 10
12.113219
 20
13.444454
 30
0.0
 11
12.113219
 21
13.295238
 31
0.0
  0
LINE
  5
170
100
AcDbEntity
  8
dxf2
 62
1
100
AcDbLine
 10
12.113219
 20
13.295238
 30
0.0
 11
12.113219
 21
13.146022
 31
0.0
  0
LINE
  5
171
100
AcDbEntity
  8
dxf2
 62
1
100
AcDbLine
 10
12.113219
 20
13.146022
 30
0.0
 11
12.113219
 21
12.996806
 31
0.0
  0
LINE
  5
172
100
AcDbEntity
  8
dxf2
 62
1
100
AcDbLine
 10
12.113219
 20
12.996806
 30
0.0
 11
12.113219
 21
12.847590
 31
0.0
  0
LINE
  5
173
100
AcDbEntity
  8
dxf2
 62
1
100
AcDbLine
 10
12.113219
 20
12.847590
 30
0.0
 11
12.113219
 21
12.698374
 31
0.0
  0
LINE
  5
174
100
AcDbEntity
  8
dxf2
 62
1
100
AcDbLine
 10
12.113219
 20
12.698374
 30
0.0
 11
12.113219
 21
12.549159
 31
0.0
  0
LINE
  5
175
100
AcDbEntity
  8
dxf2
 62
1
100
AcDbLine
 10
12.113219
 20
12.549159
 30
0.0
 11
12.113219
 21
12.399943
 31
0.0
  0
LINE
  5
176
100
AcDbEntity
  8
dxf2
 62
1
100
AcDbLine
 10
12.113219
 20
12.399943
 30
0.0
 11
12.113219
 21
12.250727
 31
0.0
  0
LINE
  5
177
100
AcDbEntity
  8
dxf2
 62
1
100
AcDbLine
 10
12.113219
 20
12.250727
 30
0.0
 11
12.113219
 21
12.101512
 31
0.0
  0
LINE
  5
178
100
AcDbEntity
  8
dxf2
 62
1
100
AcDbLine
 10
12.113219
 20
12.101512
 30
0.0
 11
12.113219
 21
11.952296
 31
0.0
  0
LINE
  5
179
100
AcDbEntity
  8
dxf2
 62
1
100
AcDbLine
 10
12.113219
 20
11.952296
 30
0.0
 11
12.113219
 21
11.803080
 31
0.0
  0
LINE
  5
17a
100
AcDbEntity
  8
dxf2
 62
1
100
AcDbLine
 10
12.113219
 20
11.803080
 30
0.0
 11
12.113219
 21
11.653865
 31
0.0
  0
LINE
  5
17b
100
AcDbEntity
  8
dxf2
 62
1
100
AcDbLine
 10
12.113219
 20
11.653865
 30
0.0
 11
12.113219
 21
11.504649
 31
0.0
  0
LINE
  5
17c
100
AcDbEntity
  8
dxf2
 62
1
100
AcDbLine
 10
12.113219
 20
11.504649
 30
0.0
 11
12.113219
 21
11.355432
 31
0.0
  0
LINE
  5
17d
100
AcDbEntity
  8
dxf2
 62
1
100
AcDbLine
 10
12.113219
 20
11.355432
 30
0.0
 11
12.113219
 21
11.206216
 31
0.0
  0
LINE
  5
17e
100
AcDbEntity
  8
dxf2
 62
1
100
AcDbLine
 10
12.113219
 20
11.206216
 30
0.0
 11
12.113219
 21
11.057001
 31
0.0
  0
LINE
  5
17f
100
AcDbEntity
  8
dxf2
 62
1
100
AcDbLine
 10
12.113219
 20
11.057001
 30
0.0
 11
12.113219
 21
10.907785
 31
0.0
  0
LINE
  5
180
100
AcDbEntity
  8
dxf2
 62
1
100
AcDbLine
 10
12.113219
 20
10.907785
 30
0.0
 11
12.191429
 21
10.900385
 31
0.0
  0
LINE
  5
181
100
AcDbEntity
  8
dxf2
 62
1
100
AcDbLine
 10
12.191429
 20
10.900385
 30
0.0
 11
12.271759
 21
10.892285
 31
0.0
  0
LINE
  5
182
100
AcDbEntity
  8
dxf2
 62
1
100
AcDbLine
 10
12.271759
 20
10.892285
 30
0.0
 11
12.354169
 21
10.883485
 31
0.0
  0
LINE
  5
183
100
AcDbEntity
  8
dxf2
 62
1
100
AcDbLine
 10
12.354169
 20
10.883485
 30
0.0
 11
12.438619
 21
10.874085
 31
0.0
  0
LINE
  5
184
100
AcDbEntity
  8
dxf2
 62
1
100
AcDbLine
 10
12.438619
 20
10.874085
 30
0.0
 11
12.525059
 21
10.864075
 31
0.0
  0
LINE
  5
185
100
AcDbEntity
  8
dxf2
 62
1
100
AcDbLine
 10
12.525059
 20
10.864075
 30
0.0
 11
12.613449
 21
10.853545
 31
0.0
  0
LINE
  5
186
100
AcDbEntity
  8
dxf2
 62
1
100
AcDbLine
 10
12.613449
 20
10.853545
 30
0.0
 11
12.703749
 21
10.842535
 31
0.0
  0
LINE
  5
187
100
AcDbEntity
  8
dxf2
 62
1
100
AcDbLine
 10
12.703749
 20
10.842535
 30
0.0
 11
12.795909
 21
10.831095
 31
0.0
  0
LINE
  5
188
100
AcDbEntity
  8
dxf2
 62
1
100
AcDbLine
 10
12.795909
 20
10.831095
 30
0.0
 11
12.889889
 21
10.819285
 31
0.0
  0
LINE
  5
189
100
AcDbEntity
  8
dxf2
 62
1
100
AcDbLine
 10
12.889889
 20
10.819285
 30
0.0
 11
12.985649
 21
10.807155
 31
0.0
  0
LINE
  5
18a
100
AcDbEntity
  8
dxf2
 62
1
100
AcDbLine
 10
12.985649
 20
10.807155
 30
0.0
 11
13.083139
 21
10.794755
 31
0.0
  0
LINE
  5
18b
100
AcDbEntity
  8
dxf2
 62
1
100
AcDbLine
 10
13.083139
 20
10.794755
 30
0.0
 11
13.182319
 21
10.782135
 31
0.0
  0
LINE
  5
18c
100
AcDbEntity
  8
dxf2
 62
1
100
AcDbLine
 10
13.182319
 20
10.782135
 30
0.0
 11
13.283147
 21
10.769345
 31
0.0
  0
LINE
  5
18d
100
AcDbEntity
  8
dxf2
 62
1
100
AcDbLine
 10
13.283147
 20
10.769345
 30
0.0
 11
13.385576
 21
10.756435
 31
0.0
  0
LINE
  5
18e
100
AcDbEntity
  8
dxf2
 62
1
100
AcDbLine
 10
13.385576
 20
10.756435
 30
0.0
 11
13.489564
 21
10.743465
 31
0.0
  0
LINE
  5
18f
100
AcDbEntity
  8
dxf2
 62
1
100
AcDbLine
 10
13.489564
 20
10.743465
 30
0.0
 11
13.595068
 21
10.730485
 31
0.0
  0
LINE
  5
190
100
AcDbEntity
  8
dxf2
 62
1
100
AcDbLine
 10
13.595068
 20
10.730485
 30
0.0
 11
13.702044
 21
10.717535
 31
0.0
  0
LINE
  5
191
100
AcDbEntity
  8
dxf2
 62
1
100
AcDbLine
 10
13.702044
 20
10.717535
 30
0.0
 11
13.810448
 21
10.704685
 31
0.0
  0
LINE
  5
192
100
AcDbEntity
  8
dxf2
 62
1
100
AcDbLine
 10
13.810448
 20
10.704685
 30
0.0
 11
13.920238
 21
10.691975
 31
0.0
  0
LINE
  5
193
100
AcDbEntity
  8
dxf2
 62
1
100
AcDbLine
 10
13.920238
 20
10.691975
 30
0.0
 11
14.031369
 21
10.679455
 31
0.0
  0
LINE
  5
194
100
AcDbEntity
  8
dxf2
 62
1
100
AcDbLine
 10
14.031369
 20
10.679455
 30
0.0
 11
14.143799
 21
10.667185
 31
0.0
  0
LINE
  5
195
100
AcDbEntity
  8
dxf2
 62
1
100
AcDbLine
 10
14.143799
 20
10.667185
 30
0.0
 11
14.257484
 21
10.655215
 31
0.0
  0
LINE
  5
196
100
AcDbEntity
  8
dxf2
 62
1
100
AcDbLine
 10
14.257484
 20
10.655215
 30
0.0
 11
14.372380
 21
10.643585
 31
0.0
  0
LINE
  5
197
100
AcDbEntity
  8
dxf2
 62
1
100
AcDbLine
 10
14.372380
 20
10.643585
 30
0.0
 11
14.488444
 21
10.632355
 31
0.0
  0
LINE
  5
198
100
AcDbEntity
  8
dxf2
 62
1
100
AcDbLine
 10
14.488444
 20
10.632355
 30
0.0
 11
14.605633
 21
10.621575
 31
0.0
  0
LINE
  5
199
100
AcDbEntity
  8
dxf2
 62
1
100
AcDbLine
 10
14.605633
 20
10.621575
 30
0.0
 11
14.723903
 21
10.611305
 31
0.0
  0
LINE
  5
19a
100
AcDbEntity
  8
dxf2
 62
1
100
AcDbLine
 10
14.723903
 20
10.611305
 30
0.0
 11
14.843210
 21
10.601605
 31
0.0
  0
LINE
  5
19b
100
AcDbEntity
  8
dxf2
 62
1
100
AcDbLine
 10
14.843210
 20
10.601605
 30
0.0
 11
14.963512
 21
10.592505
 31
0.0
  0
LINE
  5
19c
100
AcDbEntity
  8
dxf2
 62
1
100
AcDbLine
 10
14.963512
 20
10.592505
 30
0.0
 11
15.084766
 21
10.584005
 31
0.0
  0
LINE
  5
19d
100
AcDbEntity
  8
dxf2
 62
1
100
AcDbLine
 10
15.084766
 20
10.584005
 30
0.0
 11
15.206926
 21
10.576305
 31
0.0
  0
LINE
  5
19e
100
AcDbEntity
  8
dxf2
 62
1
100
AcDbLine
 10
15.206926
 20
10.576305
 30
0.0
 11
15.329951
 21
10.569305
 31
0.0
  0
LINE
  5
19f
100
AcDbEntity
  8
dxf2
 62
1
100
AcDbLine
 10
15.329951
 20
10.569305
 30
0.0
 11
15.453795
 21
10.563105
 31
0.0
  0
LINE
  5
1a0
100
AcDbEntity
  8
dxf2
 62
1
100
AcDbLine
 10
15.453795
 20
10.563105
 30
0.0
 11
15.578417
 21
10.557805
 31
0.0
  0
LINE
  5
1a1
100
AcDbEntity
  8
dxf2
 62
1
100
AcDbLine
 10
15.578417
 20
10.557805
 30
0.0
 11
15.703773
 21
10.553405
 31
0.0
  0
LINE
  5
1a2
100
AcDbEntity
  8
dxf2
 62
1
100
AcDbLine
 10
15.703773
 20
10.553405
 30
0.0
 11
15.829819
 21
10.550005
 31
0.0
  0
LINE
  5
1a3
100
AcDbEntity
  8
dxf2
 62
1
100
AcDbLine
 10
15.829819
 20
10.550005
 30
0.0
 11
15.956511
 21
10.547605
 31
0.0
  0
LINE
  5
1a4
100
AcDbEntity
  8
dxf2
 62
1
100
AcDbLine
 10
15.956511
 20
10.547605
 30
0.0
 11
16.083807
 21
10.546305
 31
0.0
  0
LINE
  5
1a5
100
AcDbEntity
  8
dxf2
 62
1
100
AcDbLine
 10
16.083807
 20
10.546305
 30
0.0
 11
16.211663
 21
10.546097
 31
0.0
  0
LINE
  5
1a6
100
AcDbEntity
  8
dxf2
 62
1
100
AcDbLine
 10
16.211663
 20
10.546097
 30
0.0
 11
16.340035
 21
10.547063
 31
0.0
  0
LINE
  5
1a7
100
AcDbEntity
  8
dxf2
 62
1
100
AcDbLine
 10
16.340035
 20
10.547063
 30
0.0
 11
16.468881
 21
10.549263
 31
0.0
  0
LINE
  5
1a8
100
AcDbEntity
  8
dxf2
 62
1
100
AcDbLine
 10
16.468881
 20
10.549263
 30
0.0
 11
16.598156
 21
10.552763
 31
0.0
  0
LINE
  5
1a9
100
AcDbEntity
  8
dxf2
 62
1
100
AcDbLine
 10
16.598156
 20
10.552763
 30
0.0
 11
16.727817
 21
10.557563
 31
0.0
  0
LINE
  5
1aa
100
AcDbEntity
  8
dxf2
 62
1
100
AcDbLine
 10
16.727817
 20
10.557563
 30
0.0
 11
16.857822
 21
10.563763
 31
0.0
  0
LINE
  5
1ab
100
AcDbEntity
  8
dxf2
 62
1
100
AcDbLine
 10
16.857822
 20
10.563763
 30
0.0
 11
16.988125
 21
10.571363
 31
0.0
  0
LINE
  5
1ac
100
AcDbEntity
  8
dxf2
 62
1
100
AcDbLine
 10
16.988125
 20
10.571363
 30
0.0
 11
17.118684
 21
10.580463
 31
0.0
  0
LINE
  5
1ad
100
AcDbEntity
  8
dxf2
 62
1
100
AcDbLine
 10
17.118684
 20
10.580463
 30
0.0
 11
17.249456
 21
10.591093
 31
0.0
  0
LINE
  5
1ae
100
AcDbEntity
  8
dxf2
 62
1
100
AcDbLine
 10
17.249456
 20
10.591093
 30
0.0
 11
17.380396
 21
10.603313
 31
0.0
  0
LINE
  5
1af
100
AcDbEntity
  8
dxf2
 62
1
100
AcDbLine
 10
17.380396
 20
10.603313
 30
0.0
 11
17.511462
 21
10.617163
 31
0.0
  0
LINE
  5
1b0
100
AcDbEntity
  8
dxf2
 62
1
100
AcDbLine
 10
17.511462
 20
10.617163
 30
0.0
 11
17.642611
 21
10.632703
 31
0.0
  0
LINE
  5
1b1
100
AcDbEntity
  8
dxf2
 62
1
100
AcDbLine
 10
17.642611
 20
10.632703
 30
0.0
 11
17.773798
 21
10.649993
 31
0.0
  0
LINE
  5
1b2
100
AcDbEntity
  8
dxf2
 62
1
100
AcDbLine
 10
17.773798
 20
10.649993
 30
0.0
 11
17.904980
 21
10.669073
 31
0.0
  0
LINE
  5
1b3
100
AcDbEntity
  8
dxf2
 62
1
100
AcDbLine
 10
17.904980
 20
10.669073
 30
0.0
 11
18.036114
 21
10.689993
 31
0.0
  0
LINE
  5
1b4
100
AcDbEntity
  8
dxf2
 62
1
100
AcDbLine
 10
18.036114
 20
10.689993
 30
0.0
 11
18.167156
 21
10.712813
 31
0.0
  0
LINE
  5
1b5
100
AcDbEntity
  8
dxf2
 62
1
100
AcDbLine
 10
18.167156
 20
10.712813
 30
0.0
 11
18.298064
 21
10.737583
 31
0.0
  0
LINE
  5
1b6
100
AcDbEntity
  8
dxf2
 62
1
100
AcDbLine
 10
18.298064
 20
10.737583
 30
0.0
 11
18.428792
 21
10.764353
 31
0.0
  0
LINE
  5
1b7
100
AcDbEntity
  8
dxf2
 62
1
100
AcDbLine
 10
18.428792
 20
10.764353
 30
0.0
 11
18.559300
 21
10.793173
 31
0.0
  0
LINE
  5
1b8
100
AcDbEntity
  8
dxf2
 62
1
100
AcDbLine
 10
18.559300
 20
10.793173
 30
0.0
 11
18.689542
 21
10.824093
 31
0.0
  0
LINE
  5
1b9
100
AcDbEntity
  8
dxf2
 62
1
100
AcDbLine
 10
18.689542
 20
10.824093
 30
0.0
 11
18.819475
 21
10.857173
 31
0.0
  0
LINE
  5
1ba
100
AcDbEntity
  8
dxf2
 62
1
100
AcDbLine
 10
18.819475
 20
10.857173
 30
0.0
 11
18.949055
 21
10.892453
 31
0.0
  0
LINE
  5
1bb
100
AcDbEntity
  8
dxf2
 62
1
100
AcDbLine
 10
18.949055
 20
10.892453
 30
0.0
 11
19.078240
 21
10.929993
 31
0.0
  0
LINE
  5
1bc
100
AcDbEntity
  8
dxf2
 62
1
100
AcDbLine
 10
19.078240
 20
10.929993
 30
0.0
 11
19.206986
 21
10.969843
 31
0.0
  0
LINE
  5
1bd
100
AcDbEntity
  8
dxf2
 62
1
100
AcDbLine
 10
19.206986
 20
10.969843
 30
0.0
 11
19.335249
 21
11.012053
 31
0.0
  0
LINE
  5
1be
100
AcDbEntity
  8
dxf2
 62
1
100
AcDbLine
 10
19.335249
 20
11.012053
 30
0.0
 11
19.462987
 21
11.056673
 31
0.0
  0
LINE
  5
1bf
100
AcDbEntity
  8
dxf2
 62
1
100
AcDbLine
 10
19.462987
 20
11.056673
 30
0.0
 11
19.590154
 21
11.103763
 31
0.0
  0
LINE
  5
1c0
100
AcDbEntity
  8
dxf2
 62
1
100
AcDbLine
 10
19.590154
 20
11.103763
 30
0.0
 11
19.716709
 21
11.153363
 31
0.0
  0
LINE
  5
1c1
100
AcDbEntity
  8
dxf2
 62
1
100
AcDbLine
 10
19.716709
 20
11.153363
 30
0.0
 11
19.842608
 21
11.205533
 31
0.0
  0
LINE
  5
1c2
100
AcDbEntity
  8
dxf2
 62
1
100
AcDbLine
 10
19.842608
 20
11.205533
 30
0.0
 11
19.967807
 21
11.260323
 31
0.0
  0
LINE
  5
1c3
100
AcDbEntity
  8
dxf2
 62
1
100
AcDbLine
 10
19.967807
 20
11.260323
 30
0.0
 11
20.092263
 21
11.317783
 31
0.0
  0
LINE
  5
1c4
100
AcDbEntity
  8
dxf2
 62
1
100
AcDbLine
 10
20.092263
 20
11.317783
 30
0.0
 11
20.215932
 21
11.377963
 31
0.0
  0
LINE
  5
1c5
100
AcDbEntity
  8
dxf2
 62
1
100
AcDbLine
 10
20.215932
 20
11.377963
 30
0.0
 11
20.338772
 21
11.440913
 31
0.0
  0
LINE
  5
1c6
100
AcDbEntity
  8
dxf2
 62
1
100
AcDbLine
 10
20.338772
 20
11.440913
 30
0.0
 11
20.460738
 21
11.506694
 31
0.0
  0
LINE
  5
1c7
100
AcDbEntity
  8
dxf2
 62
1
100
AcDbLine
 10
20.460738
 20
11.506694
 30
0.0
 11
20.581787
 21
11.575354
 31
0.0
  0
LINE
  5
1c8
100
AcDbEntity
  8
dxf2
 62
1
100
AcDbLine
 10
20.581787
 20
11.575354
 30
0.0
 11
20.701876
 21
11.646934
 31
0.0
  0
LINE
  5
1c9
100
AcDbEntity
  8
dxf2
 62
1
100
AcDbLine
 10
20.701876
 20
11.646934
 30
0.0
 11
20.820960
 21
11.721494
 31
0.0
  0
LINE
  5
1ca
100
AcDbEntity
  8
dxf2
 62
1
100
AcDbLine
 10
20.820960
 20
11.721494
 30
0.0
 11
20.938998
 21
11.799084
 31
0.0
  0
LINE
  5
1cb
100
AcDbEntity
  8
dxf2
 62
1
100
AcDbLine
 10
20.938998
 20
11.799084
 30
0.0
 11
21.055945
 21
11.879764
 31
0.0
  0
LINE
  5
1cc
100
AcDbEntity
  8
dxf2
 62
1
100
AcDbLine
 10
21.055945
 20
11.879764
 30
0.0
 11
21.171757
 21
11.963574
 31
0.0
  0
LINE
  5
1cd
100
AcDbEntity
  8
dxf2
 62
1
100
AcDbLine
 10
21.171757
 20
11.963574
 30
0.0
 11
21.286393
 21
12.050574
 31
0.0
  0
LINE
  5
1ce
100
AcDbEntity
  8
dxf2
 62
1
100
AcDbLine
 10
21.286393
 20
12.050574
 30
0.0
 11
21.399807
 21
12.140814
 31
0.0
  0
LINE
  5
1cf
100
AcDbEntity
  8
dxf2
 62
1
100
AcDbLine
 10
21.399807
 20
12.140814
 30
0.0
 11
21.511957
 21
12.234344
 31
0.0
  0
LINE
  5
1d0
100
AcDbEntity
  8
dxf2
 62
1
100
AcDbLine
 10
21.511957
 20
12.234344
 30
0.0
 11
21.622799
 21
12.331214
 31
0.0
  0
LINE
  5
1d1
100
AcDbEntity
  8
dxf2
 62
1
100
AcDbLine
 10
21.622799
 20
12.331214
 30
0.0
 11
21.732290
 21
12.431475
 31
0.0
  0
LINE
  5
1d2
100
AcDbEntity
  8
dxf2
 62
1
100
AcDbLine
 10
21.732290
 20
12.431475
 30
0.0
 11
21.840386
 21
12.535181
 31
0.0
  0
LINE
  5
1d3
100
AcDbEntity
  8
dxf2
 62
1
100
AcDbLine
 10
21.840386
 20
12.535181
 30
0.0
 11
21.947044
 21
12.642382
 31
0.0
  0
LINE
  5
1d4
100
AcDbEntity
  8
dxf2
 62
1
100
AcDbLine
 10
21.947044
 20
12.642382
 30
0.0
 11
22.052221
 21
12.753131
 31
0.0
  0
LINE
  5
1d5
100
AcDbEntity
  8
dxf2
 62
1
100
AcDbLine
 10
22.052221
 20
12.753131
 30
0.0
 11
22.155873
 21
12.867478
 31
0.0
  0
LINE
  5
1d6
100
AcDbEntity
  8
dxf2
 62
1
100
AcDbLine
 10
22.155873
 20
12.867478
 30
0.0
 11
22.257956
 21
12.985477
 31
0.0
  0
LINE
  5
1d7
100
AcDbEntity
  8
dxf2
 62
1
100
AcDbLine
 10
22.257956
 20
12.985477
 30
0.0
 11
22.358427
 21
13.107178
 31
0.0
  0
LINE
  5
1d8
100
AcDbEntity
  8
dxf2
 62
1
100
AcDbLine
 10
22.358427
 20
13.107178
 30
0.0
 11
22.457247
 21
13.232632
 31
0.0
  0
LINE
  5
1d9
100
AcDbEntity
  8
dxf2
 62
1
100
AcDbLine
 10
22.457247
 20
13.232632
 30
0.0
 11
22.554367
 21
13.361893
 31
0.0
  0
LINE
  5
1da
100
AcDbEntity
  8
dxf2
 62
1
100
AcDbLine
 10
22.554367
 20
13.361893
 30
0.0
 11
22.649737
 21
13.495011
 31
0.0
  0
LINE
  5
1db
100
AcDbEntity
  8
dxf2
 62
1
100
AcDbLine
 10
22.649737
 20
13.495011
 30
0.0
 11
22.743327
 21
13.632036
 31
0.0
  0
LINE
  5
1dc
100
AcDbEntity
  8
dxf2
 62
1
100
AcDbLine
 10
22.743327
 20
13.632036
 30
0.0
 11
22.835087
 21
13.773023
 31
0.0
  0
LINE
  5
1dd
100
AcDbEntity
  8
dxf2
 62
1
100
AcDbLine
 10
22.835087
 20
13.773023
 30
0.0
 11
22.924977
 21
13.918021
 31
0.0
  0
LINE
  5
1de
100
AcDbEntity
  8
dxf2
 62
1
100
AcDbLine
 10
22.924977
 20
13.918021
 30
0.0
 11
23.012947
 21
14.067082
 31
0.0
  0
LINE
  5
1df
100
AcDbEntity
  8
dxf2
 62
1
100
AcDbLine
 10
23.012947
 20
14.067082
 30
0.0
 11
23.098957
 21
14.220259
 31
0.0
  0
LINE
  5
1e0
100
AcDbEntity
  8
dxf2
 62
1
100
AcDbLine
 10
23.098957
 20
14.220259
 30
0.0
 11
23.182967
 21
14.377602
 31
0.0
  0
LINE
  5
1e1
100
AcDbEntity
  8
dxf2
 62
1
100
AcDbLine
 10
23.182967
 20
14.377602
 30
0.0
 11
23.264927
 21
14.539164
 31
0.0
  0
LINE
  5
1e2
100
AcDbEntity
  8
dxf2
 62
1
100
AcDbLine
 10
23.264927
 20
14.539164
 30
0.0
 11
23.344797
 21
14.704995
 31
0.0
  0
LINE
  5
1e3
100
AcDbEntity
  8
dxf2
 62
1
100
AcDbLine
 10
23.344797
 20
14.704995
 30
0.0
 11
23.422537
 21
14.875148
 31
0.0
  0
LINE
  5
1e4
100
AcDbEntity
  8
dxf2
 62
1
100
AcDbLine
 10
23.422537
 20
14.875148
 30
0.0
 11
23.498097
 21
15.049675
 31
0.0
  0
LINE
  5
1e5
100
AcDbEntity
  8
dxf2
 62
1
100
AcDbLine
 10
23.498097
 20
15.049675
 30
0.0
 11
23.571437
 21
15.228626
 31
0.0
  0
LINE
  5
1e6
100
AcDbEntity
  8
dxf2
 62
1
100
AcDbLine
 10
23.571437
 20
15.228626
 30
0.0
 11
23.642517
 21
15.412052
 31
0.0
  0
LINE
  5
1e7
100
AcDbEntity
  8
dxf2
 62
1
100
AcDbLine
 10
23.642517
 20
15.412052
 30
0.0
 11
23.711287
 21
15.600007
 31
0.0
  0
LINE
  5
1e8
100
AcDbEntity
  8
dxf2
 62
1
100
AcDbLine
 10
23.711287
 20
15.600007
 30
0.0
 11
23.777707
 21
15.792541
 31
0.0
  0
LINE
  5
1e9
100
AcDbEntity
  8
dxf2
 62
1
100
AcDbLine
 10
23.777707
 20
15.792541
 30
0.0
 11
23.841737
 21
15.989706
 31
0.0
  0
LINE
  5
1ea
100
AcDbEntity
  8
dxf2
 62
1
100
AcDbLine
 10
23.841737
 20
15.989706
 30
0.0
 11
23.903328
 21
16.191554
 31
0.0
  0
LINE
  5
1eb
100
AcDbEntity
  8
dxf2
 62
1
100
AcDbLine
 10
23.903328
 20
16.191554
 30
0.0
 11
23.962438
 21
16.398136
 31
0.0
  0
LINE
  5
1ec
100
AcDbEntity
  8
dxf2
 62
1
100
AcDbLine
 10
23.962438
 20
16.398136
 30
0.0
 11
24.019028
 21
16.609504
 31
0.0
  0
LINE
  5
1ed
100
AcDbEntity
  8
dxf2
 62
1
100
AcDbLine
 10
24.019028
 20
16.609504
 30
0.0
 11
24.073048
 21
16.825710
 31
0.0
  0
LINE
  5
1ee
100
AcDbEntity
  8
dxf2
 62
1
100
AcDbLine
 10
24.073048
 20
16.825710
 30
0.0
 11
24.124458
 21
17.046804
 31
0.0
  0
LINE
  5
1ef
100
AcDbEntity
  8
dxf2
 62
1
100
AcDbLine
 10
24.124458
 20
17.046804
 30
0.0
 11
24.173208
 21
17.272839
 31
0.0
  0
LINE
  5
1f0
100
AcDbEntity
  8
dxf2
 62
1
100
AcDbLine
 10
24.173208
 20
17.272839
 30
0.0
 11
24.219268
 21
17.503867
 31
0.0
  0
LINE
  5
1f1
100
AcDbEntity
  8
dxf2
 62
1
100
AcDbLine
 10
24.219268
 20
17.503867
 30
0.0
 11
24.262588
 21
17.739937
 31
0.0
  0
LINE
  5
1f2
100
AcDbEntity
  8
dxf2
 62
1
100
AcDbLine
 10
24.262588
 20
17.739937
 30
0.0
 11
24.303118
 21
17.981104
 31
0.0
  0
LINE
  5
1f3
100
AcDbEntity
  8
dxf2
 62
1
100
AcDbLine
 10
24.303118
 20
17.981104
 30
0.0
 11
24.340818
 21
18.227417
 31
0.0
  0
LINE
  5
1f4
100
AcDbEntity
  8
dxf2
 62
1
100
AcDbLine
 10
24.340818
 20
18.227417
 30
0.0
 11
24.375648
 21
18.478929
 31
0.0
  0
LINE
  5
1f5
100
AcDbEntity
  8
dxf2
 62
1
100
AcDbLine
 10
24.375648
 20
18.478929
 30
0.0
 11
24.407568
 21
18.735692
 31
0.0
  0
LINE
  5
1f6
100
AcDbEntity
  8
dxf2
 62
1
100
AcDbLine
 10
24.407568
 20
18.735692
 30
0.0
 11
24.436528
 21
18.997756
 31
0.0
  0
LINE
  5
1f7
100
AcDbEntity
  8
dxf2
 62
1
100
AcDbLine
 10
24.436528
 20
18.997756
 30
0.0
 11
24.462488
 21
19.265174
 31
0.0
  0
LINE
  5
1f8
100
AcDbEntity
  8
dxf2
 62
1
100
AcDbLine
 10
24.462488
 20
19.265174
 30
0.0
 11
24.485398
 21
19.537996
 31
0.0
  0
LINE
  5
1f9
100
AcDbEntity
  8
dxf2
 62
1
100
AcDbLine
 10
24.485398
 20
19.537996
 30
0.0
 11
24.505218
 21
19.816275
 31
0.0
  0
LINE
  5
1fa
100
AcDbEntity
  8
dxf2
 62
1
100
AcDbLine
 10
24.505218
 20
19.816275
 30
0.0
 11
24.521908
 21
20.100062
 31
0.0
  0
LINE
  5
1fb
100
AcDbEntity
  8
dxf2
 62
1
100
AcDbLine
 10
24.521908
 20
20.100062
 30
0.0
 11
24.535418
 21
20.389410
 31
0.0
  0
LINE
  5
1fc
100
AcDbEntity
  8
dxf2
 62
1
100
AcDbLine
 10
24.535418
 20
20.389410
 30
0.0
 11
24.545718
 21
20.684368
 31
0.0
  0
LINE
  5
1fd
100
AcDbEntity
  8
dxf2
 62
1
100
AcDbLine
 10
24.545718
 20
20.684368
 30
0.0
 11
24.552718
 21
20.984989
 31
0.0
  0
LINE
  5
1fe
100
AcDbEntity
  8
dxf2
 62
1
100
AcDbLine
 10
24.552718
 20
20.984989
 30
0.0
 11
24.556418
 21
21.291325
 31
0.0
  0
LINE
  5
1ff
100
AcDbEntity
  8
dxf2
 62
1
100
AcDbLine
 10
24.556418
 20
21.291325
 30
0.0
 11
24.556796
 21
21.603427
 31
0.0
  0
LINE
  5
200
100
AcDbEntity
  8
dxf2
 62
1
100
AcDbLine
 10
24.556796
 20
21.603427
 30
0.0
 11
24.555096
 21
21.810035
 31
0.0
  0
LINE
  5
201
100
AcDbEntity
  8
dxf2
 62
1
100
AcDbLine
 10
24.555096
 20
21.810035
 30
0.0
 11
24.551696
 21
22.014513
 31
0.0
  0
LINE
  5
202
100
AcDbEntity
  8
dxf2
 62
1
100
AcDbLine
 10
24.551696
 20
22.014513
 30
0.0
 11
24.546696
 21
22.216859
 31
0.0
  0
LINE
  5
203
100
AcDbEntity
  8
dxf2
 62
1
100
AcDbLine
 10
24.546696
 20
22.216859
 30
0.0
 11
24.539996
 21
22.417071
 31
0.0
  0
LINE
  5
204
100
AcDbEntity
  8
dxf2
 62
1
100
AcDbLine
 10
24.539996
 20
22.417071
 30
0.0
 11
24.531696
 21
22.615146
 31
0.0
  0
LINE
  5
205
100
AcDbEntity
  8
dxf2
 62
1
100
AcDbLine
 10
24.531696
 20
22.615146
 30
0.0
 11
24.521696
 21
22.811082
 31
0.0
  0
LINE
  5
206
100
AcDbEntity
  8
dxf2
 62
1
100
AcDbLine
 10
24.521696
 20
22.811082
 30
0.0
 11
24.510046
 21
23.004878
 31
0.0
  0
LINE
  5
207
100
AcDbEntity
  8
dxf2
 62
1
100
AcDbLine
 10
24.510046
 20
23.004878
 30
0.0
 11
24.496756
 21
23.196531
 31
0.0
  0
LINE
  5
208
100
AcDbEntity
  8
dxf2
 62
1
100
AcDbLine
 10
24.496756
 20
23.196531
 30
0.0
 11
24.481826
 21
23.386039
 31
0.0
  0
LINE
  5
209
100
AcDbEntity
  8
dxf2
 62
1
100
AcDbLine
 10
24.481826
 20
23.386039
 30
0.0
 11
24.465256
 21
23.573400
 31
0.0
  0
LINE
  5
20a
100
AcDbEntity
  8
dxf2
 62
1
100
AcDbLine
 10
24.465256
 20
23.573400
 30
0.0
 11
24.447056
 21
23.758612
 31
0.0
  0
LINE
  5
20b
100
AcDbEntity
  8
dxf2
 62
1
100
AcDbLine
 10
24.447056
 20
23.758612
 30
0.0
 11
24.427226
 21
23.941674
 31
0.0
  0
LINE
  5
20c
100
AcDbEntity
  8
dxf2
 62
1
100
AcDbLine
 10
24.427226
 20
23.941674
 30
0.0
 11
24.405776
 21
24.122580
 31
0.0
  0
LINE
  5
20d
100
AcDbEntity
  8
dxf2
 62
1
100
AcDbLine
 10
24.405776
 20
24.122580
 30
0.0
 11
24.382706
 21
24.301332
 31
0.0
  0
LINE
  5
20e
100
AcDbEntity
  8
dxf2
 62
1
100
AcDbLine
 10
24.382706
 20
24.301332
 30
0.0
 11
24.358016
 21
24.477925
 31
0.0
  0
LINE
  5
20f
100
AcDbEntity
  8
dxf2
 62
1
100
AcDbLine
 10
24.358016
 20
24.477925
 30
0.0
 11
24.331716
 21
24.652359
 31
0.0
  0
LINE
  5
210
100
AcDbEntity
  8
dxf2
 62
1
100
AcDbLine
 10
24.331716
 20
24.652359
 30
0.0
 11
24.303806
 21
24.824631
 31
0.0
  0
LINE
  5
211
100
AcDbEntity
  8
dxf2
 62
1
100
AcDbLine
 10
24.303806
 20
24.824631
 30
0.0
 11
24.274286
 21
24.994738
 31
0.0
  0
LINE
  5
212
100
AcDbEntity
  8
dxf2
 62
1
100
AcDbLine
 10
24.274286
 20
24.994738
 30
0.0
 11
24.243166
 21
25.162679
 31
0.0
  0
LINE
  5
213
100
AcDbEntity
  8
dxf2
 62
1
100
AcDbLine
 10
24.243166
 20
25.162679
 30
0.0
 11
24.210446
 21
25.328452
 31
0.0
  0
LINE
  5
214
100
AcDbEntity
  8
dxf2
 62
1
100
AcDbLine
 10
24.210446
 20
25.328452
 30
0.0
 11
24.176136
 21
25.492054
 31
0.0
  0
LINE
  5
215
100
AcDbEntity
  8
dxf2
 62
1
100
AcDbLine
 10
24.176136
 20
25.492054
 30
0.0
 11
24.140236
 21
25.653484
 31
0.0
  0
LINE
  5
216
100
AcDbEntity
  8
dxf2
 62
1
100
AcDbLine
 10
24.140236
 20
25.653484
 30
0.0
 11
24.102756
 21
25.812739
 31
0.0
  0
LINE
  5
217
100
AcDbEntity
  8
dxf2
 62
1
100
AcDbLine
 10
24.102756
 20
25.812739
 30
0.0
 11
24.063686
 21
25.969816
 31
0.0
  0
LINE
  5
218
100
AcDbEntity
  8
dxf2
 62
1
100
AcDbLine
 10
24.063686
 20
25.969816
 30
0.0
 11
24.023036
 21
26.124715
 31
0.0
  0
LINE
  5
219
100
AcDbEntity
  8
dxf2
 62
1
100
AcDbLine
 10
24.023036
 20
26.124715
 30
0.0
 11
23.980816
 21
26.277432
 31
0.0
  0
LINE
  5
21a
100
AcDbEntity
  8
dxf2
 62
1
100
AcDbLine
 10
23.980816
 20
26.277432
 30
0.0
 11
23.937026
 21
26.427966
 31
0.0
  0
LINE
  5
21b
100
AcDbEntity
  8
dxf2
 62
1
100
AcDbLine
 10
23.937026
 20
26.427966
 30
0.0
 11
23.891666
 21
26.576314
 31
0.0
  0
LINE
  5
21c
100
AcDbEntity
  8
dxf2
 62
1
100
AcDbLine
 10
23.891666
 20
26.576314
 30
0.0
 11
23.844745
 21
26.722475
 31
0.0
  0
LINE
  5
21d
100
AcDbEntity
  8
dxf2
 62
1
100
AcDbLine
 10
23.844745
 20
26.722475
 30
0.0
 11
23.796265
 21
26.866445
 31
0.0
  0
LINE
  5
21e
100
AcDbEntity
  8
dxf2
 62
1
100
AcDbLine
 10
23.796265
 20
26.866445
 30
0.0
 11
23.746235
 21
27.008224
 31
0.0
  0
LINE
  5
21f
100
AcDbEntity
  8
dxf2
 62
1
100
AcDbLine
 10
23.746235
 20
27.008224
 30
0.0
 11
23.694655
 21
27.147809
 31
0.0
  0
LINE
  5
220
100
AcDbEntity
  8
dxf2
 62
1
100
AcDbLine
 10
23.694655
 20
27.147809
 30
0.0
 11
23.641525
 21
27.285198
 31
0.0
  0
LINE
  5
221
100
AcDbEntity
  8
dxf2
 62
1
100
AcDbLine
 10
23.641525
 20
27.285198
 30
0.0
 11
23.586855
 21
27.420389
 31
0.0
  0
LINE
  5
222
100
AcDbEntity
  8
dxf2
 62
1
100
AcDbLine
 10
23.586855
 20
27.420389
 30
0.0
 11
23.530645
 21
27.553379
 31
0.0
  0
LINE
  5
223
100
AcDbEntity
  8
dxf2
 62
1
100
AcDbLine
 10
23.530645
 20
27.553379
 30
0.0
 11
23.472895
 21
27.684166
 31
0.0
  0
LINE
  5
224
100
AcDbEntity
  8
dxf2
 62
1
100
AcDbLine
 10
23.472895
 20
27.684166
 30
0.0
 11
23.413615
 21
27.812748
 31
0.0
  0
LINE
  5
225
100
AcDbEntity
  8
dxf2
 62
1
100
AcDbLine
 10
23.413615
 20
27.812748
 30
0.0
 11
23.352805
 21
27.939124
 31
0.0
  0
LINE
  5
226
100
AcDbEntity
  8
dxf2
 62
1
100
AcDbLine
 10
23.352805
 20
27.939124
 30
0.0
 11
23.290475
 21
28.063290
 31
0.0
  0
LINE
  5
227
100
AcDbEntity
  8
dxf2
 62
1
100
AcDbLine
 10
23.290475
 20
28.063290
 30
0.0
 11
23.226625
 21
28.185245
 31
0.0
  0
LINE
  5
228
100
AcDbEntity
  8
dxf2
 62
1
100
AcDbLine
 10
23.226625
 20
28.185245
 30
0.0
 11
23.161265
 21
28.304987
 31
0.0
  0
LINE
  5
229
100
AcDbEntity
  8
dxf2
 62
1
100
AcDbLine
 10
23.161265
 20
28.304987
 30
0.0
 11
23.094385
 21
28.422514
 31
0.0
  0
LINE
  5
22a
100
AcDbEntity
  8
dxf2
 62
1
100
AcDbLine
 10
23.094385
 20
28.422514
 30
0.0
 11
23.026005
 21
28.537823
 31
0.0
  0
LINE
  5
22b
100
AcDbEntity
  8
dxf2
 62
1
100
AcDbLine
 10
23.026005
 20
28.537823
 30
0.0
 11
22.956115
 21
28.650912
 31
0.0
  0
LINE
  5
22c
100
AcDbEntity
  8
dxf2
 62
1
100
AcDbLine
 10
22.956115
 20
28.650912
 30
0.0
 11
22.884725
 21
28.761780
 31
0.0
  0
LINE
  5
22d
100
AcDbEntity
  8
dxf2
 62
1
100
AcDbLine
 10
22.884725
 20
28.761780
 30
0.0
 11
22.811835
 21
28.870423
 31
0.0
  0
LINE
  5
22e
100
AcDbEntity
  8
dxf2
 62
1
100
AcDbLine
 10
22.811835
 20
28.870423
 30
0.0
 11
22.737455
 21
28.976841
 31
0.0
  0
LINE
  5
22f
100
AcDbEntity
  8
dxf2
 62
1
100
AcDbLine
 10
22.737455
 20
28.976841
 30
0.0
 11
22.661585
 21
29.081030
 31
0.0
  0
LINE
  5
230
100
AcDbEntity
  8
dxf2
 62
1
100
AcDbLine
 10
22.661585
 20
29.081030
 30
0.0
 11
22.584235
 21
29.182990
 31
0.0
  0
LINE
  5
231
100
AcDbEntity
  8
dxf2
 62
1
100
AcDbLine
 10
22.584235
 20
29.182990
 30
0.0
 11
22.505405
 21
29.282720
 31
0.0
  0
LINE
  5
232
100
AcDbEntity
  8
dxf2
 62
1
100
AcDbLine
 10
22.505405
 20
29.282720
 30
0.0
 11
22.425095
 21
29.380210
 31
0.0
  0
LINE
  5
233
100
AcDbEntity
  8
dxf2
 62
1
100
AcDbLine
 10
22.425095
 20
29.380210
 30
0.0
 11
22.343315
 21
29.475460
 31
0.0
  0
LINE
  5
234
100
AcDbEntity
  8
dxf2
 62
1
100
AcDbLine
 10
22.343315
 20
29.475460
 30
0.0
 11
22.260065
 21
29.568480
 31
0.0
  0
LINE
  5
235
100
AcDbEntity
  8
dxf2
 62
1
100
AcDbLine
 10
22.260065
 20
29.568480
 30
0.0
 11
22.175345
 21
29.659260
 31
0.0
  0
LINE
  5
236
100
AcDbEntity
  8
dxf2
 62
1
100
AcDbLine
 10
22.175345
 20
29.659260
 30
0.0
 11
22.089165
 21
29.747790
 31
0.0
  0
LINE
  5
237
100
AcDbEntity
  8
dxf2
 62
1
100
AcDbLine
 10
22.089165
 20
29.747790
 30
0.0
 11
22.001524
 21
29.834080
 31
0.0
  0
LINE
  5
238
100
AcDbEntity
  8
dxf2
 62
1
100
AcDbLine
 10
22.001524
 20
29.834080
 30
0.0
 11
21.912434
 21
29.918120
 31
0.0
  0
LINE
  5
239
100
AcDbEntity
  8
dxf2
 62
1
100
AcDbLine
 10
21.912434
 20
29.918120
 30
0.0
 11
21.821894
 21
29.999910
 31
0.0
  0
LINE
  5
23a
100
AcDbEntity
  8
dxf2
 62
1
100
AcDbLine
 10
21.821894
 20
29.999910
 30
0.0
 11
21.729904
 21
30.079450
 31
0.0
  0
LINE
  5
23b
100
AcDbEntity
  8
dxf2
 62
1
100
AcDbLine
 10
21.729904
 20
30.079450
 30
0.0
 11
21.636474
 21
30.156730
 31
0.0
  0
LINE
  5
23c
100
AcDbEntity
  8
dxf2
 62
1
100
AcDbLine
 10
21.636474
 20
30.156730
 30
0.0
 11
21.541604
 21
30.231760
 31
0.0
  0
LINE
  5
23d
100
AcDbEntity
  8
dxf2
 62
1
100
AcDbLine
 10
21.541604
 20
30.231760
 30
0.0
 11
21.445304
 21
30.304530
 31
0.0
  0
LINE
  5
23e
100
AcDbEntity
  8
dxf2
 62
1
100
AcDbLine
 10
21.445304
 20
30.304530
 30
0.0
 11
21.347574
 21
30.375040
 31
0.0
  0
LINE
  5
23f
100
AcDbEntity
  8
dxf2
 62
1
100
AcDbLine
 10
21.347574
 20
30.375040
 30
0.0
 11
21.248414
 21
30.443290
 31
0.0
  0
LINE
  5
240
100
AcDbEntity
  8
dxf2
 62
1
100
AcDbLine
 10
21.248414
 20
30.443290
 30
0.0
 11
21.147834
 21
30.509270
 31
0.0
  0
LINE
  5
241
100
AcDbEntity
  8
dxf2
 62
1
100
AcDbLine
 10
21.147834
 20
30.509270
 30
0.0
 11
21.045835
 21
30.572990
 31
0.0
  0
LINE
  5
242
100
AcDbEntity
  8
dxf2
 62
1
100
AcDbLine
 10
21.045835
 20
30.572990
 30
0.0
 11
20.942421
 21
30.634440
 31
0.0
  0
LINE
  5
243
100
AcDbEntity
  8
dxf2
 62
1
100
AcDbLine
 10
20.942421
 20
30.634440
 30
0.0
 11
20.837597
 21
30.693620
 31
0.0
  0
LINE
  5
244
100
AcDbEntity
  8
dxf2
 62
1
100
AcDbLine
 10
20.837597
 20
30.693620
 30
0.0
 11
20.731365
 21
30.750520
 31
0.0
  0
LINE
  5
245
100
AcDbEntity
  8
dxf2
 62
1
100
AcDbLine
 10
20.731365
 20
30.750520
 30
0.0
 11
20.623730
 21
30.805150
 31
0.0
  0
LINE
  5
246
100
AcDbEntity
  8
dxf2
 62
1
100
AcDbLine
 10
20.623730
 20
30.805150
 30
0.0
 11
20.514696
 21
30.857500
 31
0.0
  0
LINE
  5
247
100
AcDbEntity
  8
dxf2
 62
1
100
AcDbLine
 10
20.514696
 20
30.857500
 30
0.0
 11
20.404267
 21
30.907570
 31
0.0
  0
LINE
  5
248
100
AcDbEntity
  8
dxf2
 62
1
100
AcDbLine
 10
20.404267
 20
30.907570
 30
0.0
 11
20.292445
 21
30.955361
 31
0.0
  0
LINE
  5
249
100
AcDbEntity
  8
dxf2
 62
1
100
AcDbLine
 10
20.292445
 20
30.955361
 30
0.0
 11
20.179236
 21
31.000871
 31
0.0
  0
LINE
  5
24a
100
AcDbEntity
  8
dxf2
 62
1
100
AcDbLine
 10
20.179236
 20
31.000871
 30
0.0
 11
20.064644
 21
31.044091
 31
0.0
  0
LINE
  5
24b
100
AcDbEntity
  8
dxf2
 62
1
100
AcDbLine
 10
20.064644
 20
31.044091
 30
0.0
 11
19.948672
 21
31.085021
 31
0.0
  0
LINE
  5
24c
100
AcDbEntity
  8
dxf2
 62
1
100
AcDbLine
 10
19.948672
 20
31.085021
 30
0.0
 11
19.831324
 21
31.123661
 31
0.0
  0
LINE
  5
24d
100
AcDbEntity
  8
dxf2
 62
1
100
AcDbLine
 10
19.831324
 20
31.123661
 30
0.0
 11
19.712604
 21
31.160011
 31
0.0
  0
LINE
  5
24e
100
AcDbEntity
  8
dxf2
 62
1
100
AcDbLine
 10
19.712604
 20
31.160011
 30
0.0
 11
19.592516
 21
31.194071
 31
0.0
  0
LINE
  5
24f
100
AcDbEntity
  8
dxf2
 62
1
100
AcDbLine
 10
19.592516
 20
31.194071
 30
0.0
 11
19.471063
 21
31.225831
 31
0.0
  0
LINE
  5
250
100
AcDbEntity
  8
dxf2
 62
1
100
AcDbLine
 10
19.471063
 20
31.225831
 30
0.0
 11
19.348250
 21
31.255291
 31
0.0
  0
LINE
  5
251
100
AcDbEntity
  8
dxf2
 62
1
100
AcDbLine
 10
19.348250
 20
31.255291
 30
0.0
 11
19.224081
 21
31.282451
 31
0.0
  0
LINE
  5
252
100
AcDbEntity
  8
dxf2
 62
1
100
AcDbLine
 10
19.224081
 20
31.282451
 30
0.0
 11
19.098558
 21
31.307301
 31
0.0
  0
LINE
  5
253
100
AcDbEntity
  8
dxf2
 62
1
100
AcDbLine
 10
19.098558
 20
31.307301
 30
0.0
 11
18.971688
 21
31.329851
 31
0.0
  0
LINE
  5
254
100
AcDbEntity
  8
dxf2
 62
1
100
AcDbLine
 10
18.971688
 20
31.329851
 30
0.0
 11
18.843472
 21
31.350091
 31
0.0
  0
LINE
  5
255
100
AcDbEntity
  8
dxf2
 62
1
100
AcDbLine
 10
18.843472
 20
31.350091
 30
0.0
 11
18.713915
 21
31.368021
 31
0.0
  0
LINE
  5
256
100
AcDbEntity
  8
dxf2
 62
1
100
AcDbLine
 10
18.713915
 20
31.368021
 30
0.0
 11
18.583021
 21
31.383641
 31
0.0
  0
LINE
  5
257
100
AcDbEntity
  8
dxf2
 62
1
100
AcDbLine
 10
18.583021
 20
31.383641
 30
0.0
 11
18.450793
 21
31.396951
 31
0.0
  0
LINE
  5
258
100
AcDbEntity
  8
dxf2
 62
1
100
AcDbLine
 10
18.450793
 20
31.396951
 30
0.0
 11
18.317237
 21
31.407941
 31
0.0
  0
LINE
  5
259
100
AcDbEntity
  8
dxf2
 62
1
100
AcDbLine
 10
18.317237
 20
31.407941
 30
0.0
 11
18.182355
 21
31.416641
 31
0.0
  0
LINE
  5
25a
100
AcDbEntity
  8
dxf2
 62
1
100
AcDbLine
 10
18.182355
 20
31.416641
 30
0.0
 11
18.046152
 21
31.423041
 31
0.0
  0
LINE
  5
25b
100
AcDbEntity
  8
dxf2
 62
1
100
AcDbLine
 10
18.046152
 20
31.423041
 30
0.0
 11
17.908631
 21
31.427041
 31
0.0
  0
LINE
  5
25c
100
AcDbEntity
  8
dxf2
 62
1
100
AcDbLine
 10
17.908631
 20
31.427041
 30
0.0
 11
17.769797
 21
31.428741
 31
0.0
  0
LINE
  5
25d
100
AcDbEntity
  8
dxf2
 62
1
100
AcDbLine
 10
17.769797
 20
31.428741
 30
0.0
 11
17.629652
 21
31.428122
 31
0.0
  0
LINE
  5
25e
100
AcDbEntity
  8
dxf2
 62
1
100
AcDbLine
 10
17.629652
 20
31.428122
 30
0.0
 11
17.488202
 21
31.425222
 31
0.0
  0
LINE
  5
25f
100
AcDbEntity
  8
dxf2
 62
1
100
AcDbLine
 10
17.488202
 20
31.425222
 30
0.0
 11
17.345449
 21
31.419922
 31
0.0
  0
LINE
  5
260
100
AcDbEntity
  8
dxf2
 62
1
100
AcDbLine
 10
17.345449
 20
31.419922
 30
0.0
 11
17.201398
 21
31.412322
 31
0.0
  0
LINE
  5
261
100
AcDbEntity
  8
dxf2
 62
1
100
AcDbLine
 10
17.201398
 20
31.412322
 30
0.0
 11
17.056053
 21
31.402422
 31
0.0
  0
LINE
  5
262
100
AcDbEntity
  8
dxf2
 62
1
100
AcDbLine
 10
17.056053
 20
31.402422
 30
0.0
 11
16.909417
 21
31.390142
 31
0.0
  0
LINE
  5
263
100
AcDbEntity
  8
dxf2
 62
1
100
AcDbLine
 10
16.909417
 20
31.390142
 30
0.0
 11
16.761494
 21
31.375522
 31
0.0
  0
LINE
  5
264
100
AcDbEntity
  8
dxf2
 62
1
100
AcDbLine
 10
16.761494
 20
31.375522
 30
0.0
 11
16.612289
 21
31.358562
 31
0.0
  0
LINE
  5
265
100
AcDbEntity
  8
dxf2
 62
1
100
AcDbLine
 10
16.612289
 20
31.358562
 30
0.0
 11
16.461805
 21
31.339252
 31
0.0
  0
LINE
  5
266
100
AcDbEntity
  8
dxf2
 62
1
100
AcDbLine
 10
16.461805
 20
31.339252
 30
0.0
 11
16.310047
 21
31.317602
 31
0.0
  0
LINE
  5
267
100
AcDbEntity
  8
dxf2
 62
1
100
AcDbLine
 10
16.310047
 20
31.317602
 30
0.0
 11
16.157017
 21
31.293602
 31
0.0
  0
LINE
  5
268
100
AcDbEntity
  8
dxf2
 62
1
100
AcDbLine
 10
16.157017
 20
31.293602
 30
0.0
 11
16.002721
 21
31.267252
 31
0.0
  0
LINE
  5
269
100
AcDbEntity
  8
dxf2
 62
1
100
AcDbLine
 10
16.002721
 20
31.267252
 30
0.0
 11
15.847161
 21
31.238552
 31
0.0
  0
LINE
  5
26a
100
AcDbEntity
  8
dxf2
 62
1
100
AcDbLine
 10
15.847161
 20
31.238552
 30
0.0
 11
15.690341
 21
31.207492
 31
0.0
  0
LINE
  5
26b
100
AcDbEntity
  8
dxf2
 62
1
100
AcDbLine
 10
15.690341
 20
31.207492
 30
0.0
 11
15.532267
 21
31.174082
 31
0.0
  0
LINE
  5
26c
100
AcDbEntity
  8
dxf2
 62
1
100
AcDbLine
 10
15.532267
 20
31.174082
 30
0.0
 11
15.372940
 21
31.138312
 31
0.0
  0
LINE
  5
26d
100
AcDbEntity
  8
dxf2
 62
1
100
AcDbLine
 10
15.372940
 20
31.138312
 30
0.0
 11
15.212366
 21
31.100182
 31
0.0
  0
LINE
  5
26e
100
AcDbEntity
  8
dxf2
 62
1
100
AcDbLine
 10
15.212366
 20
31.100182
 30
0.0
 11
15.050548
 21
31.059682
 31
0.0
  0
LINE
  5
26f
100
AcDbEntity
  8
dxf2
 62
1
100
AcDbLine
 10
15.050548
 20
31.059682
 30
0.0
 11
14.887489
 21
31.016822
 31
0.0
  0
LINE
  5
270
100
AcDbEntity
  8
dxf2
 62
1
100
AcDbLine
 10
14.887489
 20
31.016822
 30
0.0
 11
14.723196
 21
30.971592
 31
0.0
  0
LINE
  5
271
100
AcDbEntity
  8
dxf2
 62
1
100
AcDbLine
 10
14.723196
 20
30.971592
 30
0.0
 11
14.557670
 21
30.923992
 31
0.0
  0
LINE
  5
272
100
AcDbEntity
  8
dxf2
 62
1
100
AcDbLine
 10
14.557670
 20
30.923992
 30
0.0
 11
14.390915
 21
30.874021
 31
0.0
  0
LINE
  5
273
100
AcDbEntity
  8
dxf2
 62
1
100
AcDbLine
 10
14.390915
 20
30.874021
 30
0.0
 11
14.222937
 21
30.821681
 31
0.0
  0
LINE
  5
274
100
AcDbEntity
  8
dxf2
 62
1
100
AcDbLine
 10
14.222937
 20
30.821681
 30
0.0
 11
14.053738
 21
30.766961
 31
0.0
  0
LINE
  5
275
100
AcDbEntity
  8
dxf2
 62
1
100
AcDbLine
 10
14.053738
 20
30.766961
 30
0.0
 11
13.883322
 21
30.709871
 31
0.0
  0
LINE
  5
276
100
AcDbEntity
  8
dxf2
 62
1
100
AcDbLine
 10
13.883322
 20
30.709871
 30
0.0
 11
13.711694
 21
30.650391
 31
0.0
  0
LINE
  5
277
100
AcDbEntity
  8
dxf2
 62
1
100
AcDbLine
 10
13.711694
 20
30.650391
 30
0.0
 11
13.538856
 21
30.588531
 31
0.0
  0
LINE
  5
278
100
AcDbEntity
  8
dxf2
 62
1
100
AcDbLine
 10
13.538856
 20
30.588531
 30
0.0
 11
13.364814
 21
30.524291
 31
0.0
  0
LINE
  5
279
100
AcDbEntity
  8
dxf2
 62
1
100
AcDbLine
 10
13.364814
 20
30.524291
 30
0.0
 11
13.189570
 21
30.457661
 31
0.0
  0
LINE
  5
27a
100
AcDbEntity
  8
dxf2
 62
1
100
AcDbLine
 10
13.189570
 20
30.457661
 30
0.0
 11
13.013130
 21
30.388641
 31
0.0
  0
LINE
  5
27b
100
AcDbEntity
  8
dxf2
 62
1
100
AcDbLine
 10
13.013130
 20
30.388641
 30
0.0
 11
12.835496
 21
30.317231
 31
0.0
  0
LINE
  5
27c
100
AcDbEntity
  8
dxf2
 62
1
100
AcDbLine
 10
12.835496
 20
30.317231
 30
0.0
 11
12.656673
 21
30.243431
 31
0.0
  0
LINE
  5
27d
100
AcDbEntity
  8
dxf2
 62
1
100
AcDbLine
 10
12.656673
 20
30.243431
 30
0.0
 11
12.476664
 21
30.167231
 31
0.0
  0
LINE
  5
27e
100
AcDbEntity
  8
dxf2
 62
1
100
AcDbLine
 10
12.476664
 20
30.167231
 30
0.0
 11
12.295474
 21
30.088641
 31
0.0
  0
LINE
  5
27f
100
AcDbEntity
  8
dxf2
 62
1
100
AcDbLine
 10
12.295474
 20
30.088641
 30
0.0
 11
12.113219
 21
30.007406
 31
0.0
  0
ENDSEC
  0
SECTION
  2
OBJECTS
  0
DICTIONARY
  5
C
330
0
100
AcDbDictionary
  3
ACAD_GROUP
350
D
  3
ACAD_MLINESTYLE
350
17
  0
DICTIONARY
  5
D
330
C
100
AcDbDictionary
  0
DICTIONARY
  5
1A
330
C
100
AcDbDictionary
  0
DICTIONARY
  5
17
330
C
100
AcDbDictionary
  3
STANDARD
350
18
  0
DICTIONARY
  5
19
330
C
100
AcDbDictionary
  0
ENDSEC
  0
EOF
